/* XPM */
static char *b3cf9ccd737f4f1a96f6e8450efa0eedN9Yb86uZWbWkhROp[] = {
/* columns rows colors chars-per-pixel */
"50 50 137 2 ",
"   c None",
".  c #010101",
"X  c #070807",
"o  c #080807",
"O  c #070808",
"+  c #0B0B0B",
"@  c #100F0F",
"#  c #0F100E",
"$  c #11110F",
"%  c #131412",
"&  c #171814",
"*  c #191B16",
"=  c #1C1D1B",
"-  c #1E211B",
";  c #22241E",
":  c #25281F",
">  c #1F1F20",
",  c #242522",
"<  c #262923",
"1  c #2A2D25",
"2  c #2B2E2A",
"3  c #2F322B",
"4  c #31352C",
"5  c #353A2E",
"6  c #343434",
"7  c #363A31",
"8  c #393C34",
"9  c #3C3C3C",
"0  c #3D4233",
"q  c #3F423B",
"w  c #414736",
"e  c #424A37",
"r  c #41453C",
"t  c #454C3A",
"y  c #47503C",
"u  c #4A523E",
"i  c #434343",
"p  c #464A40",
"a  c #494E43",
"s  c #4B4B4B",
"d  c #4D5343",
"f  c #4F5844",
"g  c #4E5449",
"h  c #505747",
"j  c #525A46",
"k  c #52564B",
"l  c #555B4C",
"z  c #5A5F4F",
"x  c #525353",
"c  c #585E52",
"v  c #5B5B5B",
"b  c #5A624E",
"n  c #5D6453",
"m  c #5F6955",
"M  c #606756",
"N  c #616957",
"B  c #606558",
"V  c #656D5B",
"C  c #6A735E",
"Z  c #646464",
"A  c #6D6D6D",
"S  c #6D7561",
"D  c #6F7863",
"F  c #707666",
"G  c #727B66",
"H  c #727769",
"J  c #757E6A",
"K  c #747474",
"L  c #7E7E7E",
"P  c #77806A",
"I  c #79836D",
"U  c #7D8671",
"Y  c #7D8871",
"T  c #828776",
"R  c #828C73",
"E  c #828978",
"W  c #869079",
"Q  c #8B947D",
"!  c #8E9A7F",
"~  c #919C7E",
"^  c #838383",
"/  c #8E8E8E",
"(  c #8F9581",
")  c #8E9882",
"_  c #939D84",
"`  c #959C88",
"'  c #909090",
"]  c #9C9C9C",
"[  c #96A487",
"{  c #97A188",
"}  c #97A38B",
"|  c #97A08A",
" . c #98A389",
".. c #99A38A",
"X. c #9AA28C",
"o. c #9BA28F",
"O. c #9BA48C",
"+. c #9BA58D",
"@. c #9CA58E",
"#. c #9DA88E",
"$. c #A0AA90",
"%. c #A0AA91",
"&. c #A2AC93",
"*. c #A3AD94",
"=. c #A3AE94",
"-. c #A2AE95",
";. c #A5AF96",
":. c #A5AE97",
">. c #A5AF97",
",. c #A6AE97",
"<. c #A3AC93",
"1. c #A5B096",
"2. c #A6B097",
"3. c #A9B499",
"4. c #AAB599",
"5. c #AAB59B",
"6. c #ABB49C",
"7. c #ADB79E",
"8. c #A8B298",
"9. c gray65",
"0. c #AFB9A0",
"q. c #B3BEA2",
"w. c #B2BDA1",
"e. c gray71",
"r. c #B9B9B9",
"t. c #BBBBBC",
"y. c #B5C0A3",
"u. c #C6C6C6",
"i. c gray86",
"p. c #DFDFDF",
"a. c gainsboro",
"s. c #E6E6E6",
"d. c #F6F6F6",
"f. c gray97",
"g. c #F9F9F9",
"h. c #FBFBFB",
"j. c white",
/* pixels */
"                                                                                                    ",
"                                                                                                    ",
"                                                                                                    ",
"                                                                                                    ",
"                                                                                                    ",
"                                                      9 . . . %                                     ",
"                                                      . X 8 7 % .                                   ",
"                                                    . , D 7.0.2 . L                                 ",
"              x . % @                           9 , , B q.{ *.( + .                                 ",
"            . . . . . . .             v i = O . . . X.3.X.J I X.= . ]                               ",
"          . + x       8 + .   8 % . . . . . X 7 p J X.;.I S C Q r . s                               ",
"          . i             . + . . > 2 k n T Q 5.;.*.....U J J P a . . /                             ",
"        . +               + . X H 2.2.$.#.! Y G G G G D n c n t z ; . . Z                           ",
"        . %               . . p $.I P S D C D D S V m P < . . . ; a 2 X @ + ]                       ",
"        . %               . . a I C S C N b b u u t t t @ + @ O . . - n % . . x                     ",
"        6 .             i . . < C n y t t 0 4 < : < 1 % . s f.t.6 . . = k 8 . . <                   ",
"          . v           . , + . 4 t 0 4 * + . . . . . . . < h.    A . . 7 b k . X 8                 ",
"            % . > & . O = A x o o o X . . . $ X . + < $ O . Z g.    K 6 . - n l . .                 ",
"            = . . . + 9     9.. . . . . r m ,.2 . 1 d C 9 . O 9 t.f.  ] . X < n a = .               ",
"                            s . . . X V { 6.3.n O X 1 j m r . . & s.    A . $ y I < . 9             ",
"                            . . . . X t C 8...0.4 . ; 0 N G r + . = a.    v $ & t D , . ^           ",
"                            = . 8 . X 5 b  .*.$.U % . 4 y C R C X . e.p.    . . 3 n d + =           ",
"                          u.= . q . O w b ! +.! w.6 . = 0 f l g 9 & . / j.  K . X 0 I 1 . ^         ",
"                          9 . , a . O w N I G R T V O . X . . . . . . A a.    O O 2 j 8 . i         ",
"                        s % X l n . + t f c 2 ; . . . . . X O + # X o . 9       > . 0 a . r         ",
"                        . . N I l . X ; + . . . O % , . . 4 t e 0 e 1 . . ^     s . = 4 . i         ",
"                      H . < G G l . . . . + 3 j S R Y % . : u t d u k 1 . Z       , . = . s         ",
"                      v . q F % O . . = ; b R ~ _ ! 1.d . & 0 j G G J n $ .       ^ i . =           ",
"                      i . O + . . . X e u l Q =.$.;.;.@.$ . 5 e V G D P = .           O 9           ",
"                      i . . . ; 4 . X 0 h G W { @.$.$.<.< . ; e n J D P 2 . ^                       ",
"                        . - 0 u z . X 0 y C S C ` 3.#.y.D . % t j G S J 3 . K                       ",
"                        . ; S J V X . 8 t C P P R I Z J 8 . X % + + O # O . K                       ",
"                        . < J G C O . 5 t N h r = % . . . . . . . . . . . . K                       ",
"                        . = G S I 3 . = - % . . . . X O 3 * . $ 5 5 8 5 % . /                       ",
"                        . X C U V % . . . . O & : 4 8 0 P d . * u t t t % .                         ",
"                        + . k 7 = . . . * 4 8 t t t u t C V . O e y e e % .                         ",
"                        s . % . . * $ . : t j m V C D D Y T . X e S G k . =                         ",
"                          . . * < y 3 . + t u G G G G S J Q X . t G J r . 2                         ",
"                          + . 0 d N z % X : y C D G P P I ` + . 0 V n . X                           ",
"                          x O % b G I 5 . * t l I C n t 8 < X . X . % X &                           ",
"                            @ . k G G n % . = 3 3 O . . . . . . . o X .                             ",
"                              , . g I a = . . . . . . = 1 8 . . h i . =                             ",
"                              9 . % = . . . . + = k N G J r . * n < . L                             ",
"                                2 . . + 4 3 % . : b J Y V . . g 2 . %                               ",
"                                  x . O = 7 , . O % 3 4 , X . . . . Z                               ",
"                                      2 . . . . . . . . . . . = v                                   ",
"                                          v x i i x v K L                                           ",
"                                                                                                    ",
"                                                                                                    ",
"                                                                                                    "
};
