/* XPM */
static char *_d9040df09c84bd5e21fe66aa3267e02W8t0Y6dyiBBu4jBp[] = {
/* columns rows colors chars-per-pixel */
"50 50 151 2 ",
"   c None",
".  c #181000",
"X  c #1C1200",
"o  c #1C1302",
"O  c #241700",
"+  c #231B05",
"@  c #211907",
"#  c #261A05",
"$  c #251B08",
"%  c #2B210F",
"&  c #342100",
"*  c #3F2800",
"=  c #302008",
"-  c #32230A",
";  c #3A260B",
":  c #3F3200",
">  c #3E3218",
",  c #402800",
"<  c #422A01",
"1  c #482E03",
"2  c #4D2F00",
"3  c #462E0B",
"4  c #432D0E",
"5  c #4A3B00",
"6  c #4E3E00",
"7  c #493108",
"8  c #4F3409",
"9  c #4F370F",
"0  c #533700",
"q  c #5B3700",
"w  c #533A0E",
"e  c #58390A",
"r  c #443010",
"t  c #483010",
"y  c #4C3312",
"u  c #523814",
"i  c #503816",
"p  c #543A15",
"a  c #553D16",
"s  c #533D18",
"d  c #543C1A",
"f  c #633B00",
"g  c #663E00",
"h  c #4F4000",
"j  c #504000",
"k  c #564605",
"l  c #5F4F0D",
"z  c #5C4018",
"x  c #794800",
"c  c #61510E",
"v  c #775600",
"b  c #684410",
"n  c #64461B",
"m  c #67491D",
"M  c #6B4C1A",
"N  c #784F16",
"B  c #6C5C18",
"V  c #4F422B",
"C  c #544425",
"Z  c #584828",
"A  c #604823",
"S  c #6B532B",
"D  c #6C5428",
"F  c #705020",
"G  c #745525",
"H  c #7C5E2E",
"J  c #705830",
"K  c #715936",
"L  c #715E38",
"P  c #776722",
"I  c #7E6134",
"U  c #7C6136",
"Y  c #776746",
"T  c #746448",
"R  c #804C00",
"E  c #895400",
"W  c #935700",
"Q  c #995A00",
"!  c #885A1D",
"~  c #895B1D",
"^  c #8D5E1F",
"/  c #A05E00",
"(  c #9C6300",
")  c #9C7400",
"_  c #B36900",
"`  c #88642C",
"'  c #906020",
"]  c #966626",
"[  c #9A6C2A",
"{  c #9B6C2B",
"}  c #82722B",
"|  c #846838",
" . c #887830",
".. c #A37331",
"X. c #A57C3E",
"o. c #C07000",
"O. c #C67800",
"+. c #8D6F42",
"@. c #8C7242",
"#. c #8E7144",
"$. c #8E7444",
"%. c #8B7548",
"&. c #8F7748",
"*. c #91764B",
"=. c #907849",
"-. c #8C7450",
";. c #8E7651",
":. c #927952",
">. c #AF843F",
",. c #B0803C",
"<. c #DC9800",
"1. c #E5B100",
"2. c #F8C000",
"3. c #998B49",
"4. c #988050",
"5. c #9C8053",
"6. c #99825C",
"7. c #BD8D47",
"8. c #A08458",
"9. c #998565",
"0. c #9C9074",
"q. c #B49C70",
"w. c #BFA77D",
"e. c #C1944F",
"r. c #C99952",
"t. c #C1A35F",
"y. c #C8A15C",
"u. c #D0A058",
"i. c #D4A65D",
"p. c #D6AD6E",
"a. c #C9B962",
"s. c #DCB166",
"d. c #D6BB6E",
"f. c #E4BC70",
"g. c #F8D146",
"h. c #D0C068",
"j. c #E5C67A",
"k. c #ECC77A",
"l. c #BDA781",
"z. c #B5B2A2",
"x. c #C1AE81",
"c. c #DCBA83",
"v. c #D0B890",
"b. c #D4BE99",
"n. c #C1B9A2",
"m. c #F4D283",
"M. c #F8D888",
"N. c #E4CCA0",
"B. c #F8E6B3",
"V. c #F8F5DE",
"C. c #F8F8E8",
/* pixels */
"                                                                                                    ",
"                                                                                                    ",
"                                                                                                    ",
"                . t F F                                                                             ",
"                - K n +.U                                                                           ",
"            . . F v.t v.-.t F                                                                       ",
"      . . . F v.F v.F v.-.t v.F F                                                                   ",
"  . . m a . t 4.4.F v.v.8.F 4.v.F                           , , ,                                   ",
". t 4.G n t . F v.F 4.v.q.4.4.v.F                     , , v 2.C.C., , ,                             ",
"  . 4.i A 4.. 4.v.F F v.q.4.v.v.F                   , 2.2.g.C.2.2.C.2.2., ,                         ",
"  . t t A 4.t 4.v.v.F 4.| F v.4.v.F     , , , ,   , 2.2.2.2.2.2.o.2.2.2.2.) , ,                     ",
"    . 4 A 4.F F v.v.F 4.| F 4.v.v.F   , X.u.u.' , o.2.2.O.o.o.o.2.2.2.o.o.R , ' ,                   ",
"    . 4 d J | F q.v.F 4.$.| | q.v.F , ` y.f.f.,.R <.<.<.E ( <.<.2.2.<.R o./ R b ,                   ",
"    . 4 t t 4.F 4.v.F 4.4.4.F 4.v.F , u.k.M.M.u.o.2.o.o.2 v 2.2.2.2.o., o.o.o., ,                   ",
"      . - F 4.F 4.v.4.F | 4.F 4.v., u.u.k.M.M.u., o., , 1.2.2.o.o.o., ' , R o., ,                   ",
"      . # t F t F 4.v.F | 4.F F 4., u.u.u.u.u.' , , o.2.O.o.o., , ' ' u., R o.,                     ",
"          . 4.. F 4.v.F F F t t , ' ' ' 7.r.' ' , ' , , , , , M.u.' u.M.u.` , ,                     ",
"          . F . t F v.F F F t , M.u.u.u...' ' u., u., , ! ' ' u., , u.u.C.0.,                       ",
"          . t t . F 4.F F F t , M.u.u.' e 8 u.u., ' u., , e ' , , 2., , , R o.,                     ",
"          . . t . F 4.v.8.F , M.M.u.' , N { M.u.u., ' ' 1 , , 2.2.2.2.o.o.o.o.,                     ",
"      . . . L # . @.H v.:.a , M.s.u.e N ! { M.u.u.N e e , q Q 2.v v v g g W o.,                     ",
"      . o $ %.$ $ %.F v.-.y 7 j.u.i.w ! ^ [ m.i.u.] 1 , , g _ 1.2 2 0 2 , x _ ,                     ",
"      . > 4.. 4.4.. F v.8.F 4., u.M.M., N ] u.M.u.u.' , , , , , o.o.2.o., , ,                       ",
"          . 4.. . 4.. . Z 4.F , ' u.M., N ] u.u.u.u.' ' ' N , o.o.2.2.2., ,                         ",
"          . . 4.. . v.4.D , , . . ' u.u.M 1 ' u.u.u.u.' ' N , o.2.2.2.C., ,                         ",
"          . . . v.4.. . T v.4.v.. , , , X.e., ^ ' ' ' ' 1 , , , o.2.2.C., ,                         ",
"          . 4.. . . v.4.Z . . . v.v.v.v.S , * * , , , , , & . 4.o.o.2.2., ,                         ",
"            . 4.. . . . T v.4.. . . . . z.C.C.C.C.v.4.4.4.4.4., , o.2.o., ,                         ",
"              $ l.%.%.. o % $ l.l.l.%.l.&.U U | a y $ $ $ $ $ X %._ 2.o.* <                         ",
"              . 9.L L > > > V 9.9.9.L p.5.$.6.6.Y Y V V V V V > U Q 2.( *                           ",
"                . . . 4.6.4.v.. . . . :.p.n.C.C.C.C.v.v.v.v.v.4.. , 2.,                             ",
"                  . D . . . :.v.v.v.. . a F F F , . . . . . . . 4.. ,                               ",
"                  . t t - . . . . . v.v.v.b.C.v.C.v.C.C.b.v.v.4..                                   ",
"                  . t t # X  .j j . . . . . . . . . . . . . . .                                     ",
"                  . t 4.J t .  . .j , , , & * 6 j h., , 5 1 .                                       ",
"                  . t F z t t .  ., M.M.7.! , , h., u.u.m.d. ..                                     ",
"                    X F z t t . , ' u.C.c.r.' ,  ., u.M.V.n., .                                     ",
"                    . a p t t - , ' u.N.p.r.' , B , u.M.B.x., .                                     ",
"                    . t t t t t , ' u.u.u.r.' , j , u.M.M.t., .                                     ",
"                    . y a F t , ' ' u.u...! , , , ' ' u.u.X.,                                       ",
"                    . t z F F , ' u.u.' e *       , ' ' r.X.,                                       ",
"                    . F | 4., . ' ' , , 3 t       , ' ' ' ..u.,                                     ",
"                    . t z F . . . . . v.K t         , ' ' ..u.,                                     ",
"                      . r F . j j j . v.K t         . . . O , .                                     ",
"                      . Z 4..  . .j j . ; t       . j j }  . . ..                                   ",
"                      . Z 4.. c  .P j . ; t       . j j c c c  .3.. . .                             ",
"                      . C =.. j  . .k . ; t       . 5 5 j j j } a.+ + .                             ",
"                      . - t . j  . . .. ; t       . . . 5 j j j  . . ..                             ",
"                      . - t . j  .h. .. ; t             . . . j j j j .                             ",
"                      . t M v.. . j j . ; t                   . . . .                               "
};
