/* XPM */
static char *_4993548fb6341d8e4d6132b87da23aelX14bylxTAUmz6wx[] = {
/* columns rows colors chars-per-pixel */
"50 50 217 2 ",
"   c None",
".  c black",
"X  c #010100",
"o  c #010101",
"O  c #020201",
"+  c #000202",
"@  c #010202",
"#  c #020202",
"$  c #030403",
"%  c #050402",
"&  c #060503",
"*  c #040505",
"=  c #090602",
"-  c #050805",
";  c #0A0906",
":  c #0F0C07",
">  c #070808",
",  c #070909",
"<  c #090A0A",
"1  c #0D0B09",
"2  c #080C08",
"3  c #0F0D08",
"4  c #0A0C0C",
"5  c #0A0D0D",
"6  c #0D0E0E",
"7  c #160000",
"8  c #130E07",
"9  c #110E0A",
"0  c #13100B",
"q  c #15140D",
"w  c #18140D",
"e  c #0D1010",
"r  c #0E1010",
"t  c #131210",
"y  c #121513",
"u  c #111414",
"i  c #131515",
"p  c #141616",
"a  c #101810",
"s  c #101811",
"d  c #121A12",
"f  c #151D15",
"g  c #1C1810",
"h  c #1E1B16",
"j  c #141818",
"k  c #171E1A",
"l  c #1E1D19",
"z  c #1B1C1C",
"x  c #1D1F1F",
"c  c #23140D",
"v  c #201C12",
"b  c #201E1B",
"n  c #211F1B",
"m  c #1F201D",
"M  c #2D2717",
"N  c #292318",
"B  c #372F1F",
"V  c #161C22",
"C  c #1A2020",
"Z  c #1E2222",
"A  c #1E2323",
"S  c #1C2420",
"D  c #1F2721",
"F  c #212727",
"G  c #272727",
"H  c #202825",
"J  c #2E2B26",
"K  c #262929",
"L  c gray18",
"P  c #383020",
"I  c #393121",
"U  c #3B3323",
"Y  c #3C3424",
"T  c #3E3626",
"R  c #3F3727",
"E  c #283030",
"W  c #293131",
"Q  c #2A3232",
"!  c #2E3636",
"~  c #303535",
"^  c #333636",
"/  c #303838",
"(  c #373F3B",
")  c #353D3D",
"_  c #373E3E",
"`  c #6C0000",
"'  c #780000",
"]  c #790301",
"[  c #7E0600",
"{  c #402A0C",
"}  c #543710",
"|  c #7C300E",
" . c #403828",
".. c #403B2F",
"X. c #413B2F",
"o. c #453D2D",
"O. c #403D36",
"+. c #39413F",
"@. c #694514",
"#. c #484133",
"$. c #4A4232",
"%. c #484234",
"&. c #4C4434",
"*. c #464138",
"=. c #524B3C",
"-. c #554D3D",
";. c #7D5A29",
":. c #384040",
">. c #3A4242",
",. c #3B4242",
"<. c #3D4040",
"1. c #3D4545",
"2. c #3E4444",
"3. c #414545",
"4. c #4A4740",
"5. c #404848",
"6. c #434B4B",
"7. c #454C4C",
"8. c #454D4D",
"9. c #474F4F",
"0. c gray29",
"q. c #4A4F4F",
"w. c #585040",
"e. c #5C5444",
"r. c #485050",
"t. c #495151",
"y. c #4A5252",
"u. c #4C5454",
"i. c #4F5755",
"p. c #535353",
"a. c #515757",
"s. c #515959",
"d. c #525A5A",
"f. c #555959",
"g. c #625A4A",
"h. c #655D4D",
"j. c #655F4E",
"k. c #665E4E",
"l. c #625C50",
"z. c #6B6353",
"x. c #716959",
"c. c #736C5D",
"v. c #586060",
"b. c #5B6363",
"n. c #5C6161",
"m. c #5C6262",
"M. c #5C6464",
"N. c #5E6565",
"B. c #5E6666",
"V. c #5F6767",
"C. c #616561",
"Z. c #626A6A",
"A. c #656B6B",
"S. c #656D6D",
"D. c #666E6E",
"F. c #696F6F",
"G. c #787060",
"H. c #797161",
"J. c #7D7565",
"K. c #697171",
"L. c #6A7272",
"P. c #6D7575",
"I. c #6E7676",
"U. c #6F7777",
"Y. c #707878",
"T. c #747C7C",
"R. c #777F7F",
"E. c #7B7B7B",
"W. c #AA3200",
"Q. c #805418",
"!. c #82561A",
"~. c #9F4C25",
"^. c #A07234",
"/. c #B6783A",
"(. c #A7755B",
"). c #807868",
"_. c #837B6B",
"`. c #B88848",
"'. c #888070",
"]. c #8D8575",
"[. c #908878",
"{. c #918979",
"}. c #908A7D",
"|. c #948C7C",
" X c #968E7E",
".X c #D5AC61",
"XX c #7F8787",
"oX c #808989",
"OX c #838A8A",
"+X c #848C8C",
"@X c #868E8D",
"#X c #8E8E8E",
"$X c #989080",
"%X c #9C9484",
"&X c #9D9585",
"*X c #9D9789",
"=X c #889090",
"-X c #939393",
";X c #909797",
":X c #909898",
">X c #969E9E",
",X c #A59D8D",
"<X c #A69E8E",
"1X c #A8A090",
"2X c #A8A190",
"3X c #B0A898",
"4X c #9AA2A2",
"5X c #9EA6A6",
"6X c #A2A2A2",
"7X c #A0A8A8",
"8X c #F8D880",
"9X c #F9DF97",
"0X c #CED0D0",
"qX c #D8D9D9",
"wX c #EAE7E3",
"eX c gray99",
"rX c #FEFEFE",
/* pixels */
"                                                                                                    ",
"                                                                                                    ",
"                                                                                                    ",
"                                                                                                    ",
"                                                                                                    ",
"                                                                                                    ",
"                                                                                                    ",
"                                                                                                    ",
"                                                                                                    ",
"                                                                                                    ",
"                                                                                                    ",
"                                                                                                    ",
"                                                                                                    ",
"                                                                                                    ",
"                                                                                                    ",
"                                                                                                    ",
"                                                                                                    ",
"                  <X<X1X<X<X%X X X X X X X X X<X<X<X<X                                    -         ",
"1X<X$X$X$X].'.'.'.'.G.G.'.'.G.G.G.G.G.G.G.G.G.G.G.G.'.'.'.'.'.'.'.'.$X$X$X$X$X1X1X1X1Xo r E         ",
"1X1X%X%X%X{.].].].'.).'.).J.J.G.G.G.J.l.J t o J J G.J.G.G.J.J.G.G.J.J.J.J.J.'.].].].$X%X*XE         ",
"                  1X1X1X1X1X%X$X$X$X$X$X$XO.o  X$X'.'.'.'.'.'.'.'.$X1X1X<X2X2XM.r.r.9.L r.E         ",
"                                        o o o                               _ XX+X@Xo o C E V       ",
"                                          o o                               o L E E r.E r.r.r       ",
"                                    o 9X9X.X`.!.!.@.o                         9.:.r.K.r.E r.i       ",
"                                  o 5X:XY.Y.U.;.;.o 6 9.r.o             o o o Y.r.9.r.E o E i       ",
"                                  o 7Xq.o o o r.L o L 3XP.rXD.          Y.b.r.S o o r.Y.Y.r.r.r.Y.  ",
"                            x i m.m.OXOX5XT.: d.Q l o 3XZ 7X(.F.6   % 2 M M 6 1.K.9.! < , :.A.:.o   ",
"                          rXo o o o o o Y.v -.; r.o o o ).r.' ' u.o E r.8X8X`.h.r.E E E o           ",
"                        n.-XG o z.*.7X3.3.h P P._ E }.o h.o r.d.E E E r.0.`.^.!.E o q o.1 o         ",
"                      7Xo o Z o o =Xo w.o r.P v.9.E #.o $.o a a a o 9./ 7.{ ;.        o o o         ",
"                  o o K K K N.i.q.= h } o l x d.Z.Z._ 0 m E 1.1.Q R.2.7.~ 6           o T h         ",
"                  P.x o o L o o % 8 `.h J.o.U.r.E E r.a a a Y.Y.Y.Y.E r.7X+.Y...o                   ",
"                o o p o o o U R o o c.x.R f.d.D.r.r.f W.~.[ ` < d.4XY.Y.U.U.Y.! R                   ",
"                    E 9.r.r.Y.Y.a % o &.a V.r.Y.Y.' /.' | o o P P P o N.5Xb.E E o                   ",
"                o 5XY.Y.Y.Y.5Xr.Y.o E H a :.Y.qX5Xa c !.4.3X{.w.e.B P P r.b.E L                     ",
"                d.q.:.0XOXr.r.r.r.r.D y r.6.7X>XD E 7 '  XwX3X).H.g. .O.o 6.E o                     ",
"              o eXU.E.6X0.o 1.r.r.E E * a i P.@XE E F ' w.J.h.w.-.o       o                         ",
"                F L p.#X0.o k S 2 S o q j 3.a ( =Xj ^ o 9 g 3 o                                     ",
"                  o o o o L 5 o P P o w.P $.o o w.o                                                 ",
"                5     N #.o =.o     3     3 o ; N o                                                 ",
"                  o P w.o w.o o               T B o                                                 ",
"                  o ..                                                                              ",
"                                                                                                    ",
"                                                                                                    ",
"                                                                                                    ",
"                                                                                                    ",
"                                                                                                    ",
"                                                                                                    ",
"                                                                                                    ",
"                                                                                                    "
};
