/* XPM */
static char *result[] = {
/* columns rows colors chars-per-pixel */
"50 50 5 1 ",
"  c #E0E098",
". c #B8B058",
"X c #907028",
"o c #705020",
"O c white",
/* pixels */
"                                                  ",
"                                                  ",
"                                                  ",
".    ....            ....    ....    ....         ",
".    ....            ....    ....    ....         ",
".    ....            ....    ....    ....         ",
".    ....            ....    ....    ....         ",
"         ....    ....    ....    ....    .........",
"         ....    ....    ....    ....    .........",
"         ....    ....    ....    ....    .........",
"         ....    ....    ....    ....    .........",
"................................................. ",
"................................................. ",
"................................................. ",
"................................................. ",
".........XXXX....XXXXXXXXXXXX........XXXX.........",
".........XXXX....XXXXXXXXXXXX........XXXX.........",
".........XXXX....XXXXXXXXXXXX........XXXX.........",
".........XXXX....XXXXXXXXXXXX........XXXX.........",
"..................................................",
"..................................................",
"..................................................",
"..................................................",
".............................................    X",
".............................................    X",
".............................................    X",
".............................................    X",
".........    ............................    ooooX",
".........    ............................    ooooX",
".........    ............................    ooooX",
".........    ............................    ooooX",
".    ............................    .............",
".    ............................    .............",
".    ............................    .............",
".    ............................    .............",
"             ....    ....        ....    .........",
"             ....    ....        ....    .........",
"             ....    ....        ....    .........",
"             ....    ....        ....    .........",
" ....                    ....            ....     ",
" ....                    ....            ....     ",
" ....                    ....            ....     ",
" ....                    ....            ....     ",
".    ....    ....    ....    ....    ....    .... ",
".    ....    ....    ....    ....    ....    .... ",
".    ....    ....    ....    ....    ....    .... ",
".    ....    ....    ....    ....    ....    .... ",
".............................    .................",
".............................    .................",
".............................    ................."
};
