/* XPM */
static char *f023d2e9ccf04b4f8acfa17966a6e6dfBWISvhT0cXC3IZWI[] = {
/* columns rows colors chars-per-pixel */
"50 50 89 1 ",
"  c #471D00",
". c #4A1F01",
"X c #4D2403",
"o c #4F2807",
"O c #4E2608",
"+ c #522604",
"@ c #542906",
"# c #5B2C06",
"$ c #502709",
"% c #552C0A",
"& c #592E0B",
"* c #5F3107",
"= c #57300F",
"- c #5C310D",
"; c #582F10",
": c #573010",
"> c #5D3412",
", c #5F3818",
"< c #63340D",
"1 c #69370F",
"2 c #67380F",
"3 c #69390F",
"4 c #623613",
"5 c #643915",
"6 c #6B3C14",
"7 c #653C19",
"8 c #6A3E1A",
"9 c #703E16",
"0 c #703F18",
"q c #6E4116",
"w c #6C411C",
"e c #714117",
"r c #73441B",
"t c #72451D",
"y c #74441C",
"u c #77451C",
"i c #77451D",
"p c #75451F",
"a c #77461F",
"s c #78461D",
"d c #78461E",
"f c #79471F",
"g c #774818",
"h c #75481C",
"j c #75481D",
"k c #76481E",
"l c #78481C",
"z c #7A4B1C",
"x c #7A491E",
"c c #7A4A1F",
"v c #7B4C1F",
"b c #6D4421",
"n c #724622",
"m c #754721",
"M c #754722",
"N c #774A20",
"B c #754923",
"V c #784820",
"C c #794921",
"Z c #7B4B23",
"A c #7D4B22",
"S c #7A4C21",
"D c #7C4D21",
"F c #7C4D23",
"G c #794A24",
"H c #7C4C24",
"J c #7C4E24",
"K c #7C4E27",
"L c #754C29",
"P c #7B4F2A",
"I c #7D4F2A",
"U c #7D5026",
"Y c #7E5127",
"T c #7D502B",
"R c #7E502A",
"E c #805122",
"W c #805025",
"Q c #815224",
"! c #805026",
"~ c #815126",
"^ c #805027",
"/ c #815229",
"( c #835428",
") c #835429",
"_ c #855528",
"` c #85552A",
"' c #87582B",
"] c #855732",
"[ c #895B31",
/* pixels */
"idi99EE99990880810pP]]P841410p56r9idZ``Evggegghgdd",
"991199E99i0100111840GP^1<841mp16C6rC!`'Ezeggxlhrxd",
"999919EEid4141411;41pPP01bGGiV16rpFAF__!vvegdF__Fx",
"691<11dEVd11;#+###<8pPPp80GGm^89rdACFF!!vlkc!`_!Fd",
"9911*1EE^0<<##++.+80ppVGwqdJGGAVudrhhcFvlgdFE!!Fhh",
"9991191E^d<#+++###00ppdGN<Ck^G^GdrrrhhFcleeggFcde6",
"99ddd0dEGm181#>5##198ppGJviq^Z^Arr9rruEFceherr9re<",
"09000960Vi7<<6w011;<40pphk06^VAVrrercCFFhh3ec!6h9<",
"d91996<0m05>45001<&&<6qqqqq*zgkhkeredccdge9hF_6t9<",
"!91116488>884;4544<6qtqqqq3<gqhherrrddire6FFFFqie<",
"m019<<4888w5+&&<4455qNkrqqqqgq2<FxrrccrrFeCcdcCce3",
"909<m0884487&&&-46645qNkgqqqqqqgFFdrudirZeriCCCie1",
"90mi1584;&>8:>&-5884<<UJrgeqqqhvhcdriiF6ciJCirr631",
"606<6584&$%8>>&-56885-kJkreeqqrc3ehrtiC6diiCciq6<1",
"i801408>%%%>%@>>>>n&qqqJq<eke<hc969etiirickicdk613",
"GmG88mb747>;%%%##@8*<4qkkqrdr6rhr66rrttiikkCcdd636",
"NUcewNw5,n,>==%@##&5*<qkUUcJc6rre69rrrrrddcccCC86r",
"wUw<4w5>wb,>>7>>>>4B55rk`[C!Cir9r6ee9rrkdCCdCC!d6i",
"BTw@@>-=::>>>>Lw4:wmn5wqqqU!!Hirrr9963#erJcCCCVcir",
"48w-@-==:::>:==,>488w62553UU!HCrtiir6<91JCCcNiiuVJ",
"6t7--===::=:%%oo;>wwMn8irtCCCC!drr0966Ce!CAVCAdpCF",
"7t55-@-=::%ooooo%;&&&<6666NNCJJdti*6kCA`dZ!ZZZACir",
"7w57===,,7:Oooo=:>+X%6<66riJi3NirrieddCAZ!JJ!/pr63",
"<-<&w,:,,,,:oX=:784%&&566qtiierrrer9rrudCCZ~J!CCi6",
"4<&5;8>:::=%%:,,7784<*56qrreri966669699etiiiNc!Cr6",
"7w644>>;%oXo:bb,,44bw555qwr6e!6619666669rrtriii636",
"k54>>>::@o=O,,,74447856wtwJt6C6<#38666166rrrirJJdi",
"w74>>4>:%@=:bww77,4765w56Cw56J6#<<6661136rrprr!HCc",
"884>>4>>;%>77%787,,5845bkw6<68666<<13<236rrrriirer",
"m5>44>77,:O%,$78b,478488wnN6<4iCC6<<<<<59rritr66<<",
"L5>87:877b$$$%$;;;;478w66wRw4<tm/w65<3qkkcCccrr64r",
"n757777b88;&$;&$+.O;7887wwnw55CmJi6qwqrkJJkirw6666",
"bb75,ww7w7::>>:%O. X&488680868n1i88tttiNRUqqq25w86",
"wbw=:wwwbb,,>7>:$.  X&4887886b5#<446mnNHUvqq5*2rw6",
"bnbwwbwbbb,74,>:$O %;+;4880bPb&&45rP]RHcJU*wqq<266",
"bbwwwbbbb7777744>;>,;;&>78b0P6*->46CRNUFvk2gqw<26w",
"wwwwwwPLb77577777,b>==5>4b88m;4>:&-8mwkhkkqr<q<256",
"77wwb7LL845777b788b;@=75474>0>4>-&#5w6hrqrNq-q<266",
",qwwbLLn874;;487775%X%><>74$&454&&&44#<5ttkUJ6w<*4",
"-4bb7,nb874%;4b75>7=+&->477;&;4;:&&44&+<qhkHJqw2<6",
"-=wq5>Bbw75=%5w54-7=+@>->7b>@%==-=>-*-*-wmtJNqw56i",
"-@=,,wnbw75%=4w54-5-@-@=>5b>+@&:>q>@%5--5hwmmwq58J",
"@oo,w,7>:w5>=ww5,-5>--@*-44>4>&:>=-=qqnwqwUrwBU6wP",
"Xoo=,>>%%>Bwwbbw554-@=@@=4,4>4,%%>-=,,tnwwwq6hRw8J",
"XXXXo>>@@>Lbbbww54>%@@@@->444,$4>=o>5w5nv775wmTNrw",
"XXoXX>b,>wn,>www4>&@X++%->5>,7>;=>->5w5mN<66wTRL86",
"oOooX:w5>7LLw,w74:%@XX+@;>8>4787,,>q,7q-@@+<5<#-57",
"XXoooo,,>,bbb,7b5&&@+XX%%:474774,b7w7w,--@X=*=#-<5",
"OOo%OXo>>:>77557,;&%%XX+@&4774;.o777w75>>----##-<5",
":,OOOXX%=o=:>>4>;&&%+XX+$@&88,b$X>55,>>>57>55%@#-5"
};
