/* XPM */
static char *result[] = {
/* columns rows colors chars-per-pixel */
"50 50 17 1 ",
"  c black",
". c #4B260A",
"X c #743B10",
"o c #884314",
"O c #AA5500",
"+ c #A36B35",
"@ c #E26624",
"# c #E99B35",
"$ c #FEC202",
"% c #F7DF38",
"& c #9B8745",
"* c #D0AC56",
"= c #DFBE64",
"- c #E8CA67",
"; c #EAD498",
": c white",
"> c None",
/* pixels */
">>>>>>>>>>>>>>>>>>>>>>>>>>>>>>>>>>>>>>>>>>>>>>>>>>",
">>>>>>>>>>>>>>>>>>>>>>>>>>>>>>>>>>>>>>>>>>>>>>>>>>",
">>>>>>>>>>>>>>>>>>>>>>>>>>>>>>>>>>>>>>>>>>>>>>>>>>",
">>>>>>>>>>>>>>>>>>>>>>>>>>>>>>>>>>>>>>>>>>>>>>>>>>",
">>>>>>>>>>>>>>>>>>>>>>>>>>>>>...>>>>>>>>>>>>>>>>>>",
">>>>>>>>>>>>>>>>>>>>>>>>>>>..#;#..>>>>>>>>>>>>>>>>",
">>>>>>>>>>>>>>>>>>>>>>>>...@#@..#@.>>>>>>>>>>>>>>>",
">>>>>>>>>>>>>>>>>>>>>>>.oo@#o@..@.@.>>>>>>>>>>>>>>",
">>>>>>>>>>>>>>>>>>>>>>.oo@@o@.#...o.>>>>>>>>>>>>>>",
">>>>>>>>>>>>>>>>>>>>>>.oooo@@.#;.o.>>>>>>>>>>>>>>>",
">>>>>>>>>>>>>>>>>>>>>>.o@@@@.   .o.>>>>>>>>>>>>>>>",
">>>>>>>>>>>>>>     >>>.oo...-   ;.>>>>>>>>>>>>>>>>",
">>>>>>>>>>>>> >==&.   ...-.-;  -->.>>>>>>>>>>>>>>>",
">>>>>>>>>>>>> =&&... $$..-+--;-+..>>>>>>>>>>>>>>>>",
">>>>>>>>>>>>> =&&.. %%$$  .+----.>>>>>>>>>>>>>>>>>",
">>>>>>>>>>>>>> ..  %%%%$$. +-+=-.>>>>>>>>>>>>>>>>>",
">>>>>>>>>>>>>> && %%...%$.+.+-   >>>>>>>>>>>>>>>>>",
">>>>>>>>>>>>> && %%.--O.% ++.+-; >>>>>>>>>>>>>>>>>",
">>>>>>>>>>>>> =& %.-;;;.$ ....++ >>>>>>>>>>>>>>>>>",
">>>>>>>>>>>> =& %%.-;;;O .*>....>>>>>>>>>>>>>>>>>>",
">>>>>>>>>>>> =& %%.O;;-O..>.$.>>>>>>>>>>>>>>>>>>>>",
">>>>>>>>>>>> .. %$.OO-OO.*:.%.>> >>>>>>>>>>>>>>>>>",
">>>>>>>>>>>> & %%$.O---O.::.%.>   >>>>>>>>>>>>>>>>",
">>>>>>>>>>>>> & %%$.+-OOO...$  .&= >>>>>>>>>>>>>>>",
">>>>>>>>>>>>>>   %$.+--;-+&&..  ..= >>>>>>>>>>>>>>",
">>>>>>>>>>>>>>>>  $$.;--;-&X--;. ..& >>>>>>>>>>>>>",
">>>>>>>>>>>>>>>> &  $.---XX--;+. ...& >>>>>>>>>>>>",
">>>>>>>>>>>>>>> &&=X  ..XX----+.- ...& >>>>>>>>>>>",
">>>>>>>>>>>>>>> &&X===&X...--+.+.. ...& >>>>>>>>>>",
">>>>>>>>>>>>>>> &&=&==== X&.....>>> ...= >>>>>>>>>",
">>>>>>>>>>>>>>>> &&&&===& X&&&==.>>> .&  >>>>>>>>>",
">>>>>>>>>>>>>>>> X&&&==== XX&===.>>>>   >>>>>>>>>>",
">>>>>>>>>>>>>>>>> XX&&=:=  XX&==.>>>>>>>>>>>>>>>>>",
">>>>>>>>>>>>>>>>> &&===== XX&&== >>>>>>>>>>>>>>>>>",
">>>>>>>>>>>>>>>> &&=&&==& X&&==& >>>>>>>>>>>>>>>>>",
">>>>>>>>>>>>>> ..  &&&      &&  >>>>>>>>>>>>>>>>>>",
">>>>>>>>>>>>> .....   >> ...  >>>>>>>>>>>>>>>>>>>>",
">>>>>>>>>>>>>  ..& >>>> . ..& >>>>>>>>>>>>>>>>>>>>",
">>>>>>>>>>>> ..&&=& >>> ...&&= >>>>>>>>>>>>>>>>>>>",
">>>>>>>>>>>> ....&&. >> ....&&&. >>>>>>>>>>>>>>>>>",
">>>>>>>>>>>>>        >>>         >>>>>>>>>>>>>>>>>",
">>>>>>>>>>>>>>>>>>>>>>>>>>>>>>>>>>>>>>>>>>>>>>>>>>",
">>>>>>>>>>>>>>>>>>>>>>>>>>>>>>>>>>>>>>>>>>>>>>>>>>",
">>>>>>>>>>>>>>>>>>>>>>>>>>>>>>>>>>>>>>>>>>>>>>>>>>",
">>>>>>>>>>>>>>>>>>>>>>>>>>>>>>>>>>>>>>>>>>>>>>>>>>",
">>>>>>>>>>>>>>>>>>>>>>>>>>>>>>>>>>>>>>>>>>>>>>>>>>",
">>>>>>>>>>>>>>>>>>>>>>>>>>>>>>>>>>>>>>>>>>>>>>>>>>",
">>>>>>>>>>>>>>>>>>>>>>>>>>>>>>>>>>>>>>>>>>>>>>>>>>",
">>>>>>>>>>>>>>>>>>>>>>>>>>>>>>>>>>>>>>>>>>>>>>>>>>",
">>>>>>>>>>>>>>>>>>>>>>>>>>>>>>>>>>>>>>>>>>>>>>>>>>"
};
