/* XPM */
static char *c841d7f377754787b0e9a2bdd34ba1f6QXrE76FW23yAmKwY[] = {
/* columns rows colors chars-per-pixel */
"50 50 186 2 ",
"   c None",
".  c #010000",
"X  c #0A0601",
"o  c #140100",
"O  c #1D0000",
"+  c #110C01",
"@  c #1A0E00",
"#  c #131105",
"$  c #1D1505",
"%  c #1A1A1A",
"&  c #230000",
"*  c #2D0000",
"=  c #280E03",
"-  c #330200",
";  c #3B0500",
":  c #3F0800",
">  c #231700",
",  c #251A00",
"<  c #2A1C00",
"1  c #2D1307",
"2  c #211F11",
"3  c #331B03",
"4  c #2E2000",
"5  c #332500",
"6  c #372900",
"7  c #3B2D00",
"8  c #3E3100",
"9  c #312C11",
"0  c #343013",
"q  c #262524",
"w  c #2C2C2C",
"e  c #373736",
"r  c #410700",
"t  c #4D0300",
"y  c #440A00",
"u  c #4B0D00",
"i  c #540600",
"p  c #4D1100",
"a  c #551400",
"s  c #591700",
"d  c #5C1900",
"f  c #6E0000",
"g  c #730000",
"h  c #7D0000",
"j  c #631E00",
"k  c #4B2103",
"l  c #433500",
"z  c #4B3B00",
"x  c #473C09",
"c  c #45221C",
"v  c #57291B",
"b  c #583317",
"n  c #652300",
"m  c #6B3301",
"M  c #7C3D01",
"N  c #743C05",
"B  c #612D1D",
"V  c #673A18",
"C  c #4F460D",
"Z  c #524200",
"A  c #594800",
"S  c #514915",
"D  c #5C5117",
"F  c #4C4214",
"G  c #604F01",
"H  c #62581A",
"J  c #70461A",
"K  c #6C631D",
"L  c #5D5736",
"P  c #494323",
"I  c #7D5726",
"U  c #6D6429",
"Y  c #726724",
"T  c #756B24",
"R  c #796F2B",
"E  c #786F27",
"W  c #7D742C",
"Q  c #6E6731",
"!  c #7D7334",
"~  c #666340",
"^  c #726841",
"/  c #797A75",
"(  c #830000",
")  c #8A0000",
"_  c #970500",
"`  c #AD0100",
"'  c #B10400",
"]  c #B50C00",
"[  c #B91900",
"{  c #B61200",
"}  c #833B00",
"|  c #803400",
" . c #BE2300",
".. c #C32D00",
"X. c #C43100",
"o. c #C93C00",
"O. c #C73A00",
"+. c #8B4500",
"@. c #8E4B00",
"#. c #884705",
"$. c #914E00",
"%. c #945200",
"&. c #9A5B00",
"*. c #9F6100",
"=. c #A26401",
"-. c #A76C03",
";. c #AC7206",
":. c #80762E",
">. c #857C35",
",. c #827934",
"<. c #9B6B27",
"1. c #A16D21",
"2. c #A97A30",
"3. c #CD4100",
"4. c #8B823C",
"5. c #BD8F3A",
"6. c #BD923E",
"7. c #D58C00",
"8. c #D58700",
"9. c #D79700",
"0. c #D99C00",
"q. c #C09517",
"w. c #D7A607",
"e. c #C9952D",
"r. c #CB9B3A",
"t. c #C89732",
"y. c #C78F24",
"u. c #DDCF34",
"i. c #E1D52E",
"p. c #E1D638",
"a. c #8B8341",
"s. c #908741",
"d. c #938A43",
"f. c #948C4A",
"g. c #988F48",
"h. c #9D944E",
"j. c #9E965A",
"k. c #AA8842",
"l. c #A59C55",
"z. c #AAA15A",
"x. c #9E9763",
"c. c #AEA666",
"v. c #BBB36C",
"b. c #BBAE7D",
"n. c #BDB573",
"m. c #BBB476",
"M. c #B7AF6A",
"N. c #C79B44",
"B. c #C29A51",
"V. c #CDA144",
"C. c #CDA54C",
"Z. c #CFA94F",
"A. c #D0A74E",
"S. c #D0A84F",
"D. c #C8BE4F",
"F. c #CFA953",
"G. c #C0AE5E",
"H. c #D0AB54",
"J. c #D2AE5B",
"K. c #D0A750",
"L. c #D2B05E",
"P. c #D6B96F",
"I. c #D4B466",
"U. c #C0B877",
"Y. c #C2BB7C",
"T. c #D8CB47",
"R. c #E2D94A",
"E. c #E1D740",
"W. c #D9C97F",
"Q. c #E3D677",
"!. c #C4BE82",
"~. c #C7C289",
"^. c #C9C38C",
"/. c #C7C187",
"(. c #DDD086",
"). c #CECA99",
"_. c #E1D98D",
"`. c #E0D886",
"'. c #E1D995",
"]. c #E1DB9B",
"[. c #D4CFA4",
"{. c #D3D0A5",
"}. c #E1DDB1",
"|. c #E3DCA9",
" X c gray87",
".X c #E1E1DB",
/* pixels */
"                                                                                                    ",
"                                                                                                    ",
"                                                                                                    ",
"                                        B a a                                                       ",
"                                        v k V                                                       ",
"                                      d T.R.R.y r u y :                                             ",
"                                      j T.R.w.p.p.p.9.9.* & o                                       ",
"                                      n q.q.u y y y p.i.9.8.8.O                                     ",
"                                        a j s       y y u.w.9.&                                     ",
"                                      j j n           !.y p 9.7.*                                   ",
"                                        V j ;.. &.y !.Y.!.^ - 7.*                                   ",
"                                      u b.|.I.u L.J.: - - 1 v.& *     . . . . .                     ",
"                                        B.C.L.k.(.(.2.* I V = & . w q > ~ L L / q                   ",
"                                    -   6.C.H.J.]._.r.* N.J - * . . . l ^.).)..X.                   ",
"                                      ; ; : %.H.].N.r.+.N.I r ( . 8 z Z h.z.z.{.X                   ",
"                                        c y S.K.J.A.+.; . X ) X.X.. Z Z z.z.z.{.X                   ",
"                                        c p  X^.=.F.%.. h g  ...X.o.X . G G A .                     ",
"                                        % . . . P.*.u . [ _ y a a O.o.. z.z.h..                     ",
"                                        B s }.P.-.p . [ - * &.I.I.a _ o.X Q d.>..                   ",
"                                        v p =.=.p y . ( - O '. X].J.p O.. P d.!..                   ",
"                                            u p u m.: . N N ].'.'.J.a O.o.& . >.n..                 ",
"                                            y i u m.: . @.M W.'.'.6.y  . .- . >.Y..                 ",
"                                           Xr ) y .Xy y %.#.r._.(.#.- { ] t . W v..                 ",
"                                         X  - { r .XY.y &.%.+.t.#.} * g ` i . > > .                 ",
"                                    .   v ; $.- ( r v.; @.} e.t.e.| & g ` ' ' . K .                 ",
"                                  . . . * - V.+.- - - $.+.| } e.} O f g ' ' ` . K .                 ",
"                                . ~.>.< . . . +.- - $.V._.`._.t.} * g h ] - . . .                   ",
"                              . !.7 6 . . . & & T T K.].V.r.V._.- h ( ( . . .    X                  ",
"                            . >.7 8 . * v.Q.q.t.< ! 5 L.H.A.C.; ( ( . . . . .  X                    ",
"                            9 x 6 6 . - b k.t.r.3 D l I 1.<.b o * t . # # $ +                       ",
"                          . W 5 5 4 . - n $.'.F.F.8 z z =.m ; . . . l ~.a.d.g..                     ",
"                      . + R 6 6 6 . N.; M %.C.S.F.J.l . d k 5 Y n.n.!.l >.>.4..  X                  ",
"                    . T F 6 6 8 . - * @.- - $.K.H.y . h.. 2 Y.v.n.U.>.Y.,.>.4..                     ",
"                  . Y.6 7 8 l .       - - - - - : >.l . f.f.Y.n.!.,.,.W W 9 .                       ",
"                  . . >.Y z .         < H T m.W W 8 7 . ~.!.U.Y./.>.4.,.l + .  X                    ",
"                    . . . .           7 c.m.Y.:.4 6 . . x.m..X/.4.s.l z .    X                      ",
"                                      . x.!./.>.,.5 5 . M.Y.Y./.~.^.s.s.. /                         ",
"                                      . S R /.c.T S @ . C U Y.~.f.a.j.d.Q q e                       ",
"                                      . 0 W Y.U.T H + . x D U.~.h.h.^.s.s.# .                       ",
"                                        % . . >.T @ . . . . . 4.).l.h.g.. . .                       ",
"                                              . . . . .       . . . . . x l Z .                     ",
"                                              . 7 , < .           . z l 7 l z z .                   ",
"                                            .   7 5 . .             . >.l l l . .                   ",
"                                        % .   4.>.6 < > . q       . >.!.,.>.a.l l .                 ",
"                                    . Z ! s.d.s.l 6 4 < . w     . > R W 6 6 7 8 8 .                 ",
"                                    . . . . . . . . . . . w     . . . . . . . . . .                 ",
"                                    . . . . . . . . . . . w     . . . . . . . X . X                 ",
"                                                                                                    ",
"                                                                                                    ",
"                                                                                                    "
};
