/* XPM */
static char *_aff9d15a8444880cdb1790c7946f228YxKPTJtFpoYGOWdm[] = {
/* columns rows colors chars-per-pixel */
"54 50 236 2 ",
"   c None",
".  c #1A0E02",
"X  c #150A01",
"o  c #1D1205",
"O  c #1F170C",
"+  c #231405",
"@  c #291605",
"#  c #2B1B05",
"$  c #231509",
"%  c #2B1B0B",
"&  c #25190A",
"*  c #321D09",
"=  c #311D05",
"-  c #241C11",
";  c #2C1E11",
":  c #2D2105",
">  c #332106",
",  c #3C2304",
"<  c #32230B",
"1  c #3B260B",
"2  c #3D2B0B",
"3  c #2E2419",
"4  c #2E2115",
"5  c #332312",
"6  c #3B2A13",
"7  c #3D2D1B",
"8  c #3A352C",
"9  c #442404",
"0  c #452906",
"q  c #442C0C",
"w  c #4A2D0A",
"e  c #462706",
"r  c #4D330C",
"t  c #483809",
"y  c #54340C",
"u  c #5B360C",
"i  c #513C0A",
"p  c #59350A",
"a  c #442D13",
"s  c #4D3413",
"d  c #43321D",
"f  c #4B3716",
"g  c #553611",
"h  c #543B14",
"j  c #5A3C14",
"k  c #523C1C",
"l  c #593F1B",
"z  c #512D0A",
"x  c #623B0B",
"c  c #663E12",
"v  c #433522",
"b  c #4B3D2B",
"n  c #4A3923",
"m  c #513E22",
"M  c #493E35",
"N  c #55420C",
"B  c #5B4316",
"V  c #5D431B",
"C  c #5A4817",
"Z  c #6D430A",
"A  c #6C460C",
"S  c #76490D",
"D  c #644315",
"F  c #6D4513",
"G  c #62461A",
"H  c #634A1D",
"J  c #6A4A1A",
"K  c #724C1B",
"L  c #754C15",
"P  c #6B521E",
"I  c #7A521E",
"U  c #7B5016",
"Y  c #4E402D",
"T  c #564325",
"R  c #5C4322",
"E  c #55442C",
"W  c #5B492B",
"Q  c #5A4629",
"!  c #5A4B36",
"~  c #5E513E",
"^  c #644B23",
"/  c #674D26",
"(  c #6B5325",
")  c #6D522A",
"_  c #6A5729",
"`  c #725324",
"'  c #73562B",
"]  c #755B2C",
"[  c #7A5D2D",
"{  c #7E5624",
"}  c #655233",
"|  c #6B5534",
" . c #675739",
".. c #745C33",
"X. c #745F3A",
"o. c #795E34",
"O. c #6C4D2B",
"+. c #7C6234",
"@. c #7C643B",
"#. c #77653C",
"$. c #7C692D",
"%. c #554E45",
"&. c #5B544A",
"*. c #6A5D47",
"=. c #6D5E4B",
"-. c #766444",
";. c #77654B",
":. c #686258",
">. c #7C6E55",
",. c #726650",
"<. c #7C7569",
"1. c #777169",
"2. c #8A530D",
"3. c #865C0D",
"4. c #855B19",
"5. c #90540B",
"6. c #996309",
"7. c #936716",
"8. c #A6690C",
"9. c #B36E0A",
"0. c #B9760A",
"q. c #A97612",
"w. c #885D24",
"e. c #8D642B",
"r. c #95692C",
"t. c #956728",
"y. c #9D762C",
"u. c #826435",
"i. c #846A3C",
"p. c #876837",
"a. c #966D37",
"s. c #987338",
"d. c #8A7637",
"f. c #AA782E",
"g. c #A77A39",
"h. c #C17908",
"j. c #856B43",
"k. c #8A6F44",
"l. c #8C7244",
"z. c #8D754B",
"x. c #8A754E",
"c. c #957B4D",
"v. c #977A47",
"b. c #847355",
"n. c #8C7A5B",
"m. c #8A7854",
"M. c #927D5D",
"N. c #967D52",
"B. c #887B64",
"V. c #847C74",
"C. c #B98B1A",
"Z. c #B1843E",
"A. c #AD8436",
"S. c #CA870B",
"D. c #D8990B",
"F. c #CC9616",
"G. c #D79C17",
"H. c #C0891D",
"J. c #D9A413",
"K. c #CFA016",
"L. c #E7AA0A",
"P. c #F5BB09",
"I. c #EAB013",
"U. c #C49B21",
"Y. c #C9A63C",
"T. c #F4C415",
"R. c #9C845C",
"E. c #978159",
"W. c #A5824A",
"Q. c #AB8548",
"!. c #B68947",
"~. c #BC914A",
"^. c #A48B5D",
"/. c #A38759",
"(. c #B68D52",
"). c #BB9657",
"_. c #958569",
"`. c #8C857B",
"'. c #948976",
"]. c #9E9179",
"[. c #8F8266",
"{. c #A68E62",
"}. c #AC946B",
"|. c #AA9267",
" X c #B3986A",
".X c #A59578",
"XX c #B59D74",
"oX c #BDA275",
"OX c #B5A27D",
"+X c #BEA47A",
"@X c #B9A06C",
"#X c #C29552",
"$X c #C49A56",
"%X c #CA9C56",
"&X c #C89E5B",
"*X c #C3954D",
"=X c #CDA25B",
"-X c #CCA155",
";X c #D1A45B",
":X c #C59F60",
">X c #CCA767",
",X c #D3AA63",
"<X c #D7AE69",
"1X c #DAB267",
"2X c #C0A67D",
"3X c #DCB877",
"4X c #CABD7C",
"5X c #E3BE76",
"6X c #E1B76F",
"7X c #F6CF4E",
"8X c #E7C37A",
"9X c #F1C87C",
"0X c #EACF6F",
"qX c #968E84",
"wX c #A49A88",
"eX c #A49D94",
"rX c #B7A785",
"tX c #B9AE97",
"yX c #B4AA94",
"uX c #B5AFA1",
"iX c #C5AC81",
"pX c #C8AF84",
"aX c #CBB388",
"sX c #C7B697",
"dX c #C7BBA3",
"fX c #C2BEB2",
"gX c #D8C592",
"hX c #F2CC82",
"jX c #F7D286",
"kX c #F0D08B",
"lX c #CCC8BD",
"zX c #D4CAAE",
"xX c #EBD9AD",
"cX c #F9E4AA",
"vX c #F5E186",
"bX c #D2CEC5",
/* pixels */
"    eXeXwXwXfX                                                                                              ",
"  tX/ l m l b.lXbX                                                                                          ",
"eXO.3X#X<X,Xa.f Q lX                                                                                        ",
"wXV >Xf.f.y.g.(.Q.} fX                                                                                      ",
"  M.` c w.L s.hX8XW.-.uX                                                          M.M.>.&.uX                ",
"      ;.O.c ' ).3X8X_ '.                                                    dX]._.j.V X.k ! <.qX            ",
"        B.^ L J (.8X..=.lX                                              lXdXR.V X.XXH +Xl.V 7 7 eX          ",
"          M.x w.t.!.n < >.               .Q V m.                        ' [  Xi.@.+Xi.XXk.N.{.B $ - qX      ",
"            p t.g.f @ j. X .    [.T T } zXxX0Xf.l /                     o.oX{.+.z.aXoXi.l.N.i.q $ k d 4 &.  ",
"            B.h k @ ' #X<X X| ! y.F.Y.gX0X7XjX0XU.C.]                   o.iX{.c.{.iX/.' |.R.l $ 2 H +.W 7 8 ",
"                  n [ ~.;X>Xu 7.J.P.T.7XF.L.7X7XT.P.C.l.                o.iX2X{.}.2Xu.`  X|./ ; ..C @.} M   ",
"                  ! K g.;X(.u D.L.L.P.P.D.D.D.D.L.P.P.8.j.            OX_. XaX^.c.{.' c.2XXXX.a z.B R f %.  ",
"                    ' r.~.g.3.F.C.C.L.P.P.D.S.h.h.L.L.D.6.u.        tXi.pX XoXl.o.l.] 2XaX X[ G z.V 2 v     ",
"                      ) L c J.0.A A 0.L.P.L.P.L.h.8.0.D.D.6.O.      dX@.aX2X/.+.+.l.' 2XaXN.` ' j.k + <.    ",
"                        e p 8.x K K S 0.0.h.D.P.D.c 8.9.F.G.7.^ T uXtXi.pX/.+.i.c.l.] 2X|.p.[ l.B q % V.    ",
"                        , z 8.x e.g.S x x x 6.h.S.F.S u Z S `   aXc.R ] 2XR.[ p.l.[ c.2X|.u.[ l.V < `.      ",
"                        [.w Z p.>X=XP 0 D p.{ 2.0.S.6.5.c g N.cXjX:X` m {.p.( i.i.+. X Xl.^ G ] k +         ",
"                          0 q oX3Xg.K u.g.Z.g.e.2.2.2.2.S w.,XhX5X6Xa.s u.` G u.p.i.pX/.[ f f ..6 :.        ",
"                          q c OXN.x j W.$XZ.1X).e e e z L r.#X5X<X#Xa.^ D G y ` u.u.iXc.' 1 7 #.4           ",
"                          y 8.L u u y u ).9XjX).p e z I t.w.t.%X;Xg.g.g.w z w B P u.oX+.f * < V ;           ",
"                          u 9.G.C.H.C.h (.9X5X%Xv.z w.g.g.4.z e.#X#X%XQ.z q w B ( ] N._ < : q q -           ",
"                        X.8.J.7. XcX4Xh ~.,X;X=X!.z w.#Xg.4.e u e.y.!.#Xv.y w j j. XW._ < * 1 + -           ",
"                          S 4., %.V.=.s g.#X&X;XQ.1 z O.O.G K a.=X,X=X;X<Xh g j i.2Xp.@.6 o a Q & :.        ",
"                          B.<.1.7 X X : c g.#X(.| $ . m a.g.$X6XjXhX1X<X8Xl G V j.2X` / W T Q } E o         ",
"                                1.X o + F 4.t.` . $ k N.6XhX9X9X9X1X-X=X XB G ` k._.V f } -.} n *.!         ",
"                                >.> % , G.2.9 + . % v.%X-X-X%X%X*X!.~.s.r D H +.| 6 d -.d & T X.3           ",
"                              b.4.U = e J.C.c = . 9 w.r.t.t.t.t.F u p q + < q h / N..Xf # T | : -           ",
"                               .q.I.F.F.S.h.S * ; / j y g u z g s.e.j > ; [.m./.m.d E X.R.-.5 . O           ",
"                              | 7.I.P.P.h.2.K ../ l e = 9 z c F I v.|.R.n.*.W ! v 5 n.M.-.7 5 Q -           ",
"                                ' 0.I.G.h.x s | | O.k.M.n.N.2X^.l.x.m.b.;.$ X b  .} >. .- 5 !  .:.          ",
"                                B.3.J.0.9.e 5 5 * #._.sXrXwXsX].].b 4 E E E v ;.E.} $ 7 E  .~ *.            ",
"                                V.F 9.0.9.e E } 5 7 b b b b n v v 7 ;.pXOXOXm.b & 5 d -.}.*.:.              ",
"                                  ].A 8.9.q @ m m.OXzXsXdXzXrXOXOXOXrX}.v 7 7 ; v m..X7 4 V.                ",
"                                    .Xc u @ n } d b *.! ! ~ E Y Y Y b  .}.}.x.E.b.d b & <.                  ",
"                                      '.'.V.*.T } } b..X]._.wXB.M.n.n.b.*.*.W } } a > o                     ",
"                                            V.5 } | b.wX].'.rX[.n.B.n.-.> > o + f ..q $                     ",
"                                          lX&.# @ @ 2 < : & @ @ + # # 2 N t # 1 _ l.q &                     ",
"                                          &.: f g j ] H N i V B h y i C ] < 1 h ] i.q o                     ",
"                                          &.< _ ).(.V _ C #.xXgX&XP C _ < 2 q B ( ( 6 &                     ",
"                                          *.b.gX8X%Xh ' ^ ..kXjX,Xs.J y 1 q V B B C 5 `.                    ",
"                                          =.^.cXhX$Xj B h ` 1X1X;Xf.F e 0 q G h r q 3                       ",
"                                          -.p.<X6X$XK y 0 h s.%X=Xg.F e 0 r G G y 1 4                       ",
"                                          qX] r.#X$Xr.j , , g ).%Xg.U p q r D P V 1 3                       ",
"                                            '.u y.*Xr.u f k g ).=Xg.w.K 0 r G ) H q 3                       ",
"                                            '.p r.*Xr.u '.  k e.#Xg.w.K q G P u.i.k 3                       ",
"                                            '.p t.t.e.u ].    f w.t.K * % H p.i./ a 4                       ",
"                                            V.* w s s = qX    3 6 y w * & +.u.` h v                         ",
"                                            *.# : : : . %.    3 # > 2 q % ..^ ) T M                         ",
"                                          %.2 H C t N : o     3 2 N N N : _ B +. .Y                         ",
"                                          %.C d.$.N t N :     3 2 N P _ : -.] i.} Y                         "
};
