/* XPM */
static char *d45cb0cd85a44e46b6948ad9ccbc1ee3mQBh8PDyopBBByFt[] = {
/* columns rows colors chars-per-pixel */
"50 50 6 1 ",
"  c #131313",
". c #7A444A",
"X c #5E3643",
"o c #472D3C",
"O c #A05B53",
"+ c white",
/* pixels */
"                                                  ",
"                                                  ",
"                                                  ",
"                                                  ",
"                                                  ",
"                                                  ",
"............................................      ",
"............................................      ",
"............................................      ",
"............................................      ",
"............................................      ",
"............................................      ",
"............................................      ",
"............................................      ",
"............................................      ",
"............................................      ",
"XXXXXXXXXXXXXXXXXXXXXXXXoooooooooo          OOOOOO",
"XXXXXXXXXXXXXXXXXXXXXXXXoooooooooo          OOOOOO",
"XXXXXXXXXXXXXXXXXXXXXXXXoooooooooo          OOOOOO",
"XXXXXXXXXXXXXXXXXXXXXXXXoooooooooo          OOOOOO",
"XXXXXXXXXXXXXXXXXXXXXXXXoooooooooo          OOOOOO",
"XXXXXXXXXXXXXXXXXXXXXXXXoooooooooo          OOOOOO",
"XXXXXXXXXXXXXXXXXXXXXXXXoooooooooo          OOOOOO",
"XXXXXXXXXXXXXXXXXXXXXXXXoooooooooo          OOOOOO",
"XXXXXXXXXXXXXXXXXXXXXXXXoooooooooo          OOOOOO",
"XXXXXXXXXXXXXXXXXXXXXXXXoooooooooo          OOOOOO",
"XXXXXXXXXXXXXXoooooooooo          OOOOOOOOOO......",
"XXXXXXXXXXXXXXoooooooooo          OOOOOOOOOO......",
"XXXXXXXXXXXXXXoooooooooo          OOOOOOOOOO......",
"XXXXXXXXXXXXXXoooooooooo          OOOOOOOOOO......",
"XXXXXXXXXXXXXXoooooooooo          OOOOOOOOOO......",
"XXXXXXXXXXXXXXoooooooooo          OOOOOOOOOO......",
"XXXXXXXXXXXXXXoooooooooo          OOOOOOOOOO......",
"XXXXXXXXXXXXXXoooooooooo          OOOOOOOOOO......",
"XXXXXXXXXXXXXXoooooooooo          OOOOOOOOOO......",
"XXXXXXXXXXXXXXoooooooooo          OOOOOOOOOO......",
"XXXXoooooooooo          OOOOOOOOOO................",
"XXXXoooooooooo          OOOOOOOOOO................",
"XXXXoooooooooo          OOOOOOOOOO................",
"XXXXoooooooooo          OOOOOOOOOO................",
"XXXXoooooooooo          OOOOOOOOOO................",
"XXXXoooooooooo          OOOOOOOOOO................",
"XXXXoooooooooo          OOOOOOOOOO................",
"XXXXoooooooooo          OOOOOOOOOO................",
"XXXXoooooooooo          OOOOOOOOOO................",
"XXXXoooooooooo          OOOOOOOOOO................",
"oooo          XXXXXXXXXXXXXXXXXXXXXXXXXXXXXXXXXXXX",
"oooo          XXXXXXXXXXXXXXXXXXXXXXXXXXXXXXXXXXXX",
"oooo          XXXXXXXXXXXXXXXXXXXXXXXXXXXXXXXXXXXX",
"oooo          XXXXXXXXXXXXXXXXXXXXXXXXXXXXXXXXXXXX"
};
