/* XPM */
static char *result[] = {
/* columns rows colors chars-per-pixel */
"50 50 167 2 ",
"   c #3E2E2E",
".  c #373737",
"X  c #3D3434",
"o  c #373838",
"O  c #3D3C3C",
"+  c #7D1F1F",
"@  c #452C2C",
"#  c #4B2C2C",
"$  c #562727",
"%  c #5D2626",
"&  c #5E2729",
"*  c #552B2B",
"=  c #5B2A2A",
"-  c #542F30",
";  c #443434",
":  c #4C3333",
">  c #483738",
",  c #423C3C",
"<  c #4A3C3C",
"1  c #543332",
"2  c #5C3434",
"3  c #533A3A",
"4  c #5C3C3C",
"5  c #652525",
"6  c #6C2424",
"7  c #632C2C",
"8  c #6A2A2A",
"9  c #742223",
"0  c #7C2222",
"q  c #762929",
"w  c #7A2D2D",
"e  c #633333",
"r  c #6C3434",
"t  c #793737",
"y  c #3F3F40",
"u  c #673E41",
"i  c #444344",
"p  c #4A4444",
"a  c #474949",
"s  c #4C4C4C",
"d  c #534343",
"f  c #5B4545",
"g  c #534C4C",
"h  c #5A4B4B",
"j  c #4C5151",
"k  c #535353",
"l  c #5A5656",
"z  c #565858",
"x  c #5C5C5C",
"c  c #644545",
"v  c #6F4041",
"b  c #624E4E",
"n  c #684B4B",
"m  c #724A4B",
"M  c #635454",
"N  c #615C5C",
"B  c #725A5A",
"V  c #5F6262",
"C  c #646464",
"Z  c #6B6666",
"A  c #676868",
"S  c #6C6C6C",
"D  c #776666",
"F  c #6D7070",
"G  c #737474",
"H  c #767A7A",
"J  c #7C7C7C",
"K  c #851D1D",
"L  c #8C1C1C",
"P  c #941717",
"I  c #9D1516",
"U  c #971718",
"Y  c #9A1719",
"T  c #931A1A",
"R  c #9A1918",
"E  c #BE0F0F",
"W  c #BF140F",
"Q  c #B70F11",
"!  c #BB0F10",
"~  c #A41515",
"^  c #AC1413",
"/  c #A41A17",
"(  c #A41918",
")  c #B41312",
"_  c #BA1211",
"`  c #B21A13",
"'  c #B81A11",
"]  c #92231F",
"[  c #841E20",
"{  c #852323",
"}  c #8F2123",
"|  c #972425",
" . c #C50C0D",
".. c #CA0C0C",
"X. c #DF0C07",
"o. c #D30A0A",
"O. c #DB0908",
"+. c #DB0606",
"@. c #C6140D",
"#. c #CB110C",
"$. c #C01B0E",
"%. c #DB1006",
"&. c #DE1807",
"*. c #D4160A",
"=. c #DC1408",
"-. c #EB0504",
";. c #E30806",
":. c #EE0E03",
">. c #F40402",
",. c #FB0500",
"<. c #F40C03",
"1. c #FB0C01",
"2. c #E31107",
"3. c #EC1804",
"4. c #FE1C00",
"5. c #F51E03",
"6. c #DF2206",
"7. c #DF2F06",
"8. c #D72409",
"9. c #DD2208",
"0. c #EB2504",
"q. c #E22806",
"w. c #E82F05",
"e. c #E22502",
"r. c #F42102",
"t. c #F62F02",
"y. c #FC2B00",
"u. c #E43107",
"i. c #FF3300",
"p. c #FF3B00",
"a. c #F23103",
"s. c #F74302",
"d. c #FD4400",
"f. c #F34803",
"g. c #FE4B00",
"h. c #F55203",
"j. c #FF5800",
"k. c #FC6101",
"l. c #FF7500",
"z. c #FE7B00",
"x. c #854042",
"c. c #804C4E",
"v. c #FD8301",
"b. c #FF8C00",
"n. c #FC9301",
"m. c #FF9E00",
"M. c #FFA300",
"N. c #FFAF00",
"B. c #FFB500",
"V. c #FFBE00",
"C. c #FEC500",
"Z. c #FFD600",
"A. c #FFEE00",
"S. c #7D8282",
"D. c #848484",
"F. c #868888",
"G. c #8C8C8C",
"H. c #8E9090",
"J. c #939393",
"K. c #9C9C9C",
"L. c #99A0A0",
"P. c #A3A3A3",
"I. c #ABABAB",
"U. c #B3B3B3",
"Y. c #BBBBBB",
"T. c #C5C5C5",
"R. c None",
/* pixels */
"R.R.R.R.R.R.R.R.R.R.R.R.R.R.R.R.R.R.R.R.R.R.R.R.R.R.R.R.R.R.R.R.R.R.R.R.R.R.R.R.R.R.R.R.R.R.R.R.R.R.",
"R.R.R.R.R.R.R.R.R.R.R.R.R.R.R.R.R.R.R.R.R.R.R.R.R.R.R.R.R.R.R.R.R.R.R.R.R.R.R.R.R.R.R.R.R.R.R.R.R.R.",
"R.R.R.R.R.R.R.R.R.R.R.R.R.R.R.R.R.R.R.R.R.R.R.R.R.R.R.R.R.R.R.R.R.R.R.R.R.R.R.R.R.R.R.R.R.R.R.R.R.R.",
"R.R.R.R.R.R.R.R.R.R.R.R.R.R.R.R.R.R.R.R.R.R.R.R.R.R.R.R.R.R.R.R.R.R.R.R.R.R.R.R.R.R.R.R.R.R.R.R.R.R.",
"R.R.R.R.R.R.R.R.R.R.R.R.R.R.R.R.R.R.R.R.R.R.R.R.R.R.R.R.R.R.R.R.R.R.R.R.R.R.R.R.R.R.R.R.R.R.R.R.R.R.",
"R.R.R.R.R.R.R.R.R.R.R.R.R.R.R.R.R.R.R.R.R.R.R.R.R.R.R.R.R.R.R.R.R.R.R.R.R.R.R.R.R.R.R.R.R.R.R.R.R.R.",
"R.R.R.R.R.R.R.R.R.R.R.R.R.R.R.R.R.R.R.R.P.D.F F.Y.R.R.R.R.R.R.R.R.R.R.R.R.R.R.R.R.R.R.R.R.R.R.R.R.R.",
"R.R.R.R.R.R.R.R.R.R.R.R.R.R.R.R.R.R.T.U.F.x l S J.I.I.Y.R.R.R.R.R.R.R.R.R.R.R.R.R.R.R.R.R.R.R.R.R.R.",
"R.R.R.R.R.R.R.R.R.R.R.R.R.R.R.R.T.I.L.L.A s s x F.J.J.H.F.L.R.R.R.R.R.R.R.R.R.R.R.R.R.R.R.R.R.R.R.R.",
"R.R.R.R.R.R.R.R.R.R.R.R.R.R.R.I.L.I.K.S.C i s J P.F.S.H F F.L.R.R.R.R.R.R.R.R.R.R.R.R.R.R.R.R.R.R.R.",
"R.R.R.R.R.R.R.R.Y.U.Y.I.P.J.D.H S.P.U.L.J x l F.J.F.F S.G G J K.Y.R.R.R.R.R.R.R.R.R.R.R.R.R.R.R.R.R.",
"R.R.R.R.R.R.R.P.J.K.P.F.G.G k O s H S.c.D.S C F J G.F.c.G.G k F J.P.R.R.R.R.R.R.R.R.R.R.R.R.R.R.R.R.",
"R.R.R.R.R.R.P.G.G.G.F.F.J F s # % - < k J J J A k k N D.J C y s G G.I.R.R.R.R.R.R.R.R.R.R.R.R.R.R.R.",
"R.R.R.R.R.U.F.J J.I.I.J.F.G d 6 K 9 # s F.K.G.C X @ ; k g k ; , J J.J.I.R.R.R.R.R.R.R.R.R.R.R.R.R.R.",
"R.R.R.R.R.U.D.G J P.K.D.K.l * 9 + 7 < C P.I.K.C # 6 $ @ 6 q 5 @ l G H F.I.R.R.R.R.R.R.R.R.R.R.R.R.R.",
"R.R.R.R.R.K.D.J A l k x G l 3 * # y g g H J.J.A @ * 7 9 I / 9 d x S C C G R.R.R.R.R.R.R.R.R.R.R.R.R.",
"R.R.R.R.R.F.G H A l k A J J.J O i f 5 5 3 S D.J C i ; 6 `  .w D.P.J k k F.R.R.R.R.R.R.R.R.R.R.R.R.R.",
"R.R.R.R.H.C s s S H.H.J.F.A v 9 1 L _ L & X s F.F.c e 6 )  .7 z J S s k I.R.R.R.R.R.R.R.R.R.R.R.R.R.",
"R.R.R.P.A g i O l G.J.A d 0 #.2.~ ' :.^ [ $ O V c I ! I T ~ 5 X i a j J R.R.R.R.R.R.R.R.R.R.R.R.R.R.",
"R.R.P.F.S F C s C S l ; K =.p.d.t.d.a.;.:.( M j 5 o.-.! + 6 4 z ,   s J.R.R.R.R.R.R.R.R.R.R.R.R.R.R.",
"R.R.K.G x A C C D.J.J l 9 *.y.p.p.l.j.t.4.) e - @ ) -.^ 4 > x C # % d G.R.R.R.R.R.R.R.R.R.R.R.R.R.R.",
"R.R.J.l j a k F J.K.K.G , L ! ( ` p.j.0.@.T P 0 # 7 I 9 p C G.V @ 6 * l J.R.R.R.R.R.R.R.R.R.R.R.R.R.",
"R.R.H k z V z S.H.c.F.F k p g i & #.4.@.~ L L 6 1 a > k C G.K.D., # ; s F.R.R.R.R.R.R.R.R.R.R.R.R.R.",
"R.R.J k j V j z F G J.K.G.C d * > ] d.k.t.` 9 Q _ 0 6 h S J.P.P.D.l k A F.Y.R.R.R.R.R.R.R.R.R.R.R.R.",
"R.R.G.x i O O i G J.F.D.J 4 5 6 U 9.M.Z.M.h.` 5.y.O.U * a A G.J.F.V Z G.K.U.R.R.R.R.R.R.R.R.R.R.R.R.",
"R.R.K.G i i i z K.J.l a 2 L 0 * I 8.B.A.C.z.d.i.4...T 1 k z x x k O N F.G.K.U.R.R.R.R.R.R.R.R.R.R.R.",
"R.R.R.G.S A S G H.x X 3 0 ^ I 5 L 3.M.Z.n.u.y.&.Q O. .0 g a 2 0 T 5 p V G G.K.R.R.R.R.R.R.R.R.R.R.R.",
"R.R.R.R.K.J.G.J A s * Y  .K 6 1 7 $.l.V.v.' ! L 2 T ) I ( R  .O.O.Y # k F.H.J.U.R.R.R.R.R.R.R.R.R.R.",
"R.R.R.R.I.J k s j g [ X.1.^ # k H u 7.b.b.u.U B H p ~ 9.g.y.;.^ Y 6 l S F.J.K.U.R.R.R.R.R.R.R.R.R.R.",
"R.R.R.R.K.x # % p e ! ,.1...6 @ r ( ;.f.b.d.^ D K.c.e.b.m.p.^ ; i ; k C J K.J.J.R.R.R.R.R.R.R.R.R.R.",
"R.R.R.R.G ; 5 + # ; ^ -.! U f d ~ >.,.d.b.f.^ c F } i.b.v.0.K 7 3 y s S P.P.K.I.R.R.R.R.R.R.R.R.R.R.",
"R.R.R.U.S ; % % ; , ^ >...+ l S.t o.O.u.n.v.q.P ] ~ =.0.y.2.~ K $ < G K.U.I.U.U.R.R.R.R.R.R.R.R.R.R.",
"R.R.R.I.D.g < ; , < ^ >.1.^ q n 3 L ~ W v.B.h.2...L m x.) >.o.+ # s J.U.U.Y.U.U.R.R.R.R.R.R.R.R.R.R.",
"R.R.R.R.I.F.S.s X = K O.1.1.+.U % 3 T 5.v.m.f.o.I 2 S.S.| >.-.q i s H P.R.R.R.R.R.R.R.R.R.R.R.R.R.R.",
"R.R.R.R.Y.P.F.k X , : ) -.o...{ < y L 3.p.p.*.{ * O f t ) 1.<.~ d s F P.R.R.R.R.R.R.R.R.R.R.R.R.R.R.",
"R.R.R.R.R.I.F.k s a : P _ U K # o < 1 t { ~ U 3 y * K T _ 1.,...% x F.R.R.R.R.R.R.R.R.R.R.R.R.R.R.R.",
"R.R.R.R.R.U.J.C z i > 1 0 L 0 X * 5 x S.H M = : ; # 2 * 9 O.,...5 S.U.R.R.R.R.R.R.R.R.R.R.R.R.R.R.R.",
"R.R.R.R.R.I.G.S C x z a ; & 9 9 [ L b H J z 5 * s s C s 5 ^ .. .5 H U.R.R.R.R.R.R.R.R.R.R.R.R.R.R.R.",
"R.R.R.R.R.R.K.J.P.J s . @ ; > 8 L K 7 d h = K 6 i x H F l 5 U ~ * S.U.R.R.R.R.R.R.R.R.R.R.R.R.R.R.R.",
"R.R.R.R.R.R.R.R.U.J.C j p . ; : 6 7 * # % + U 9 > p < s s O * { = C I.R.R.R.R.R.R.R.R.R.R.R.R.R.R.R.",
"R.R.R.R.R.R.R.R.R.R.P.J A ,   @ ; l x i > 5 6 % * % $ # ; O : 6 # C I.R.R.R.R.R.R.R.R.R.R.R.R.R.R.R.",
"R.R.R.R.R.R.R.R.R.R.R.P.J C k g l J K.G.j ; h l f * % : k s X   ; G R.R.R.R.R.R.R.R.R.R.R.R.R.R.R.R.",
"R.R.R.R.R.R.R.R.R.R.R.R.P.K.P.P.J.P.I.J.s O V J.F.p @ X C G i X s J.R.R.R.R.R.R.R.R.R.R.R.R.R.R.R.R.",
"R.R.R.R.R.R.R.R.R.R.R.R.R.R.R.R.R.U.I.D.k s l J F.s X i C G.C k A R.R.R.R.R.R.R.R.R.R.R.R.R.R.R.R.R.",
"R.R.R.R.R.R.R.R.R.R.R.R.R.R.R.R.R.R.I.J.J S G J.H.x k x J G.F.J J.R.R.R.R.R.R.R.R.R.R.R.R.R.R.R.R.R.",
"R.R.R.R.R.R.R.R.R.R.R.R.R.R.R.R.R.R.R.R.U.I.P.R.R.J.J F.P.I.P.R.R.R.R.R.R.R.R.R.R.R.R.R.R.R.R.R.R.R.",
"R.R.R.R.R.R.R.R.R.R.R.R.R.R.R.R.R.R.R.R.R.R.R.R.R.R.R.R.R.R.R.R.R.R.R.R.R.R.R.R.R.R.R.R.R.R.R.R.R.R.",
"R.R.R.R.R.R.R.R.R.R.R.R.R.R.R.R.R.R.R.R.R.R.R.R.R.R.R.R.R.R.R.R.R.R.R.R.R.R.R.R.R.R.R.R.R.R.R.R.R.R.",
"R.R.R.R.R.R.R.R.R.R.R.R.R.R.R.R.R.R.R.R.R.R.R.R.R.R.R.R.R.R.R.R.R.R.R.R.R.R.R.R.R.R.R.R.R.R.R.R.R.R.",
"R.R.R.R.R.R.R.R.R.R.R.R.R.R.R.R.R.R.R.R.R.R.R.R.R.R.R.R.R.R.R.R.R.R.R.R.R.R.R.R.R.R.R.R.R.R.R.R.R.R."
};
