/* XPM */
static char *result[] = {
/* columns rows colors chars-per-pixel */
"50 50 180 2 ",
"   c #392E2E",
".  c #363535",
"X  c #3C3434",
"o  c #3D3B3B",
"O  c #373B3B",
"+  c #7D1F1F",
"@  c #771E21",
"#  c #7C1F20",
"$  c #452E2E",
"%  c #4C2C2C",
"&  c #5C2626",
"*  c #5C2629",
"=  c #542A2A",
"-  c #5B2929",
";  c #572529",
":  c #442F30",
">  c #433333",
",  c #4D3333",
"<  c #433C3C",
"1  c #493B3B",
"2  c #533131",
"3  c #642626",
"4  c #6C2424",
"5  c #632A2A",
"6  c #742222",
"7  c #7A2121",
"8  c #633030",
"9  c #713434",
"0  c #3F4040",
"q  c #444343",
"w  c #4A4545",
"e  c #474949",
"r  c #4C4B4B",
"t  c #514545",
"y  c #5C4747",
"u  c #504D4D",
"i  c #4F5050",
"p  c #535454",
"a  c #565959",
"s  c #5B5B5B",
"d  c #5A5454",
"f  c #605F5F",
"g  c #635555",
"h  c #5F6060",
"j  c #646565",
"k  c #6B6C6C",
"l  c #696767",
"z  c #6F7171",
"x  c #737373",
"c  c #7B7C7C",
"v  c #8F151B",
"b  c #831E1E",
"n  c #8C1C1C",
"m  c #8C1817",
"M  c #9E1617",
"N  c #96161A",
"B  c #9B1618",
"V  c #931A1A",
"C  c #9A1818",
"Z  c #BE0F0F",
"A  c #BD100F",
"S  c #B30F13",
"D  c #BA0E10",
"F  c #A31616",
"G  c #AC1414",
"H  c #A51915",
"J  c #B41212",
"K  c #BA1110",
"L  c #992019",
"P  c #A62216",
"I  c #B52412",
"U  c #822121",
"Y  c #C30D0E",
"T  c #CB0C0C",
"R  c #D3060A",
"E  c #DC0708",
"W  c #D30B0A",
"Q  c #DA0A08",
"!  c #DF0807",
"~  c #CC120C",
"^  c #C6190E",
"/  c #CD1B0C",
"(  c #C3110E",
")  c #DF1607",
"_  c #D3130A",
"`  c #DB1409",
"'  c #D71D0A",
"]  c #DA1C09",
"[  c #E30706",
"{  c #EA0404",
"}  c #E30A06",
"|  c #EC0B04",
" . c #F20403",
".. c #FB0601",
"X. c #F30C02",
"o. c #FB0B01",
"O. c #E31206",
"+. c #ED1404",
"@. c #E41B06",
"#. c #EA1B05",
"$. c #F31502",
"%. c #FC1300",
"&. c #F31C02",
"*. c #FD1D00",
"=. c #CB200C",
"-. c #D92809",
";. c #E62106",
":. c #ED2304",
">. c #E22D07",
",. c #EC2A04",
"<. c #F42302",
"1. c #FD2300",
"2. c #F22D03",
"3. c #FE2C00",
"4. c #EC3404",
"5. c #E33B06",
"6. c #ED3C03",
"7. c #F43303",
"8. c #FC3301",
"9. c #F53C02",
"0. c #FD3C00",
"q. c #EF4D03",
"w. c #F44302",
"e. c #FD4200",
"r. c #F54C02",
"t. c #FD4B00",
"y. c #EC5605",
"u. c #FD5400",
"i. c #FE5C00",
"p. c #FE6300",
"a. c #F56D02",
"s. c #FE6C00",
"d. c #FE7200",
"f. c #FD7C00",
"g. c #F67201",
"h. c #866C6C",
"j. c #877777",
"k. c #A16B6B",
"l. c #FE8300",
"z. c #F58B02",
"x. c #FF8B00",
"c. c #FE9300",
"v. c #FF9C00",
"b. c #FEA300",
"n. c #FEAC00",
"m. c #FFB300",
"M. c #FFBB01",
"N. c #FFC304",
"B. c #FFCD02",
"V. c #FFCD0A",
"C. c #FFD800",
"Z. c #FED407",
"A. c #FFE404",
"S. c #FFEC03",
"D. c #FEE30A",
"F. c #FFEA0E",
"G. c #FFF30A",
"H. c #FFFC0E",
"J. c #FEF601",
"K. c #FFE21A",
"L. c #FFFB13",
"P. c #FFF71A",
"I. c #FFFF19",
"U. c #FFF210",
"Y. c #FEFF22",
"T. c #FFFF36",
"R. c #FFFF3E",
"E. c #FFF740",
"W. c #FFFF4A",
"Q. c #7D8080",
"!. c #838383",
"~. c #8D8D8D",
"^. c #8F9090",
"/. c #949494",
"(. c #9C9C9C",
"). c #A4A4A4",
"_. c #A7A8A8",
"`. c #ACACAC",
"'. c #B4B4B4",
"]. c None",
/* pixels */
"].].].].].].].].].].].].].].].].].].].].].].].].].].].].].].].].].].].].].].].].].].].].].].].].].].",
"].].].].].].].].].].].].].].].].].].].].].].].].].].].].].].].]./.].].].].].].].].].].].].].].].].].",
"].].].].].].].].].].].].].].].].].].].].].].].].]._.~._.].].].].~.].].].].].].].].].].].].].].].].].",
"].].].].].].].].].].].].].].].].].].].].].].].(.!.s e u j.].].!.c '.].].].].].].].].].].].].].].].].",
"].].].].].].].].].].].].].].].].].].].].).`.c a q 2 4 & r k j s a j ).].].].].].].].].].].].].].].].",
"].].].].].].].].].].].].].].].].].].(.z h k w , 4 C D G 3 , > . o > t ].].].].].].].].].].].].].].].",
"].].].].].].].].].].].].^.z x !.(._.s > > < > 4 G ! | T M + 3 > > 4 = k _.].].].].].].].].].].].].].",
"].].].].].].].].].].]./.j q o r s h 1 & 4 4 3 V W o.O.N 6 = 6 6 7 V 4 q j /.].].].].].].].].].].].].",
"].].].].].].].]./.(.~.p q $ $ o w r - @ 4 U n B T o.G - 6 6 C G T Y V % < a z /.`.].].].].].].].].].",
"].].].].].].].).k r q o % = = - & 6 V n - % % 4 F Q V 6 n n H J Q Q F 5 % > o r x /.`.].].].].].].].",
"].].].].].].~.k q $ - 3 4 = 6 7 n J T T C n 7 6 n G G V 7 6 V n V T K b + 3   o p x (.].].].].].].].",
"].].].].].].x a > 3 b b 4 3 6 C N C [ %.#.| T b 6 + n F J J V b n T [ J C + = o > p ~.].].].].].].].",
"].].].].].].k i q 3 V b - % 4 V U N +.8.e.*.T 4 = 3 7 K %.X.Z Y S Q X.V + V # 3 = < c ].].].].].].].",
"].].].].].(.k o X 4 V V 6 6 N 6 n Q %.0.3._ N 3 > > - D 3.1.Q } +.%.o.T G J J F 4 1 /.].].].].].].].",
"].].].].].).p . $ 7 U N K W Q F N G W +.H M Y F 6 & 3 J +.X.! 1.e.1.W G V Z Q T 7 w ].].].].].].].].",
"].].].].].).< > 5 B F F ( Y M 7 7 4 n G F #.1.{ M + 6 = # M J 9.p.:.n 3 = K o.[ m y ].].].].].].].].",
"].].].].].j % V J W Q G 6 = $ = b ^ @.( _ s.u.W T E N : V ^ / u.s.;.F V V } | W N k.].].].].].].].].",
"].].].].~.e = G Q [ { T n 2 6 G ^ i.l.r.5.b.c.r.:.[ N F ,.i.t.0.t.<.Y D Q Y n 8 h.].].].].].].].].].",
"].].].].l 1 + D D C Y J n b F } t.n.C.M.m.B.f.c.p./ M T 0.v.s.` O.) C ( | Y & e x l j.].].].].].].].",
"].].].).i * G Q Y N H 4 > 4 6 ~ w.v.b.b.B.S.M.b.p.<.$.Q ' l.s.K D G V } 3.O.6 > 0 > % j ).].].].].].",
"].].]._.r 6 T [ Q Y B % . $ 6 G _ ,.-.) s.B.c.r.1.3.3.| T 2.2.T F 6 V } e.3.K 6 X $ = . a k x ].].].",
"].].]._.s & Z Y G J B 6 6 6 6 b V n J R =.f.g.+.o.*.$.! N D M b 3 = - U ] $.T n > > % X r k /.].].].",
"].].]./.i , M Y K Y W ( B 5 : : = H X.T F z.D.M.a.:.r.l.q.7.+.K n % O O # N + - < % $ o d /.].].].].",
"].].].c q : N T ! [ } J 4 3 b 7 H X.%.8.u.C.T.R.U.b.M.S.v.e.&.Q Y 6 = - F G = > $ % % $ 1 x ].].].].",
"].].]./.a < U Y T Q Y 6 > U J Y 8.t.<.1.t.V.W.E.F.J.A.m.l.0.@.N F Y J / $.Z b 7 - = > - , s ).].].].",
"].].].].k w - b V n # # 7 K T ' t.p.7.[ 0.V.T.K.x.n.c.7.i.d.0.K C Q 4.p.7.T J U 6 % $ & % p !.].].].",
"].].].].z o X   = 4 # F J T 8.s.t.$.O.G / z.L.P.d.7.4.J ] 9.8.w.y.u.p.f.t.[ F 4 6 3 4 4 $ i c ].].].",
"].].].].j r q X 3 K | } F _ i.n.l.#.Y @ N >.M.I.Z.p.] N V -.x.B.N.p.,.;.$.F n b 4 4 7 - . s /.].].].",
"].].].(.d q q % n } *.#.V O.s.b.d.@.R _ 4.u.d.G.D.p.) @ @ a.H.Y.B.5.R F Y J N 7 3 4 4 $ o j ].].].].",
"].].]./.w > o = D o.3.3.K W p.i.1.J b ` i.x.c.G.D.s.] b J l.G.L.n.] | W [ Q n - = 6 - . . p ].].].].",
"].].].^.5 G b + Y { %.O.F #.l.c.e.K * M e.i.q.D.I.N.8.3.3.w.a.v.z.:.*.%.[ b = 3 4 4 % o   < /.].].].",
"].].]./.2 M G 7 U G Y Q ( &.d.b.f.9.>.Q $.O.w.Z.Y.F.x.d.8.N @ I p.d.<.Q ( 4 3 = = % < o $ d ].].].].",
"].].].c < 3 6 = = 3 b ! ..X.4.x.n.b.s.$.Y ( d.A.H.B.i.7._ 6 * L g.b.9.G S G + % X X e w < f ].].].].",
"].].].x q > $ > = 4 M Y T Z O.u.s.i.7.J T | w.x.b.d.O.S J ~ ' w.v.M.s.` Y Z 4 $ < q a j j ^.].].].].",
"].].].).k e o o X 3 C F N Y ..1.8.3._ Q  .J F P I &._ M | 1.3.9.f.m.l.1.G B V & > p x ~.~.].].].].].",
"].].].]./.j i q X = n G J K J W &.e.@.! 1.J 6 # 4 D { T } ) ~ Q w.x.f.3.B + C 4 < x (.].].].].].].].",
"].].].].].(.k r X - b N V V V ( | %.| &.e._ 4 - n O.| B F 7 V J :.u.i.1.J 6 + w c ].].].].].].].].].",
"].].].].].].k s r > 3 & 6 G W  . .Z D &.0.X.W G @.e.1.Y J n b 3 Y &.0.3.N - % j ].].].].].].].].].].",
"].].].].].].~.k r X X > & 7 F J Y W ! %.W Y | { *.0.*.Q T [ Q ( T T 3.*.K - X y (.].].].].].].].].].",
"].].].].].].].(.k q o e 0 < - 6 F ! o.o.K 6 C J W X.Q Q  .o...{ E | 1.o.G = % 4 9 ].].].].].].].].].",
"].].].].].].].].].x j f s s q * b N H Y B % % n [ W b n W o.X.J J X.%.} C % * 4 b U ].].].].].].].].",
"].].].].].].].].].].]./.!.c h , & > % 4 3 = 3 G [ [ G U G ..[ G U F Q K 4 $ $ = 6 & g ].].].].].].].",
"].].].].].].].].].].].].].].!.r > > < > . 3 B J T T K n K { W M 3 & G C %   o X % > a ].].].].].].].",
"].].].].].].].].].].].].].].].!.s q r . = N V 4 6 n b 3 K  .Y 6 = % V V & % > q q p j ).].].].].].].",
"].].].].].].].].].].].].].].].]./.p o = b J N % o = - : V Y F 2 O o 4 @ * %   o a c !./.].].].].].].",
"].].].].].].].].].].].].].].].].].].e % b B V 3 : . . q , 4 - . . X > X q p j a k (.].].].].].].].].",
"].].].].].].].].].].].].].].].].].].z e 2 4 - % > o a x Q.c i < o q a z /.).].].].].].].].].].].].].",
"].].].].].].].].].].].].].].].].].].].l i e i d q r !.].].].~.s f k /.].].].].].].].].].].].].].].].",
"].].].].].].].].].].].].].].].].].].]./.k x Q.].c s (.].].].].]./.(.].].].].].].].].].].].].].].].].",
"].].].].].].].].].].].].].].].].].].].]./.].].].].x ].].].].].].].].].].].].].].].].].].].].].].].]."
};
