/* XPM */
static char *_aa3f611f4084f54a1223aa3c04f7bf4eSFx0iINyCUFSFkA[] = {
/* columns rows colors chars-per-pixel */
"50 50 95 2 ",
"   c None",
".  c #3C3939",
"X  c #3F3F3F",
"o  c #731E1E",
"O  c #761C1C",
"+  c #482A2A",
"@  c #502727",
"#  c #552424",
"$  c #5F2020",
"%  c #5A2828",
"&  c #533737",
"*  c #573C3C",
"=  c #5B3B3B",
"-  c #642020",
";  c #6D2121",
":  c #6F2828",
">  c #683232",
",  c #693838",
"<  c #6E3939",
"1  c #723131",
"2  c #474545",
"3  c #494141",
"4  c #4B4B4B",
"5  c #4E4E4E",
"6  c #534F4F",
"7  c #554C4C",
"8  c #505050",
"9  c #535353",
"0  c #535454",
"q  c #555555",
"w  c gray34",
"e  c #595656",
"r  c #5A5757",
"t  c #644242",
"y  c #6A4141",
"u  c #694C4C",
"i  c #7C5959",
"p  c #606060",
"a  c #646464",
"s  c #6C6C6C",
"d  c #6E6C6C",
"f  c #6F6F6F",
"g  c #736060",
"h  c #767676",
"j  c #787575",
"k  c #7A7474",
"l  c #7C7474",
"z  c gray47",
"x  c #7B7B7B",
"c  c gray50",
"v  c #9D1313",
"b  c #9F1414",
"n  c #BD0D0D",
"m  c #A01010",
"M  c #A31212",
"N  c #A71111",
"B  c #972121",
"V  c #8D3131",
"C  c #C40909",
"Z  c #D60707",
"A  c #DF0707",
"S  c #E90504",
"D  c #884A4A",
"F  c #808080",
"G  c #838383",
"H  c #868282",
"J  c gray53",
"K  c #888888",
"L  c #898989",
"P  c #898C8C",
"I  c gray55",
"U  c #909292",
"Y  c #939393",
"T  c #959595",
"R  c #949696",
"E  c #959696",
"W  c gray59",
"Q  c #979797",
"!  c gray60",
"~  c gray61",
"^  c #9D9D9D",
"/  c #A5A5A5",
"(  c gray65",
")  c #A6A7A7",
"_  c gray67",
"`  c #B9B9B9",
"'  c #BBBBBB",
"]  c gray74",
"[  c #C0C0C0",
"{  c #C5C5C5",
"}  c #C8C8C8",
"|  c #D0D1D1",
" . c gray88",
".. c #EEEEEE",
"X. c #F3F3F3",
/* pixels */
"                                                                                                    ",
"                                                                                                    ",
"                                                                                                    ",
"                                                                                                    ",
"                                                                                                    ",
"                                                                                                    ",
"                                                                                                    ",
"                                                                                                    ",
"                                                                                                    ",
"                                                                                                    ",
"                                                                                                    ",
"                                                                                                    ",
"                                                                                                    ",
"                                                                                                    ",
"                                    J x ! T                                                         ",
"                                    x q 4 q G                                                       ",
"                                      ^ f 9 0 T                                                     ",
"                                          r 3 T                                                     ",
"                                          g ; y H                                                   ",
"                                          i M M - l                                                 ",
"                                          D C A b = U '                                             ",
"                                          < n S B r L `                                             ",
"                                          u N Z V ) |  .                                            ",
"                                            : v 1 ] X.....  { ^ F /                                 ",
"                                            k > % !       } f 4 w P                                 ",
"                                            P * $ k       [ p X 0 `                                 ",
"                                              , O &         h 4 f                                   ",
"                                              t o # f         I D )                                 ",
"                                              7 @ + 9           ) T                                 ",
"                                              a . 2               T                                 ",
"                                                W                                                   ",
"                                                                                                    ",
"                                                                                                    ",
"                                                                                                    ",
"                                                                                                    ",
"                                                                                                    ",
"                                                                                                    ",
"                                                                                                    ",
"                                                                                                    ",
"                                                                                                    ",
"                                                                                                    ",
"                                                                                                    ",
"                                                                                                    ",
"                                                                                                    ",
"                                                                                                    ",
"                                                                                                    ",
"                                                                                                    ",
"                                                                                                    ",
"                                                                                                    ",
"                                                                                                    "
};
