/* XPM */
static char *_28e9d44b02c4d1b88f3627f9b3f93b3wh0UgcpdD9CVOq4I[] = {
/* columns rows colors chars-per-pixel */
"50 50 122 2 ",
"   c None",
".  c #3B2F2F",
"X  c #373535",
"o  c #383232",
"O  c #3A3A3A",
"+  c #3D3939",
"@  c #3F3838",
"#  c #3C3B3B",
"$  c #3D3C3C",
"%  c #3F3F3F",
"&  c #711E1E",
"*  c #7C1B1B",
"=  c #7F1A1A",
"-  c #781C1C",
";  c #781F1F",
":  c #402E2E",
">  c #5B2323",
",  c #4D3333",
"<  c #583333",
"1  c #5F3E3E",
"2  c #6A2222",
"3  c #6E2222",
"4  c #782929",
"5  c #693333",
"6  c #653D3D",
"7  c #424040",
"8  c #454444",
"9  c #484545",
"0  c gray31",
"q  c #5A4343",
"w  c #535353",
"e  c #565656",
"r  c gray37",
"t  c #5E5F5F",
"y  c #794747",
"u  c #724949",
"i  c #704D4D",
"p  c #605858",
"a  c #605B5B",
"s  c #6B5858",
"d  c #715959",
"f  c #725B5B",
"g  c gray40",
"h  c #676666",
"j  c #6B6565",
"k  c DimGray",
"l  c #6C6C6C",
"z  c gray43",
"x  c #6F6F6F",
"c  c #796363",
"v  c #706D6D",
"b  c #727272",
"n  c #747474",
"m  c #7E7575",
"M  c #797979",
"N  c gray49",
"B  c #8B1717",
"V  c #801C1C",
"C  c #881919",
"Z  c #971414",
"A  c #961515",
"S  c #9D1313",
"D  c #AD0E0E",
"F  c #B60B0B",
"G  c #B10C0C",
"H  c #B41111",
"J  c #C40C0C",
"K  c #C60C0C",
"L  c #D40A0A",
"P  c #E20606",
"I  c #F30302",
"U  c #F60201",
"Y  c #857D7D",
"T  c #8A7C7C",
"R  c #8F7E7E",
"E  c #917A7A",
"W  c #808080",
"Q  c #818080",
"!  c #828585",
"~  c #848585",
"^  c #868686",
"/  c #868787",
"(  c #888888",
")  c #898989",
"_  c gray54",
"`  c #8B8B8B",
"'  c gray55",
"]  c #8D8D8D",
"[  c #9C8E8E",
"{  c #909090",
"}  c gray57",
"|  c #949696",
" . c gray59",
".. c #9B9494",
"X. c gray60",
"o. c gray61",
"O. c #9D9D9D",
"+. c gray62",
"@. c #9F9F9F",
"#. c #A4A4A4",
"$. c gray65",
"%. c #A6A8A8",
"&. c gray66",
"*. c #AAAAAA",
"=. c #ACACAC",
"-. c gray68",
";. c #AEAEAE",
":. c #AFAFAF",
">. c #B1B0B0",
",. c gray71",
"<. c gray73",
"1. c gray74",
"2. c gray75",
"3. c #C0C0C0",
"4. c #C8C8C8",
"5. c #CDCDCD",
"6. c #D7D7D7",
"7. c gray86",
"8. c gray88",
"9. c #EEEEEE",
"0. c #F6F6F6",
"q. c gray97",
/* pixels */
"                                                                                                    ",
"                                                                                                    ",
"                                                                                                    ",
"                                                                                                    ",
"                                                                                                    ",
"                                                                                                    ",
"                                                                                                    ",
"                                                                                                    ",
"                                                                                                    ",
"                                                                                                    ",
"                                                                                                    ",
"                                                                                                    ",
"                                                                                                    ",
"                                                                                                    ",
"                                      ;.                                                            ",
"                                    ^ g N ' )                                                       ",
"                                    M 0 O O w `                                                     ",
"                                    $.X.x , O t *.                                                  ",
"                                        6.g : a %.                                                  ",
"                                          ..& 4 s ,.                                                ",
"                                          [ Z J Z 6   ;.                                            ",
"                                          E F I L - a / *.                                          ",
"                                          f G U J < e {                                             ",
"                                          m B P H R                                                 ",
"                                <.          y D S T             k n                                 ",
"                              #.$.5.  0.    Q 5 * s         ) 8 $ t                                 ",
"                              +.,.8.9.q.  2.! q - u         l @ o l                                 ",
"                               .4.        1. .i C 3 Y       ^ 9 7 Q                                 ",
"                              +.:.7.          c * * 6         ^ b M                                 ",
"                              *.+.3.          j > 2 , '         *.N +.                              ",
"                                ;.            l @ o v             ) )                               ",
"                                                                  #.{                               ",
"                                                                    ;.                              ",
"                                                                                                    ",
"                                                                                                    ",
"                                                                                                    ",
"                                                                                                    ",
"                                                                                                    ",
"                                                                                                    ",
"                                                                                                    ",
"                                                                                                    ",
"                                                                                                    ",
"                                                                                                    ",
"                                                                                                    ",
"                                                                                                    ",
"                                                                                                    ",
"                                                                                                    ",
"                                                                                                    ",
"                                                                                                    ",
"                                                                                                    "
};
