/* XPM */
static char *fcf7a9f419054aea9925a11bd105674fAMvYVWJD8p8fzuSY[] = {
/* columns rows colors chars-per-pixel */
"50 50 198 2 ",
"   c None",
".  c #3C3333",
"X  c #3F3D3D",
"o  c #721F1F",
"O  c #7D1E1F",
"+  c #492727",
"@  c #492929",
"#  c #4F2B2B",
"$  c #482E2E",
"%  c #512727",
"&  c #5C2525",
"*  c #5C2727",
"=  c #502929",
"-  c #512A2A",
";  c #572E2E",
":  c #423333",
">  c #413838",
",  c #423D3D",
"<  c #423F3F",
"1  c #4B3D3D",
"2  c #533636",
"3  c #533A3A",
"4  c #553F3F",
"5  c #612424",
"6  c #632525",
"7  c #6A2121",
"8  c #6C2222",
"9  c #652A2A",
"0  c #722020",
"q  c #7F2525",
"w  c #7C2727",
"e  c #712A2A",
"r  c #653030",
"t  c #6F3C3C",
"y  c #733132",
"u  c #454040",
"i  c #464646",
"p  c gray28",
"a  c #4C4141",
"s  c #4D4545",
"d  c #4B4B4B",
"f  c #4C4C4C",
"g  c #4C4D4D",
"h  c #514141",
"j  c #5B4545",
"k  c #5C4949",
"l  c #5B4F4F",
"z  c #505050",
"x  c #505151",
"c  c #515151",
"v  c #575252",
"b  c #565454",
"n  c #575454",
"m  c #565656",
"M  c #5D5656",
"N  c #585959",
"B  c #5A5A5A",
"V  c #5B5B5B",
"C  c #5F5F5F",
"Z  c #664040",
"A  c #6B4444",
"S  c #654B4B",
"D  c #734747",
"F  c #675D5D",
"G  c #606060",
"H  c gray38",
"J  c #626262",
"K  c gray39",
"L  c #636464",
"P  c #656565",
"I  c gray40",
"U  c #696666",
"Y  c #6C6C6C",
"T  c #7C6262",
"R  c #766E6E",
"E  c gray44",
"W  c #747373",
"Q  c #727575",
"!  c #747474",
"~  c #747575",
"^  c gray46",
"/  c #767676",
"(  c #777777",
")  c #797979",
"_  c #7A7B7B",
"`  c #7B7B7B",
"'  c #7A7C7C",
"]  c #7B7D7D",
"[  c #7C7C7C",
"{  c #7C7D7D",
"}  c gray49",
"|  c gray50",
" . c #861919",
".. c #871919",
"X. c #841C1C",
"o. c #881C1D",
"O. c #8B1D1D",
"+. c #961616",
"@. c #981516",
"#. c #921818",
"$. c #9B1C1D",
"%. c #B70E0E",
"&. c #BD0F0F",
"*. c #AA1111",
"=. c #AE1111",
"-. c #B71111",
";. c #B91414",
":. c #B61C18",
">. c #872B2D",
",. c #883233",
"<. c #C10C0C",
"1. c #C00C0D",
"2. c #CF0A0A",
"3. c #D10807",
"4. c #D00B09",
"5. c #E20804",
"6. c #F50401",
"7. c #E31006",
"8. c #E61005",
"9. c #ED1001",
"0. c #F11301",
"q. c #FF2000",
"w. c #FF2100",
"e. c #FF3500",
"r. c #844747",
"t. c #826565",
"y. c #817A7A",
"u. c #818181",
"i. c gray51",
"p. c #858080",
"a. c #878585",
"s. c gray53",
"d. c #888888",
"f. c #898989",
"g. c #898B8B",
"h. c gray54",
"j. c #8B8B8B",
"k. c #8D8A8A",
"l. c #8A8C8C",
"z. c #8B8D8D",
"x. c gray55",
"c. c #8E8E8E",
"v. c gray56",
"b. c #8D9090",
"n. c gray57",
"m. c #929494",
"M. c #959595",
"N. c #979595",
"B. c #959696",
"V. c gray60",
"C. c #999A9A",
"Z. c #9B9B9B",
"A. c #9A9C9C",
"S. c gray61",
"D. c #9C9D9D",
"F. c #9FA2A2",
"G. c gray64",
"H. c #A0A4A4",
"J. c #A3A7A7",
"K. c #A4A4A4",
"L. c #A5A5A5",
"P. c gray65",
"I. c #A7A7A7",
"U. c #A5A9A9",
"Y. c gray66",
"T. c #AFAFAF",
"R. c #AEB0B0",
"E. c #AFB2B2",
"W. c #AFB5B5",
"Q. c #B1B1B1",
"!. c #B7B7B7",
"~. c #B9BBBB",
"^. c gray75",
"/. c #C0C0C0",
"(. c #C1C1C1",
"). c #C3C3C3",
"_. c #C8C8C8",
"`. c #CCCDCD",
"'. c #CDCDCD",
"]. c #CECECE",
"[. c #D1D0D0",
"{. c gray82",
"}. c #D0D3D3",
"|. c gray83",
" X c gainsboro",
".X c gray87",
"XX c #DFDFDF",
"oX c gray88",
"OX c #E2E2E2",
"+X c gray90",
"@X c #EAEAEA",
"#X c #EAEBEB",
"$X c #ECECEC",
"%X c #EFEFEF",
"&X c gray95",
"*X c #F3F3F3",
"=X c #F8F8F8",
"-X c #F9F9F9",
/* pixels */
"                                                                                                    ",
"                                                                                                    ",
"                                                                                                    ",
"                                                                                                    ",
"                                                                                                    ",
"                                                                                                    ",
"                                                                                                    ",
"                                                                                                    ",
"                                                                                                    ",
"                                                                                                    ",
"                                                                                                    ",
"                                                                                                    ",
"                                                                                                    ",
"                                                                                                    ",
"                                                                                                    ",
"                                  c.                                                                ",
"                                i.p g ] N _                                                         ",
"                                x . @ ; # h W C.].      _.(.                                        ",
"                                / u 2 9 6 * a l.OX                                                  ",
"                                      a.* 0 s A.-X-X                                                ",
"                                        t +.y R {.OX{.                                              ",
"                                        r.3.4.o.T S.` d.T.                                          ",
"                                      W.,.9.w.5.$.j p H C.                                          ",
"                                      H.>.0.e.7.+.% g n.{.@X                                        ",
"                                      N.q 5.w.:.l M c.OX.XOXOX                                      ",
"                            C.G.        t.%.6.;.p.E. X%X%X{._ b H ]                                 ",
"                          A.( _ /.      L.r <.=.S R.@X*X].v = + , c.                                ",
"                          | H } ).    !.Q < #.=.Z U.@X*XF.$ X.o k ~.                                ",
"                          / n U.+X    I.L , O.&.q y.]..Xf.: 7 6 F                                   ",
"                          f.N U.      (.f.Q w 4.*.D l.L.H.E 1 > g B.                                ",
"                          C.F L C.        b.e <.-.8 n B.      L d /                                 ",
"                            K H } Q.      } =  . .A m.        / p Y                                 ",
"                            d.d.            U 4 3 k.          i.x V G.                              ",
"                                                                H I n.                              ",
"                                                                k.i.B.                              ",
"                                                                  G.                                ",
"                                                                                                    ",
"                                                                                                    ",
"                                                                                                    ",
"                                                                                                    ",
"                                                                                                    ",
"                                                                                                    ",
"                                                                                                    ",
"                                                                                                    ",
"                                                                                                    ",
"                                                                                                    ",
"                                                                                                    ",
"                                                                                                    ",
"                                                                                                    ",
"                                                                                                    "
};
