/* XPM */
static char *result[] = {
/* columns rows colors chars-per-pixel */
"50 50 113 2 ",
"   c #3A3030",
".  c #3D3B3B",
"X  c #721E1E",
"o  c #7D1E1E",
"O  c #4E2727",
"+  c #452E2E",
"@  c #4C2A2A",
"#  c #5D2626",
"$  c #522B2C",
"%  c #592C2C",
"&  c #433434",
"*  c #4C3535",
"=  c #433C3C",
"-  c #4C3C3C",
";  c #543232",
":  c #5A3737",
">  c #533A3A",
",  c #5C3C3D",
"<  c #632323",
"1  c #6C2323",
"2  c #652A2A",
"3  c #742323",
"4  c #7A2222",
"5  c #7C2828",
"6  c #683434",
"7  c #7D3E3E",
"8  c #673F40",
"9  c #464545",
"0  c #4A4444",
"q  c #4B4C4C",
"w  c #5A4747",
"e  c #504F4F",
"r  c #5C4B4B",
"t  c #4F5050",
"y  c #535353",
"u  c #5B5454",
"i  c #5C5B5B",
"p  c #604040",
"a  c #6C4343",
"s  c #6A4E4E",
"d  c #625556",
"f  c #655858",
"g  c #5F6060",
"h  c #636363",
"j  c #6A6666",
"k  c #6B6B6B",
"l  c #766F6F",
"z  c #6E7272",
"x  c #747474",
"c  c #7B7575",
"v  c #777878",
"b  c #7B7B7B",
"n  c #811C1C",
"m  c #8B1B1B",
"M  c #901616",
"N  c #9E1617",
"B  c #941919",
"V  c #B60E0E",
"C  c #BC0E0E",
"Z  c #A31313",
"A  c #AE1212",
"S  c #A31B16",
"D  c #B31211",
"F  c #BA1210",
"G  c #812222",
"H  c #8F3031",
"J  c #C50D0B",
"K  c #CB0D0C",
"L  c #DB0807",
"P  c #D40A09",
"I  c #DA0909",
"U  c #C2120F",
"Y  c #C8130B",
"T  c #C4190D",
"R  c #D2160B",
"E  c #E00C06",
"W  c #E90C05",
"Q  c #F10502",
"!  c #F70D02",
"~  c #FA0900",
"^  c #E91005",
"/  c #EB1902",
"(  c #FF1B00",
")  c #D7200A",
"_  c #F62702",
"`  c #FF2300",
"'  c #FF2C00",
"]  c #FF3400",
"[  c #FC3A01",
"{  c #FF5C00",
"}  c #FF6100",
"|  c #FF7400",
" . c #FF7E00",
".. c #817C7C",
"X. c #838484",
"o. c #878989",
"O. c #8A8B8B",
"+. c #908D8E",
"@. c #8F9191",
"#. c #949494",
"$. c #959898",
"%. c #9B9B9B",
"&. c #9EA0A0",
"*. c #A4A4A4",
"=. c #ABABAB",
"-. c #AEB1B1",
";. c #B4B4B4",
":. c #BBBBBB",
">. c #BFC0C0",
",. c #C3C3C3",
"<. c #CACBCB",
"1. c #D3D3D3",
"2. c None",
/* pixels */
"2.2.2.2.2.2.2.2.2.2.2.2.2.2.2.2.2.2.2.2.2.2.2.2.2.2.2.2.2.2.2.2.2.2.2.2.2.2.2.2.2.2.2.2.2.2.2.2.2.2.",
"2.2.2.2.2.2.2.2.2.2.2.2.2.2.2.2.2.2.2.2.2.2.2.2.2.2.2.2.2.2.2.2.2.2.2.2.2.2.2.2.2.2.2.2.2.2.2.2.2.2.",
"2.2.2.2.2.2.2.2.2.2.2.2.2.2.2.2.2.2.2.2.2.2.2.2.2.2.2.2.2.2.2.2.2.2.2.2.2.2.2.2.2.2.2.2.2.2.2.2.2.2.",
"2.2.2.2.2.2.2.2.2.2.2.2.2.2.2.2.2.2.2.2.2.2.2.2.2.2.2.2.2.2.2.2.2.2.2.2.2.2.2.2.2.2.2.2.2.2.2.2.2.2.",
"2.2.2.2.2.2.2.2.2.2.2.2.2.2.2.2.2.2.2.2.2.2.2.2.2.2.2.2.2.2.2.2.2.2.2.2.2.2.2.2.2.2.2.2.2.2.2.2.2.2.",
"2.2.2.2.2.2.2.2.2.2.2.2.2.2.2.2.2.2.2.2.2.2.2.2.2.2.2.2.2.2.2.2.2.2.2.2.2.2.2.2.2.2.2.2.2.2.2.2.2.2.",
"2.2.2.2.2.2.2.2.2.2.2.2.2.2.2.2.2.2.2.2.2.2.2.2.2.2.2.2.2.2.2.2.2.2.2.2.2.2.2.2.2.2.2.2.2.2.2.2.2.2.",
"2.2.2.2.2.2.2.2.2.2.2.2.2.2.2.2.2.2.2.2.2.2.2.2.2.2.2.2.2.2.2.2.2.2.2.2.2.2.2.2.2.2.2.2.2.2.2.2.2.2.",
"2.2.2.2.2.2.2.2.2.2.2.2.2.2.2.2.2.2.2.2.2.2.2.2.2.2.2.2.2.2.2.2.2.2.2.2.2.2.2.2.2.2.2.2.2.2.2.2.2.2.",
"2.2.2.2.2.2.2.2.2.2.2.2.2.2.2.2.*.*.:.2.2.,.:.:.,.<.2.2.2.2.2.2.2.2.2.2.2.2.2.2.2.2.2.2.2.2.2.2.2.2.",
"2.2.2.2.2.2.2.2.2.2.2.2.2.2.2.:.O.O.;.1.:.=.=.;.,.,.,.,.:.,.,.2.2.2.2.2.2.2.2.2.2.2.2.2.2.2.2.2.2.2.",
"2.2.2.2.2.2.2.2.2.2.2.2.2.2.2.:.%.%.>.<.:.-.;.=.:.<.:.:.=.o.O.:.2.2.2.2.2.2.2.2.2.2.2.2.2.2.2.2.2.2.",
"2.2.2.2.2.2.2.2.2.2.2.2.2.,.<.<.<.:.<.:.:.:.;.;.:.,.,.=...h k *.2.2.2.2.2.2.2.2.2.2.2.2.2.2.2.2.2.2.",
"2.2.2.2.2.2.2.2.2.2.2.2.,.,.;.:.1.,.%.$.=.>.:.;.-.=.:.=.b y h =.2.2.2.2.2.2.2.2.2.2.2.2.2.2.2.2.2.2.",
"2.2.2.2.2.2.2.2.2.2.;.:.<.>.v i c #.u h #.:.<.:.-.%.b b b i k 2.2.2.2.2.2.2.2.2.2.2.2.2.2.2.2.2.2.2.",
"2.2.2.2.2.2.2.2.2.2.:.,.<.$.: X o : 3 ; e c &.:.:.o.e y k X.$.:.2.2.2.2.2.2.2.2.2.2.2.2.2.2.2.2.2.2.",
"2.2.2.2.2.2.2.2.2.2.>.<.;.r X Z C V F o O . x :.>.O.9 9 z *.:.:.2.2.2.2.2.2.2.2.2.2.2.2.2.2.2.2.2.2.",
"2.2.2.2.2.2.2.2.2.;.;.:.,.X.; X B D K J m * h *.>.=.k f O.:.:.;.2.2.2.2.2.2.2.2.2.2.2.2.2.2.2.2.2.2.",
"2.2.2.2.2.2.2.2.:.;.;.,.1.:.O.h x a V F < e X.+.=.>.;.=.;.,.;.:.,.2.2.2.2.2.2.2.2.2.2.2.2.2.2.2.2.2.",
"2.2.2.2.2.2.2.2.,.:.:.;.;.:.:.;.:.c B K m 8 b b v #.:.:.,.>.;.;.;.2.2.2.2.2.2.2.2.2.2.2.2.2.2.2.2.2.",
"2.2.2.2.2.2.2.2.2.:.;.=.=.-.;.:.-.l S ' _ K 7 r # > h +.:.<.:.-.=.2.2.2.2.2.2.2.2.2.2.2.2.2.2.2.2.2.",
"2.2.2.2.2.2.2.2.2.=.-.;.;.;.*.;.X.- T } | ' U G M 1 0 O.,.<.<.<.;.2.2.2.2.2.2.2.2.2.2.2.2.2.2.2.2.2.",
"2.2.2.2.2.2.2.2.2.=.:.,.:.&.o.#.o.- Y {  .[ P N 3 : g o.:.<.1.1.;.2.2.2.2.2.2.2.2.2.2.2.2.2.2.2.2.2.",
"2.2.2.2.2.2.2.2.2.:.,.*.X.x v O.$.8 J [ { ) 4 < f v k k b #.$.o.v v 2.2.2.2.2.2.2.2.2.2.2.2.2.2.2.2.",
"2.2.2.2.2.2.2.2.2.,.;.h = 0 v %.-.+.H / ] R , t &.;.$.e ; 2 ; + . i o.2.2.2.2.2.2.2.2.2.2.2.2.2.2.2.",
"2.2.2.2.2.2.2.2.2.,.#.0 + + h ;.;.%.f Z ! W 3 h :.:.X.X C C o > k $.2.2.2.2.2.2.2.2.2.2.2.2.2.2.2.2.",
"2.2.2.2.2.2.2.;.;.:.O.* # + k ;.*.i + o I Q o x >.-.s Z Q L 3 X.:.2.2.2.2.2.2.2.2.2.2.2.2.2.2.2.2.2.",
"2.2.2.2.2.2.2.*.=.:.O.@ # 0 X.-.$.9 $ m I ~ A r @.$.- M K F 6 X.*.2.2.2.2.2.2.2.2.2.2.2.2.2.2.2.2.2.",
"2.2.2.2.2.2.2.2.:.2.#.* # - o.=.*.g & $ F ` ^ 3 = y y p 4 m 2 - b 2.2.2.2.2.2.2.2.2.2.2.2.2.2.2.2.2.",
"2.2.2.2.2.2.2.2.2.2.X.= # % w z +.O.g > D ` ( A @ y #.*.x % 1 > *.2.2.2.2.2.2.2.2.2.2.2.2.2.2.2.2.2.",
"2.2.2.2.2.2.2.2.2.2.2.i @ # O 0 b ;.&., A W E 5 u b *.;.@.; < & $.2.2.2.2.2.2.2.2.2.2.2.2.2.2.2.2.2.",
"2.2.2.2.2.2.2.2.2.2.2.X.. & d b ;.<.>.j 2 m n u &.:.:.$.i + # @ x 2.2.2.2.2.2.2.2.2.2.2.2.2.2.2.2.2.",
"2.2.2.2.2.2.2.2.2.2.2.2.h i X.:.1.<.<.:.#...i x >.<.:.&.b e @ @ f 2.2.2.2.2.2.2.2.2.2.2.2.2.2.2.2.2.",
"2.2.2.2.2.2.2.2.2.2.2.2.2.*.*.;.,.=.:.<.:.;.*.=.:.<.,.:.:.b =   t %.2.2.2.2.2.2.2.2.2.2.2.2.2.2.2.2.",
"2.2.2.2.2.2.2.2.2.2.2.2.2.2.,.:.-.+.=.<.:.=.#.#.;.:.:.;.:.%.h 0 i =.2.2.2.2.2.2.2.2.2.2.2.2.2.2.2.2.",
"2.2.2.2.2.2.2.2.2.2.2.2.2.2.2.2.=.O.=.<.>.*.o.o.;.>.;.;.;.-.#.x X.2.2.2.2.2.2.2.2.2.2.2.2.2.2.2.2.2.",
"2.2.2.2.2.2.2.2.2.2.2.2.2.2.2.2.2.=.2.2.>.*.O.O.=.>.>.,.,.>.>.=.2.2.2.2.2.2.2.2.2.2.2.2.2.2.2.2.2.2.",
"2.2.2.2.2.2.2.2.2.2.2.2.2.2.2.2.2.2.2.2.2.:.-.%.;.:.2.2.2.2.2.2.2.2.2.2.2.2.2.2.2.2.2.2.2.2.2.2.2.2.",
"2.2.2.2.2.2.2.2.2.2.2.2.2.2.2.2.2.2.2.2.2.2.2.2.2.2.2.2.2.2.2.2.2.2.2.2.2.2.2.2.2.2.2.2.2.2.2.2.2.2.",
"2.2.2.2.2.2.2.2.2.2.2.2.2.2.2.2.2.2.2.2.2.2.2.2.2.2.2.2.2.2.2.2.2.2.2.2.2.2.2.2.2.2.2.2.2.2.2.2.2.2.",
"2.2.2.2.2.2.2.2.2.2.2.2.2.2.2.2.2.2.2.2.2.2.2.2.2.2.2.2.2.2.2.2.2.2.2.2.2.2.2.2.2.2.2.2.2.2.2.2.2.2.",
"2.2.2.2.2.2.2.2.2.2.2.2.2.2.2.2.2.2.2.2.2.2.2.2.2.2.2.2.2.2.2.2.2.2.2.2.2.2.2.2.2.2.2.2.2.2.2.2.2.2.",
"2.2.2.2.2.2.2.2.2.2.2.2.2.2.2.2.2.2.2.2.2.2.2.2.2.2.2.2.2.2.2.2.2.2.2.2.2.2.2.2.2.2.2.2.2.2.2.2.2.2.",
"2.2.2.2.2.2.2.2.2.2.2.2.2.2.2.2.2.2.2.2.2.2.2.2.2.2.2.2.2.2.2.2.2.2.2.2.2.2.2.2.2.2.2.2.2.2.2.2.2.2.",
"2.2.2.2.2.2.2.2.2.2.2.2.2.2.2.2.2.2.2.2.2.2.2.2.2.2.2.2.2.2.2.2.2.2.2.2.2.2.2.2.2.2.2.2.2.2.2.2.2.2.",
"2.2.2.2.2.2.2.2.2.2.2.2.2.2.2.2.2.2.2.2.2.2.2.2.2.2.2.2.2.2.2.2.2.2.2.2.2.2.2.2.2.2.2.2.2.2.2.2.2.2.",
"2.2.2.2.2.2.2.2.2.2.2.2.2.2.2.2.2.2.2.2.2.2.2.2.2.2.2.2.2.2.2.2.2.2.2.2.2.2.2.2.2.2.2.2.2.2.2.2.2.2.",
"2.2.2.2.2.2.2.2.2.2.2.2.2.2.2.2.2.2.2.2.2.2.2.2.2.2.2.2.2.2.2.2.2.2.2.2.2.2.2.2.2.2.2.2.2.2.2.2.2.2.",
"2.2.2.2.2.2.2.2.2.2.2.2.2.2.2.2.2.2.2.2.2.2.2.2.2.2.2.2.2.2.2.2.2.2.2.2.2.2.2.2.2.2.2.2.2.2.2.2.2.2.",
"2.2.2.2.2.2.2.2.2.2.2.2.2.2.2.2.2.2.2.2.2.2.2.2.2.2.2.2.2.2.2.2.2.2.2.2.2.2.2.2.2.2.2.2.2.2.2.2.2.2."
};
