/* XPM */
static char *result[] = {
/* columns rows colors chars-per-pixel */
"50 50 130 2 ",
"   c #3B2D2D",
".  c #373333",
"X  c #3C3131",
"o  c #3B3838",
"O  c #6D1F1F",
"+  c #7D1E1E",
"@  c #7F1F20",
"#  c #4F2727",
"$  c #452B2B",
"%  c #4B2C2C",
"&  c #572525",
"*  c #5D2626",
"=  c #542B2B",
"-  c #592C2C",
";  c #463434",
":  c #4C3333",
">  c #433E3E",
",  c #4B3A3A",
"<  c #553434",
"1  c #5C3333",
"2  c #533C3C",
"3  c #5C3939",
"4  c #632121",
"5  c #6C2323",
"6  c #642B2C",
"7  c #6D2D2D",
"8  c #742020",
"9  c #792222",
"0  c #722929",
"q  c #792828",
"w  c #653434",
"e  c #6F3636",
"r  c #663F3F",
"t  c #6D3939",
"y  c #783031",
"u  c #444343",
"i  c #4B4444",
"p  c #474B4B",
"a  c #4C4A4A",
"s  c #544444",
"d  c #5D4141",
"f  c #554C4C",
"g  c #5D4C4C",
"h  c #535151",
"j  c #5D5454",
"k  c #5C5C5C",
"l  c #674141",
"z  c #6E4D4D",
"x  c #635353",
"c  c #645C5D",
"v  c #6F5C5C",
"b  c #7C5152",
"n  c #765D5D",
"m  c #5F6161",
"M  c #636363",
"N  c #6B6464",
"B  c #6C6D6D",
"V  c #736B6B",
"C  c #6F7070",
"Z  c #747474",
"A  c #7A7575",
"S  c #777B7B",
"D  c #7B7B7B",
"F  c #821C1C",
"G  c #8E1D1D",
"H  c #961617",
"J  c #9C1717",
"K  c #9E1718",
"L  c #941A19",
"P  c #B60E0E",
"I  c #BD0F0F",
"U  c #B4100E",
"Y  c #BD110D",
"T  c #A51313",
"R  c #AC1312",
"E  c #A11915",
"W  c #B31112",
"Q  c #B91210",
"!  c #832120",
"~  c #922325",
"^  c #C50C0C",
"/  c #CC0A09",
"(  c #DF0707",
")  c #DF0B07",
"_  c #D20A09",
"`  c #C3140F",
"'  c #CC120B",
"]  c #D3120A",
"[  c #E70404",
"{  c #E80505",
"}  c #F80201",
"|  c #FC0D00",
" . c #E21107",
".. c #F11101",
"X. c #FD1600",
"o. c #F61901",
"O. c #FF1900",
"+. c #F32202",
"@. c #FD2500",
"#. c #F72F02",
"$. c #FD2800",
"%. c #F43302",
"&. c #FF3100",
"*. c #FF3C00",
"=. c #FF4400",
"-. c #FF4A00",
";. c #F85102",
":. c #FF5C00",
">. c #FF7300",
",. c #FF8400",
"<. c #FFA600",
"1. c #838484",
"2. c #888080",
"3. c #878989",
"4. c #8C8C8C",
"5. c #8F9090",
"6. c #929292",
"7. c #969898",
"8. c #9C9C9C",
"9. c #9EA1A1",
"0. c #A3A4A4",
"q. c #A6A9A9",
"w. c #ABACAC",
"e. c #AEB1B1",
"r. c #B4B4B4",
"t. c #B7B8B8",
"y. c #BBBCBC",
"u. c #C3C4C4",
"i. c #CBCBCB",
"p. c None",
/* pixels */
"p.p.p.p.p.p.p.p.p.p.p.p.p.p.p.p.p.p.p.p.p.p.p.p.p.p.p.p.p.p.p.p.p.p.p.p.p.p.p.p.p.p.p.p.p.p.p.p.p.p.",
"p.p.p.p.p.p.p.p.p.p.p.p.p.p.p.p.p.p.p.p.p.p.p.p.p.p.p.p.p.p.p.p.p.p.p.p.p.p.p.p.p.p.p.p.p.p.p.p.p.p.",
"p.p.p.p.p.p.p.p.p.p.p.p.p.p.p.p.p.p.p.p.p.p.p.p.p.p.p.p.p.p.p.p.p.p.p.p.p.p.p.p.p.p.p.p.p.p.p.p.p.p.",
"p.p.p.p.p.p.p.p.p.p.p.p.p.p.p.p.p.p.p.p.p.p.p.p.p.p.p.p.p.p.p.p.p.p.p.p.p.p.p.p.p.p.p.p.p.p.p.p.p.p.",
"p.p.p.p.p.p.p.p.p.p.p.p.p.p.p.p.p.p.p.p.p.p.p.p.p.p.p.p.p.p.p.p.p.p.p.p.p.p.p.p.p.p.p.p.p.p.p.p.p.p.",
"p.p.p.p.p.p.p.p.p.p.p.p.p.p.p.p.p.p.p.p.p.p.p.p.p.p.p.p.p.p.p.p.p.p.p.p.p.p.p.p.p.p.p.p.p.p.p.p.p.p.",
"p.p.p.p.p.p.p.p.p.p.p.p.p.p.p.p.p.p.p.p.p.p.p.p.p.p.p.p.p.p.p.p.p.p.p.p.p.p.p.p.p.p.p.p.p.p.p.p.p.p.",
"p.p.p.p.p.p.p.p.p.p.p.p.p.p.p.p.p.p.p.p.p.p.p.p.p.p.p.p.p.p.p.p.p.p.p.p.p.p.p.p.p.p.p.p.p.p.p.p.p.p.",
"p.p.p.p.p.p.p.p.p.p.p.p.p.p.p.p.p.p.p.p.p.p.p.p.p.p.p.p.p.p.p.p.p.p.p.p.p.p.p.p.p.p.p.p.p.p.p.p.p.p.",
"p.p.p.p.p.p.p.p.p.p.p.p.p.p.p.p.p.p.p.p.p.p.p.p.p.p.p.p.p.p.p.p.p.p.p.p.p.p.p.p.p.p.p.p.p.p.p.p.p.p.",
"p.p.p.p.p.p.p.p.p.p.p.p.p.p.p.p.p.p.p.p.9.5.0.p.p.p.p.p.p.p.u.p.p.p.p.p.p.p.p.p.p.p.p.p.p.p.p.p.p.p.",
"p.p.p.p.p.p.p.p.p.p.p.p.p.p.p.p.p.p.p.q.Z c 1.w.p.p.u.i.i.y.w.w.u.u.y.p.p.p.p.p.p.p.p.p.p.p.p.p.p.p.",
"p.p.p.p.p.p.p.p.p.p.p.p.p.p.p.p.p.p.t.8.B M 1.y.p.u.u.u.u.t.9.9.9.4.Z 4.p.p.p.p.p.p.p.p.p.p.p.p.p.p.",
"p.p.p.p.p.p.p.p.p.p.p.p.p.p.p.p.p.u.u.r.7.6.w.t.u.p.p.p.p.p.0.4.Z f a S p.p.p.p.p.p.p.p.p.p.p.p.p.p.",
"p.p.p.p.p.p.p.p.p.p.p.p.p.p.p.p.u.y.t.r.w.t.8.1.6.w.u.p.p.p.t.9.B u o Z r.p.p.p.p.p.p.p.p.p.p.p.p.p.",
"p.p.p.p.p.p.p.p.p.p.p.p.p.p.p.p.u.u.0.V V 7.M a M 6.y.p.p.t.8.5.Z > . D p.p.p.p.p.p.p.p.p.p.p.p.p.p.",
"p.p.p.p.p.p.p.p.p.p.p.p.p.p.p.p.p.r.v 5 F t 7 6 2 k 3.r.p.8.a > u a h 4.p.p.p.p.p.p.p.p.p.p.p.p.p.p.",
"p.p.p.p.p.p.p.p.p.p.p.p.p.p.p.p.p.N 8 W / ^ ^ R 5 - h w.u.A   $ o M 1.w.p.p.p.p.p.p.p.p.p.p.p.p.p.p.",
"p.p.p.p.p.p.p.p.p.p.p.p.p.p.p.p.p.Z 5 T / [ } [ R F ; D q.4.u   a 7.p.p.p.p.p.p.p.p.p.p.p.p.p.p.p.p.",
"p.p.p.p.p.p.p.p.p.p.p.p.p.p.p.p.p.p.x 3 e q / [ R 6 a k 2.9.1.k D p.p.p.p.p.p.p.p.p.p.p.p.p.p.p.p.p.",
"p.p.p.p.p.p.p.p.p.p.p.p.p.p.p.p.p.p.r.e.w.S ~ _ J 6 a k M 1.q.e.r.p.p.p.p.p.p.p.p.p.p.p.p.p.p.p.p.p.",
"p.p.p.p.p.p.p.p.p.p.p.p.p.p.p.p.p.p.u.i.t.9.y ..o.' y i - w x B 8.p.p.p.p.p.p.p.p.p.p.p.p.p.p.p.p.p.",
"p.p.p.p.p.p.p.p.p.p.p.p.p.p.p.p.p.t.r.w.1.a L -.,.=.] q T J 4 u 7.p.p.p.p.p.p.p.p.p.p.p.p.p.p.p.p.p.",
"p.p.p.p.p.p.p.p.p.p.p.p.p.p.p.p.p.0.D Z D a E :.<.>.X./ I G < a 6.p.p.p.p.p.p.p.p.p.p.p.p.p.p.p.p.p.",
"p.p.p.p.p.p.p.p.p.p.p.p.p.p.p.p.9.Z k m Z f P *.,.;.` W 9 , o > B q.p.8.D B 3.p.p.p.p.p.p.p.p.p.p.p.",
"p.p.p.p.p.p.p.p.p.p.p.p.p.p.p.S > ; j A 6.D ~ o.:.%.+ = g D M p ; r z < % . h 6.p.p.p.p.p.p.p.p.p.p.",
"p.p.p.p.p.p.p.p.p.p.p.p.p.p.p.a & 5 2 0.i.y.c P $.$.K , 4.t.e.d H ^ T + : a B w.p.p.p.p.p.p.p.p.p.p.",
"p.p.p.p.p.p.p.p.p.p.p.7.4.y.q.< @ @ : 1.q.D : F ] X.Y d e.y.1.L ..X.^ w S w.y.p.p.p.p.p.p.p.p.p.p.p.",
"p.p.p.p.p.p.p.p.p.p.w.D B 0.w.3 + & a 7.4.u * K  .X.' 1 3.q.z T ..| R j 1.8.u.p.p.p.p.p.p.p.p.p.p.p.",
"p.p.p.p.p.p.p.p.p.p.p.D S w.y.d + & c w.w.k # @ Q $.$.T : a ; 8 T ^ K 1 h 1.p.p.p.p.p.p.p.p.p.p.p.p.",
"p.p.p.p.p.p.p.p.p.p.p.0.8.r.0.2 + @ l N 6.C a % F #.=. .F   h A n 0 H O h 9.p.p.p.p.p.p.p.p.p.p.p.p.",
"p.p.p.p.p.p.p.p.p.p.p.p.p.0.3.f 4 F + = p Z 8.g T @.&.] 5 i 1.u.q.d F O M p.p.p.p.p.p.p.p.p.p.p.p.p.",
"p.p.p.p.p.p.p.p.p.p.p.p.p.p.p.1.% 8 5 ; B w.u.g F / _ F N w.q.q.A 1 F O s 9.p.p.p.p.p.p.p.p.p.p.p.p.",
"p.p.p.p.p.p.p.p.p.p.p.p.p.p.p.p.> X i B 9.t.t.7.V b 6 2 9.u.0.2.k < 5 + : Z p.p.p.p.p.p.p.p.p.p.p.p.",
"p.p.p.p.p.p.p.p.p.p.p.p.p.p.p.p.D m M D 8.5.8.u.u.y.7.D 0.r.w.q.7.B % 8 % M p.p.p.p.p.p.p.p.p.p.p.p.",
"p.p.p.p.p.p.p.p.p.p.p.p.p.p.p.p.p.p.6.1.D B Z r.i.u.e.1.7.r.u.i.u.5.i % ; C p.p.p.p.p.p.p.p.p.p.p.p.",
"p.p.p.p.p.p.p.p.p.p.p.p.p.p.p.p.p.p.p.p.D c B 0.t.0.D M 3.u.i.u.u.y.D i > C p.p.p.p.p.p.p.p.p.p.p.p.",
"p.p.p.p.p.p.p.p.p.p.p.p.p.p.p.p.p.p.p.p.8.Z 4.0.8.4.V M D w.u.t.u.u.t.D k 1.p.p.p.p.p.p.p.p.p.p.p.p.",
"p.p.p.p.p.p.p.p.p.p.p.p.p.p.p.p.p.p.p.p.p.8.p.p.p.0.3.A 4.7.0.9.t.r.u.0.1.8.p.p.p.p.p.p.p.p.p.p.p.p.",
"p.p.p.p.p.p.p.p.p.p.p.p.p.p.p.p.p.p.p.p.p.p.p.p.p.p.p.q.p.0.6.7.r.p.p.p.p.p.p.p.p.p.p.p.p.p.p.p.p.p.",
"p.p.p.p.p.p.p.p.p.p.p.p.p.p.p.p.p.p.p.p.p.p.p.p.p.p.p.p.p.p.p.p.p.p.p.p.p.p.p.p.p.p.p.p.p.p.p.p.p.p.",
"p.p.p.p.p.p.p.p.p.p.p.p.p.p.p.p.p.p.p.p.p.p.p.p.p.p.p.p.p.p.p.p.p.p.p.p.p.p.p.p.p.p.p.p.p.p.p.p.p.p.",
"p.p.p.p.p.p.p.p.p.p.p.p.p.p.p.p.p.p.p.p.p.p.p.p.p.p.p.p.p.p.p.p.p.p.p.p.p.p.p.p.p.p.p.p.p.p.p.p.p.p.",
"p.p.p.p.p.p.p.p.p.p.p.p.p.p.p.p.p.p.p.p.p.p.p.p.p.p.p.p.p.p.p.p.p.p.p.p.p.p.p.p.p.p.p.p.p.p.p.p.p.p.",
"p.p.p.p.p.p.p.p.p.p.p.p.p.p.p.p.p.p.p.p.p.p.p.p.p.p.p.p.p.p.p.p.p.p.p.p.p.p.p.p.p.p.p.p.p.p.p.p.p.p.",
"p.p.p.p.p.p.p.p.p.p.p.p.p.p.p.p.p.p.p.p.p.p.p.p.p.p.p.p.p.p.p.p.p.p.p.p.p.p.p.p.p.p.p.p.p.p.p.p.p.p.",
"p.p.p.p.p.p.p.p.p.p.p.p.p.p.p.p.p.p.p.p.p.p.p.p.p.p.p.p.p.p.p.p.p.p.p.p.p.p.p.p.p.p.p.p.p.p.p.p.p.p.",
"p.p.p.p.p.p.p.p.p.p.p.p.p.p.p.p.p.p.p.p.p.p.p.p.p.p.p.p.p.p.p.p.p.p.p.p.p.p.p.p.p.p.p.p.p.p.p.p.p.p.",
"p.p.p.p.p.p.p.p.p.p.p.p.p.p.p.p.p.p.p.p.p.p.p.p.p.p.p.p.p.p.p.p.p.p.p.p.p.p.p.p.p.p.p.p.p.p.p.p.p.p.",
"p.p.p.p.p.p.p.p.p.p.p.p.p.p.p.p.p.p.p.p.p.p.p.p.p.p.p.p.p.p.p.p.p.p.p.p.p.p.p.p.p.p.p.p.p.p.p.p.p.p."
};