/* XPM */
static char *result[] = {
/* columns rows colors chars-per-pixel */
"50 50 148 2 ",
"   c #373737",
".  c #3B3232",
"X  c #3C3939",
"o  c #761E1E",
"O  c #7B1E1E",
"+  c #721F21",
"@  c #4E2727",
"#  c #452A2A",
"$  c #4B2C2C",
"%  c #572626",
"&  c #5C2626",
"*  c #5E2728",
"=  c #542B2C",
"-  c #592D2D",
";  c #453333",
":  c #4B3333",
">  c #453C3C",
",  c #4B3C3C",
"<  c #523333",
"1  c #5B3636",
"2  c #543D3D",
"3  c #583C3C",
"4  c #632626",
"5  c #6C2323",
"6  c #662729",
"7  c #642B2C",
"8  c #692929",
"9  c #722121",
"0  c #7A2222",
"q  c #742728",
"w  c #792F2F",
"e  c #633233",
"r  c #6E3636",
"t  c #6B3C3C",
"y  c #7D3333",
"u  c #7B3A3B",
"i  c #444343",
"p  c #4C4444",
"a  c #474848",
"s  c #4C4C4C",
"d  c #544242",
"f  c #5C4545",
"g  c #524C4C",
"h  c #5D4A4A",
"j  c #545454",
"k  c #5B5454",
"l  c #575858",
"z  c #5B5B5B",
"x  c #624141",
"c  c #6A4546",
"v  c #654C4D",
"b  c #744C4D",
"n  c #764F50",
"m  c #615050",
"M  c #645B5B",
"N  c #6A5A5A",
"B  c #7B5152",
"V  c #646464",
"C  c #696565",
"Z  c #676B6B",
"A  c #6C6C6C",
"S  c #726A6A",
"D  c #786E6E",
"F  c #6F7070",
"G  c #737373",
"H  c #767979",
"J  c #7C7C7C",
"K  c #8C1515",
"L  c #821D1D",
"P  c #8B1C1C",
"I  c #9D1717",
"U  c #9C1817",
"Y  c #9E1718",
"T  c #931919",
"R  c #9A1A1A",
"E  c #BA0E0D",
"W  c #BC110F",
"Q  c #A21515",
"!  c #AC1313",
"~  c #A31A19",
"^  c #B81011",
"/  c #B11B12",
"(  c #BE1814",
")  c #812323",
"_  c #902122",
"`  c #80393A",
"'  c #C20C0D",
"]  c #CD0C0A",
"[  c #D40707",
"{  c #DB0C07",
"}  c #D40A0A",
"|  c #C3130C",
" . c #CA120C",
".. c #DC1507",
"X. c #D81609",
"o. c #DB1A08",
"O. c #CB1D10",
"+. c #E10606",
"@. c #EB0503",
"#. c #E20C05",
"$. c #EC0D04",
"%. c #F50902",
"&. c #FC0B00",
"*. c #E11505",
"=. c #E81102",
"-. c #F51402",
";. c #FF1A00",
":. c #C4260D",
">. c #CD210B",
",. c #F62202",
"<. c #FC2101",
"1. c #F52902",
"2. c #FD2D00",
"3. c #E33707",
"4. c #FD3501",
"5. c #FF3B00",
"6. c #ED4404",
"7. c #FF4300",
"8. c #FF4A00",
"9. c #FF5500",
"0. c #FF5900",
"q. c #FF7200",
"w. c #FF7D00",
"e. c #827070",
"r. c #FF8F00",
"t. c #FF9500",
"y. c #FFA000",
"u. c #FFBB00",
"i. c #7A8282",
"p. c #838383",
"a. c #8A8787",
"s. c #868A8A",
"d. c #8B8C8C",
"f. c #929393",
"g. c #969999",
"h. c #9B9C9C",
"j. c #9FA0A0",
"k. c #A3A4A4",
"l. c #A6A8A8",
"z. c #ABACAC",
"x. c #B3B3B3",
"c. c #B5B8B8",
"v. c #BBBBBB",
"b. c #BFC1C1",
"n. c #C3C3C3",
"m. c #CBCBCB",
"M. c #D3D3D3",
"N. c None",
/* pixels */
"N.N.N.N.N.N.N.N.N.N.N.N.N.N.N.N.N.N.N.N.N.N.N.N.N.N.N.N.N.N.N.N.N.N.N.N.N.N.N.N.N.N.N.N.N.N.N.N.N.N.",
"N.N.N.N.N.N.N.N.N.N.N.N.N.N.N.N.N.N.N.N.N.N.N.N.N.N.N.N.N.N.N.N.N.N.N.N.N.N.N.N.N.N.N.N.N.N.N.N.N.N.",
"N.N.N.N.N.N.N.N.N.N.N.N.N.N.N.N.N.N.N.N.N.N.N.N.N.N.N.N.N.N.N.N.N.N.N.N.N.N.N.N.N.N.N.N.N.N.N.N.N.N.",
"N.N.N.N.N.N.N.N.N.N.N.N.N.N.N.N.N.N.N.N.N.N.N.N.N.N.N.N.N.N.N.N.N.N.N.N.N.N.N.N.N.N.N.N.N.N.N.N.N.N.",
"N.N.N.N.N.N.N.N.N.N.N.N.N.N.N.N.N.N.N.N.N.N.N.N.N.N.N.N.N.N.N.N.N.N.N.N.N.N.N.N.N.N.N.N.N.N.N.N.N.N.",
"N.N.N.N.N.N.N.N.N.N.N.N.N.N.N.N.N.N.N.N.N.N.N.N.N.N.N.N.N.N.N.N.N.N.N.N.N.N.N.N.N.N.N.N.N.N.N.N.N.N.",
"N.N.N.N.N.N.N.N.N.N.N.N.N.N.N.N.N.N.N.N.N.N.N.N.N.N.N.N.N.N.N.N.N.N.N.N.N.N.N.N.N.N.N.N.N.N.N.N.N.N.",
"N.N.N.N.N.N.N.N.N.N.N.N.N.N.N.N.N.N.N.N.N.N.N.N.N.N.N.N.N.N.N.N.N.N.N.N.N.N.N.N.N.N.N.N.N.N.N.N.N.N.",
"N.N.N.N.N.N.N.N.N.N.N.N.N.N.N.N.N.N.N.N.N.n.n.n.n.b.b.m.N.N.N.N.N.N.N.N.N.N.N.N.N.N.N.N.N.N.N.N.N.N.",
"N.N.N.N.N.N.N.N.N.N.N.N.N.N.N.c.h.x.N.n.n.n.m.b.m.b.v.n.m.b.m.N.N.N.N.N.N.N.N.N.N.N.N.N.N.N.N.N.N.N.",
"N.N.N.N.N.N.N.N.N.N.N.N.N.N.N.x.G G a.h.b.m.m.m.b.k.k.v.n.m.v.b.N.N.N.N.N.N.N.N.N.N.N.N.N.N.N.N.N.N.",
"N.N.N.N.N.N.N.N.N.N.N.m.M.M.n.d.l a A e.v.v.v.n.x.a.J g.z.l.g.f.N.N.N.N.N.N.N.N.N.N.N.N.N.N.N.N.N.N.",
"N.N.N.N.N.N.N.N.N.N.m.M.M.m.x.F j s S j.b.c.v.v.z.J C G H z z A z.N.N.N.N.N.N.N.N.N.N.N.N.N.N.N.N.N.",
"N.N.N.N.N.N.N.N.N.M.m.M.M.M.v.g.A J g.x.c.v.b.v.c.f.G z > . > A c.N.N.N.N.N.N.N.N.N.N.N.N.N.N.N.N.N.",
"N.N.N.N.N.N.N.N.M.M.M.M.M.M.m.c.f.z.H z A d.c.v.v.z.f.Z X $ $ J n.N.N.N.N.N.N.N.N.N.N.N.N.N.N.N.N.N.",
"N.N.N.N.N.N.N.N.m.m.m.n.M.n.a.N N J 2 . i A f.c.n.z.J V g $ = a.b.N.N.N.N.N.N.N.N.N.N.N.N.N.N.N.N.N.",
"N.N.N.N.N.N.N.m.v.b.c.c.z.p.t K T r R 0 : m F x.n.G ; $ , > > J z.l.g.N.N.N.N.N.N.N.N.N.N.N.N.N.N.N.",
"N.N.N.N.N.N.N.m.n.m.n.n.J 1 ! +.$.} %.^ T + d l.l.h 5 5 $ s V j.x.f.a.j.N.N.N.N.N.N.N.N.N.N.N.N.N.N.",
"N.N.N.N.N.N.M.m.n.c.c.v.g.t Q [ @.&.;.=.] T < G d.V & & , g.N.N.x.e.e.h.N.N.N.N.N.N.N.N.N.N.N.N.N.N.",
"N.N.N.N.N.n.x.v.v.x.c.n.n.i.: y w Y -.%.^ q X a F d.M i G N.N.N.c.p.i.z.N.N.N.N.N.N.N.N.N.N.N.N.N.N.",
"N.N.N.N.N.m.n.v.b.v.n.n.b.h.a.h.i.f E @.Q 5   i k i.h.d.N.N.N.N.N.k.h.l.N.N.N.N.N.N.N.N.N.N.N.N.N.N.",
"N.N.N.N.N.m.m.v.m.m.n.v.v.v.n.j.H V ~ 2.1.' 7 < 0 y c V N.N.N.N.N.c.x.N.N.N.N.N.N.N.N.N.N.N.N.N.N.N.",
"N.N.N.N.N.n.x.k.x.v.v.b.v.k.f.A s * O.w.t.8.O._ } ' o i d.N.N.N.N.v.c.N.N.N.N.N.N.N.N.N.N.N.N.N.N.N.",
"N.N.N.N.N.N.v.x.v.v.x.v.v.A s s j = :.r.u.q.-.+.} ! * > g.N.c.N.N.j.k.N.N.N.N.N.N.N.N.N.N.N.N.N.N.N.",
"N.N.N.N.N.N.N.n.v.v.g.p.H i   X s 6 ..q.y.6.' ] ) % % : A l.g.G M s C j.N.N.N.N.N.N.N.N.N.N.N.N.N.N.",
"N.N.N.N.N.N.N.b.v.x.f.p % = X z G v ( 7.w.3.o 5 N A d : 7 u c 8 5 @ X H N.N.N.N.N.N.N.N.N.N.N.N.N.N.",
"N.N.N.N.N.N.N.j.h.l.J = T T 1 J z.g.c ..8.4.U 2 g.N.e.q } { ' T 7 : V z.N.N.N.N.N.N.N.N.N.N.N.N.N.N.",
"N.N.N.N.N.N.d.S J j.C 5 Q R - V H h 5 ! ,.4.W f l.c.B  .4.2.' t J d.k.N.N.N.N.N.N.N.N.N.N.N.N.N.N.N.",
"N.N.N.N.N.N.A l z f.J L I & , f.A & T E ;.5.| e H G ) $.4.;.~ g G k.l.N.N.N.N.N.N.N.N.N.N.N.N.N.N.N.",
"N.N.N.N.N.N.G z V h.p.O Y 4 z x.z.f L Y X.9.2.R < ; 6 Q } { R 1 i F l.N.N.N.N.N.N.N.N.N.N.N.N.N.N.N.",
"N.N.N.N.N.N.h.p.a.g.A 5 Q P x S p.g : 4 / 0.0.X.L # g e.b P ! o k a.N.N.N.N.N.N.N.N.N.N.N.N.N.N.N.N.",
"N.N.N.N.N.N.N.N.j.J z = Y Q K 5 , C H q #.8.7. .5 > i.b.d.5 ! L D x.N.N.N.N.N.N.N.N.N.N.N.N.N.N.N.N.",
"N.N.N.N.N.N.N.N.N.g.f.k O T O % M v.k.% E =.{ 0 l G f.p.m L ! L x l.N.N.N.N.N.N.N.N.N.N.N.N.N.N.N.N.",
"N.N.N.N.N.N.N.N.N.N.l.V $ % X z a.z.h.J n u + 2 p.f.G i ; ) Q T < p.N.N.N.N.N.N.N.N.N.N.N.N.N.N.N.N.",
"N.N.N.N.N.N.N.N.N.N.N.p.z i a A i.A J v.b.z.G z G p.J J V 2 O P % G N.N.N.N.N.N.N.N.N.N.N.N.N.N.N.N.",
"N.N.N.N.N.N.N.N.N.N.N.N.z.p.V j g i l x.m.v.d.z G l.x.v.h.j & 9 @ H N.N.N.N.N.N.N.N.N.N.N.N.N.N.N.N.",
"N.N.N.N.N.N.N.N.N.N.N.N.j.d.a.J s i s J k.J l a C x.n.n.v.g.g $ ; G N.N.N.N.N.N.N.N.N.N.N.N.N.N.N.N.",
"N.N.N.N.N.N.N.N.N.N.N.N.N.N.g.g.Z k A G A z s i j f.k.k.l.j.p.s i J N.N.N.N.N.N.N.N.N.N.N.N.N.N.N.N.",
"N.N.N.N.N.N.N.N.N.N.N.N.N.N.N.f.J d.z.g.p.J z s z F F G p.d.h.F z f.N.N.N.N.N.N.N.N.N.N.N.N.N.N.N.N.",
"N.N.N.N.N.N.N.N.N.N.N.N.N.N.N.N.k.N.N.N.N.x.f.k.g.a.A G d.k.k.d.H h.N.N.N.N.N.N.N.N.N.N.N.N.N.N.N.N.",
"N.N.N.N.N.N.N.N.N.N.N.N.N.N.N.N.N.N.N.N.N.N.N.N.N.N.a.d.l.N.v.z.f.N.N.N.N.N.N.N.N.N.N.N.N.N.N.N.N.N.",
"N.N.N.N.N.N.N.N.N.N.N.N.N.N.N.N.N.N.N.N.N.N.N.N.N.N.N.z.N.N.N.N.N.N.N.N.N.N.N.N.N.N.N.N.N.N.N.N.N.N.",
"N.N.N.N.N.N.N.N.N.N.N.N.N.N.N.N.N.N.N.N.N.N.N.N.N.N.N.N.N.N.N.N.N.N.N.N.N.N.N.N.N.N.N.N.N.N.N.N.N.N.",
"N.N.N.N.N.N.N.N.N.N.N.N.N.N.N.N.N.N.N.N.N.N.N.N.N.N.N.N.N.N.N.N.N.N.N.N.N.N.N.N.N.N.N.N.N.N.N.N.N.N.",
"N.N.N.N.N.N.N.N.N.N.N.N.N.N.N.N.N.N.N.N.N.N.N.N.N.N.N.N.N.N.N.N.N.N.N.N.N.N.N.N.N.N.N.N.N.N.N.N.N.N.",
"N.N.N.N.N.N.N.N.N.N.N.N.N.N.N.N.N.N.N.N.N.N.N.N.N.N.N.N.N.N.N.N.N.N.N.N.N.N.N.N.N.N.N.N.N.N.N.N.N.N.",
"N.N.N.N.N.N.N.N.N.N.N.N.N.N.N.N.N.N.N.N.N.N.N.N.N.N.N.N.N.N.N.N.N.N.N.N.N.N.N.N.N.N.N.N.N.N.N.N.N.N.",
"N.N.N.N.N.N.N.N.N.N.N.N.N.N.N.N.N.N.N.N.N.N.N.N.N.N.N.N.N.N.N.N.N.N.N.N.N.N.N.N.N.N.N.N.N.N.N.N.N.N.",
"N.N.N.N.N.N.N.N.N.N.N.N.N.N.N.N.N.N.N.N.N.N.N.N.N.N.N.N.N.N.N.N.N.N.N.N.N.N.N.N.N.N.N.N.N.N.N.N.N.N.",
"N.N.N.N.N.N.N.N.N.N.N.N.N.N.N.N.N.N.N.N.N.N.N.N.N.N.N.N.N.N.N.N.N.N.N.N.N.N.N.N.N.N.N.N.N.N.N.N.N.N."
};