/* XPM */
static char *result[] = {
/* columns rows colors chars-per-pixel */
"50 50 163 2 ",
"   c #3C2E2E",
".  c #363333",
"X  c #3A3333",
"o  c #3D3B3B",
"O  c #771E1E",
"+  c #7E1D1D",
"@  c #7E1C20",
"#  c #442D2D",
"$  c #4C2D2D",
"%  c #5B2626",
"&  c #5A2728",
"*  c #522C2C",
"=  c #5C2929",
"-  c #443333",
";  c #4C3232",
":  c #443D3D",
">  c #4A3B3B",
",  c #553535",
"<  c #5B3535",
"1  c #533A3A",
"2  c #5C3E3E",
"3  c #632626",
"4  c #6B2323",
"5  c #632A2A",
"6  c #6A2B2B",
"7  c #742121",
"8  c #792121",
"9  c #742929",
"0  c #7D2A2B",
"q  c #663636",
"w  c #6A3030",
"e  c #633D3E",
"r  c #7A3132",
"t  c #703D3D",
"y  c #444343",
"u  c #494444",
"i  c #474848",
"p  c #4D4C4C",
"a  c #534747",
"s  c #5B4243",
"d  c #524F4F",
"f  c #5B4C4C",
"g  c #4E5252",
"h  c #535353",
"j  c #5B5555",
"k  c #575959",
"l  c #5B5B5B",
"z  c #634243",
"x  c #6B4646",
"c  c #624E4E",
"v  c #694949",
"b  c #6E4F50",
"n  c #645353",
"m  c #645C5C",
"M  c #695A5A",
"N  c #705B5B",
"B  c #5F6060",
"V  c #636363",
"C  c #6C6565",
"Z  c #666969",
"A  c #6B6B6B",
"S  c #746F6F",
"D  c #786868",
"F  c #6F7171",
"G  c #747474",
"H  c #767B7B",
"J  c #7C7C7C",
"K  c #8B1617",
"L  c #8E1719",
"P  c #841B1C",
"I  c #8B1B1B",
"U  c #941717",
"Y  c #9C1616",
"T  c #951719",
"R  c #9B1719",
"E  c #961919",
"W  c #9C191A",
"Q  c #B30E0F",
"!  c #BE0F0F",
"~  c #B6140F",
"^  c #BE110F",
"/  c #B70F11",
"(  c #BB0F10",
")  c #A31515",
"_  c #AB1313",
"`  c #B21313",
"'  c #BD1110",
"]  c #B41D13",
"[  c #842123",
"{  c #8A2323",
"}  c #822D2D",
"|  c #942625",
" . c #962B2D",
".. c #8F2F32",
"X. c #82393A",
"o. c #C50D0D",
"O. c #CC0B0B",
"+. c #DB0907",
"@. c #D50B09",
"#. c #DC0B08",
"$. c #C6130D",
"%. c #CB140C",
"&. c #CB1D0B",
"*. c #D1110B",
"=. c #E20607",
"-. c #E50C04",
";. c #E90A05",
":. c #F60701",
">. c #F50B01",
",. c #FE0D00",
"<. c #E21506",
"1. c #EE1103",
"2. c #E61F05",
"3. c #F21402",
"4. c #F91D00",
"5. c #DE2E07",
"6. c #DE2709",
"7. c #D4300A",
"8. c #F52201",
"9. c #FE2500",
"0. c #F62B02",
"q. c #FD2A00",
"w. c #E03E07",
"e. c #F53302",
"r. c #FF3400",
"t. c #F53B02",
"y. c #FC3B00",
"u. c #E74506",
"i. c #FF4900",
"p. c #FE5100",
"a. c #FF5D00",
"s. c #FF6D00",
"d. c #FE7300",
"f. c #FF7900",
"g. c #8B4C4D",
"h. c #886969",
"j. c #807C7C",
"k. c #FF8500",
"l. c #FF8A00",
"z. c #FF9E00",
"x. c #FFA300",
"c. c #FFBB00",
"v. c #FEC600",
"b. c #7D8080",
"n. c #838383",
"m. c #878A8A",
"M. c #8B8B8B",
"N. c #8D9090",
"B. c #939494",
"V. c #979999",
"C. c #9B9B9B",
"Z. c #9EA2A2",
"A. c #A3A4A4",
"S. c #A7A9A9",
"D. c #ABACAC",
"F. c #B4B4B4",
"G. c #B8B7B7",
"H. c #B4BABA",
"J. c #BCBCBC",
"K. c #C4C4C4",
"L. c #CCCCCC",
"P. c gray82",
"I. c None",
/* pixels */
"I.I.I.I.I.I.I.I.I.I.I.I.I.I.I.I.I.I.I.I.I.I.I.I.I.I.I.I.I.I.I.I.I.I.I.I.I.I.I.I.I.I.I.I.I.I.I.I.I.I.",
"I.I.I.I.I.I.I.I.I.I.I.I.I.I.I.I.I.I.I.I.I.I.I.I.I.I.I.I.I.I.I.I.I.I.I.I.I.I.I.I.I.I.I.I.I.I.I.I.I.I.",
"I.I.I.I.I.I.I.I.I.I.I.I.I.I.I.I.I.I.I.I.I.I.I.I.I.I.I.I.I.I.I.I.I.I.I.I.I.I.I.I.I.I.I.I.I.I.I.I.I.I.",
"I.I.I.I.I.I.I.I.I.I.I.I.I.I.I.I.I.I.I.I.I.I.I.I.I.I.I.I.I.I.I.I.I.I.I.I.I.I.I.I.I.I.I.I.I.I.I.I.I.I.",
"I.I.I.I.I.I.I.I.I.I.I.I.I.I.I.I.I.I.I.I.I.I.I.I.I.I.I.I.I.I.I.I.I.I.I.I.I.I.I.I.I.I.I.I.I.I.I.I.I.I.",
"I.I.I.I.I.I.I.I.I.I.I.I.I.I.I.I.I.I.I.I.I.I.I.I.I.I.I.I.I.I.I.I.I.I.I.I.I.I.I.I.I.I.I.I.I.I.I.I.I.I.",
"I.I.I.I.I.I.I.I.I.I.I.I.I.I.I.I.I.I.I.I.I.I.D.J.I.I.I.I.I.I.I.I.I.I.I.I.I.I.I.I.I.I.I.I.I.I.I.I.I.I.",
"I.I.I.I.I.I.I.I.I.I.I.I.I.I.I.I.I.I.I.I.I.J.D.A.J.K.K.K.I.I.I.I.I.I.I.I.I.I.I.I.I.I.I.I.I.I.I.I.I.I.",
"I.I.I.I.I.I.I.I.I.I.I.I.I.I.I.I.A.A.G.I.K.K.G.A.G.K.G.F.G.J.I.I.I.I.I.I.I.I.I.I.I.I.I.I.I.I.I.I.I.I.",
"I.I.I.I.I.I.I.I.I.I.I.I.I.I.K.C.J G B.D.A.J.J.G.J.K.K.L.K.G.K.D.D.I.I.I.I.I.I.I.I.I.I.I.I.I.I.I.I.I.",
"I.I.I.I.I.I.I.I.I.I.I.K.K.K.G.A.A p p l J D.K.K.K.D.M.B.K.J.G.B.B.F.I.I.I.I.I.I.I.I.I.I.I.I.I.I.I.I.",
"I.I.I.I.I.I.I.I.I.I.P.K.K.J.G.C.g X   y Z D.K.L.I.C.V V M.B.B.J H D.I.I.I.I.I.I.I.I.I.I.I.I.I.I.I.I.",
"I.I.I.I.I.I.I.I.I.K.K.J.K.K.G.G y X X h n.F.I.I.I.B.l p l h y u l B.J.I.I.I.I.I.I.I.I.I.I.I.I.I.I.I.",
"I.I.I.I.I.I.I.I.G.G.D.C.A.G.G.m.l u V H m.A.G.I.I.Z.V p : * % $ l A.J.G.I.I.I.I.I.I.I.I.I.I.I.I.I.I.",
"I.I.I.I.I.I.I.I.J.J.A.C.A.G.K.D.m.Z J h : h J I.I.K.N.A a & + 5 n.P.K.C.G.I.I.I.I.I.I.I.I.I.I.I.I.I.",
"I.I.I.I.I.I.I.K.S.D.J.G.J.K.A.C v c f 3 % X h n.D.K.B.l p $ P 6 n.A.D.C.C.I.I.I.I.I.I.I.I.I.I.I.I.I.",
"I.I.I.I.I.I.F.A.B.C.J.L.G.M.m P Q W 0 ( E = 1 k B.B.z 4 4 * & ; l m.n.n.C.I.I.I.I.I.I.I.I.I.I.I.I.I.",
"I.I.I.I.I.I.A.D.C.A.G.K.B.u 8 +.,.>.3.3.' ` L n C.V 5 ) E 3 . p n.n.V A A.I.I.I.I.I.I.I.I.I.I.I.I.I.",
"I.I.I.I.I.D.A.D.A.F.J.L.D.Z 8 +.>.,.9.y.3.=._ q l l 2 P P z H n.D.J g m B.I.I.I.I.I.I.I.I.I.I.I.I.I.",
"I.I.I.I.I.A.B.M.C.F.J.I.I.A.j 7 | { %.9.1.( 7 # . y l 1 $ j S.G.G.J h k B.I.I.I.I.I.I.I.I.I.I.I.I.I.",
"I.I.I.I.I.C.B.V.C.K.K.I.K.D.H G b.k 9 +.+.T 8 $ - > G Z G B.D.K.K.V.G G n.G.I.I.I.I.I.I.I.I.I.I.I.I.",
"I.I.I.I.C.n.V.C.M.D.G.I.L.K.D.C.A B b &.y.0.$.5 4 W 0 , j V.D.G.G.F.D.D.C.I.I.I.I.I.I.I.I.I.I.I.I.I.",
"I.I.I.I.C.M.j.G H C.K.L.K.J.n.k y ; [ u.x.z.i.] ` >.@.+ - A V.A.F.F.F.F.J.I.I.I.I.I.I.I.I.I.I.I.I.I.",
"I.I.I.I.I.A.M.H n.D.G.D.C.n.: # : 1 I u.c.v.d.8.>.;.^ O 1 G B.n.B.B.b.B.K.I.I.I.I.I.I.I.I.I.I.I.I.I.",
"I.I.I.I.I.I.D.D.D.J.A.G V n $ & $ - T t.z.x.w.@.#.I + P = l G k n 2 1 C C.I.I.I.I.I.I.I.I.I.I.I.I.I.",
"I.I.I.I.I.I.I.I.D.A.C.V * 8 3 - p l r 6.d.k.7.+ I c 2 6 = [ 0 = I E 7 ; A K.I.I.I.I.I.I.I.I.I.I.I.I.",
"I.I.I.I.I.I.I.C.J J V.n O ! ) 2 G D.H | t.s.t.U s V.N.z Y 2.1.O.E 9 * l C.K.I.I.I.I.I.I.I.I.I.I.I.I.",
"I.I.I.I.I.I.I.A p m m.e Y o.` 6 h m q E *.p.i.` c F.Z. .8.s.r.o.2 n.G n.D.J.I.I.I.I.I.I.I.I.I.I.I.I.",
"I.I.I.I.I.I.H u . p b.v _ ) 7 < A 1 T o.#.i.p.` e n.D ` 9.a.q.T : V J G B.J.I.I.I.I.I.I.I.I.I.I.I.I.",
"I.I.I.I.I.I.n.p X d F v ) ` 4 a Z.J 7 ) / t.f.e.T 6 6 W O.-.-.W 3 X l n.D.I.I.I.I.I.I.I.I.I.I.I.I.I.",
"I.I.I.I.I.I.I.G V A Z e W o.) 1 M V $ 4 P 5.k.s.%.I 3 v h.X./ ! I f G S.G.I.I.I.I.I.I.I.I.I.I.I.I.I.",
"I.I.I.I.I.I.I.J.D.G h > { o.o._ + # g f ) q.d.i.%.@ - J H.S Y o.{ G V.A.I.I.I.I.I.I.I.I.I.I.I.I.I.I.",
"I.I.I.I.I.I.I.I.F.n.S l w ) ` E 7 m b.j L -.4.<.8 s V G C t Q O.U c N.A.I.I.I.I.I.I.I.I.I.I.I.I.I.I.",
"I.I.I.I.I.I.I.I.A.C.B.A > 7 O * y G G Z M g...+ s G Z u # 4 _ O.` 5 G I.I.I.I.I.I.I.I.I.I.I.I.I.I.I.",
"I.I.I.I.I.I.I.I.J.A.B.A h y # X u h o V D.G.S.l u B V h j u 7 ' _ 4 G I.I.I.I.I.I.I.I.I.I.I.I.I.I.I.",
"I.I.I.I.I.I.I.I.I.D.A.B.n.Z k o X -   p D.L.A.B o A m.C.S.F ; P U 5 j.I.I.I.I.I.I.I.I.I.I.I.I.I.I.I.",
"I.I.I.I.I.I.I.I.I.I.K.A.M.C j A m $   . V m.l o   l B.K.J.F.F * 4 $ b.I.I.I.I.I.I.I.I.I.I.I.I.I.I.I.",
"I.I.I.I.I.I.I.I.I.I.I.D.N.n.J A V y o h p y X #   u n.m.M.B.b.l - - A I.I.I.I.I.I.I.I.I.I.I.I.I.I.I.",
"I.I.I.I.I.I.I.I.I.I.I.I.G.G.A.G l k A B.G V d : o o h d l m J b.p : A I.I.I.I.I.I.I.I.I.I.I.I.I.I.I.",
"I.I.I.I.I.I.I.I.I.I.I.I.I.I.I.A.M.M.C.K.G.S.G H b.F l i p A J G k h n.I.I.I.I.I.I.I.I.I.I.I.I.I.I.I.",
"I.I.I.I.I.I.I.I.I.I.I.I.I.I.I.I.I.I.I.I.I.F.J M.D.J.B.l l M.A.J m V A.I.I.I.I.I.I.I.I.I.I.I.I.I.I.I.",
"I.I.I.I.I.I.I.I.I.I.I.I.I.I.I.I.I.I.I.I.I.F.M.M.D.G.C.G S n.D.A.n.m.I.I.I.I.I.I.I.I.I.I.I.I.I.I.I.I.",
"I.I.I.I.I.I.I.I.I.I.I.I.I.I.I.I.I.I.I.I.I.I.A.A.K.L.F.M.J A.I.I.I.I.I.I.I.I.I.I.I.I.I.I.I.I.I.I.I.I.",
"I.I.I.I.I.I.I.I.I.I.I.I.I.I.I.I.I.I.I.I.I.I.I.I.I.I.I.I.I.I.I.I.I.I.I.I.I.I.I.I.I.I.I.I.I.I.I.I.I.I.",
"I.I.I.I.I.I.I.I.I.I.I.I.I.I.I.I.I.I.I.I.I.I.I.I.I.I.I.I.I.I.I.I.I.I.I.I.I.I.I.I.I.I.I.I.I.I.I.I.I.I.",
"I.I.I.I.I.I.I.I.I.I.I.I.I.I.I.I.I.I.I.I.I.I.I.I.I.I.I.I.I.I.I.I.I.I.I.I.I.I.I.I.I.I.I.I.I.I.I.I.I.I.",
"I.I.I.I.I.I.I.I.I.I.I.I.I.I.I.I.I.I.I.I.I.I.I.I.I.I.I.I.I.I.I.I.I.I.I.I.I.I.I.I.I.I.I.I.I.I.I.I.I.I.",
"I.I.I.I.I.I.I.I.I.I.I.I.I.I.I.I.I.I.I.I.I.I.I.I.I.I.I.I.I.I.I.I.I.I.I.I.I.I.I.I.I.I.I.I.I.I.I.I.I.I.",
"I.I.I.I.I.I.I.I.I.I.I.I.I.I.I.I.I.I.I.I.I.I.I.I.I.I.I.I.I.I.I.I.I.I.I.I.I.I.I.I.I.I.I.I.I.I.I.I.I.I.",
"I.I.I.I.I.I.I.I.I.I.I.I.I.I.I.I.I.I.I.I.I.I.I.I.I.I.I.I.I.I.I.I.I.I.I.I.I.I.I.I.I.I.I.I.I.I.I.I.I.I."
};