/* XPM */
static char *result[] = {
/* columns rows colors chars-per-pixel */
"50 50 164 2 ",
"   c #372E2E",
".  c #3D2D2D",
"X  c #363131",
"o  c #3B3434",
"O  c #3D3C3C",
"+  c #6F1E1E",
"@  c #761E1E",
"#  c #7E1F1F",
"$  c #7D1F20",
"%  c #462D2D",
"&  c #4B2C2C",
"*  c #562727",
"=  c #5C2626",
"-  c #522C2C",
";  c #5B2B2B",
":  c #433434",
">  c #4B3333",
",  c #443C3C",
"<  c #4C3C3C",
"1  c #543232",
"2  c #593737",
"3  c #523D3D",
"4  c #5D3C3C",
"5  c #642525",
"6  c #6C2424",
"7  c #642E2E",
"8  c #6A2A2B",
"9  c #732222",
"0  c #7D2221",
"q  c #712929",
"w  c #7A2B2B",
"e  c #722F30",
"r  c #633434",
"t  c #6A3232",
"y  c #6A3B3C",
"u  c #723D3D",
"i  c #5A3F40",
"p  c #3F4040",
"a  c #454444",
"s  c #4B4343",
"d  c #474A4B",
"f  c #4C4C4C",
"g  c #514444",
"h  c #534D4D",
"j  c #5A4B4B",
"k  c #4F5050",
"l  c #535454",
"z  c #5D5656",
"x  c #555B5B",
"c  c #5B5B5B",
"v  c #6E4646",
"b  c #634F4F",
"n  c #684848",
"m  c #644444",
"M  c #784A4B",
"N  c #605757",
"B  c #6B5353",
"V  c #625C5C",
"C  c #7A5052",
"Z  c #705D5D",
"A  c #5E6060",
"S  c #636363",
"D  c #666969",
"F  c #6C6C6C",
"G  c #6C6464",
"H  c #6C7272",
"J  c #737474",
"K  c #777979",
"L  c #7B7C7C",
"P  c #8C1718",
"I  c #841D1D",
"U  c #8B1B1B",
"Y  c #971616",
"T  c #9D1516",
"R  c #941518",
"E  c #9B1718",
"W  c #931A1A",
"Q  c #9B1919",
"!  c #B60E0E",
"~  c #BE0F0E",
"^  c #BF100E",
"/  c #A41415",
"(  c #AC1313",
")  c #A01818",
"_  c #AC1B14",
"`  c #B41211",
"'  c #BA1210",
"]  c #B21A15",
"[  c #BD1912",
"{  c #BA2011",
"}  c #9A1E20",
"|  c #822222",
" . c #8B2224",
".. c #932324",
"X. c #8C3E3F",
"o. c #C20E0E",
"O. c #CB0C0C",
"+. c #DD0707",
"@. c #DB0907",
"#. c #D80708",
"$. c #D30A09",
"%. c #DA0909",
"&. c #C9140C",
"*. c #C4130D",
"=. c #DF1405",
"-. c #D3140A",
";. c #DB1709",
":. c #E50606",
">. c #EC0404",
",. c #E30C06",
"<. c #F50702",
"1. c #F80701",
"2. c #E31006",
"3. c #EB1004",
"4. c #E21806",
"5. c #EB1D04",
"6. c #F41203",
"7. c #FB1500",
"8. c #F41B02",
"9. c #FC1A01",
"0. c #C2250E",
"q. c #E72406",
"w. c #EB2604",
"e. c #EB2A04",
"r. c #F42501",
"t. c #FD2300",
"y. c #F62C02",
"u. c #FC2A00",
"i. c #E53606",
"p. c #EC3204",
"a. c #F43603",
"s. c #FD3000",
"d. c #FF3D00",
"f. c #F54601",
"g. c #FF4700",
"h. c #FE4F00",
"j. c #FD5200",
"k. c #F35802",
"l. c #FE5A00",
"z. c #FF6000",
"x. c #FC6B01",
"c. c #FF7400",
"v. c #F97C01",
"b. c #867374",
"n. c #FF8300",
"m. c #FF8A00",
"M. c #FF9000",
"N. c #FFA400",
"B. c #FFC400",
"V. c #FFDC00",
"C. c #7C8282",
"Z. c #848484",
"A. c #858C8C",
"S. c #8C8C8C",
"D. c #8F9393",
"F. c #939393",
"G. c #9C9C9C",
"H. c #9EA1A1",
"J. c #A3A3A3",
"K. c #A3A9A9",
"L. c #ABABAB",
"P. c #B3B3B3",
"I. c #BBBBBB",
"U. c None",
/* pixels */
"U.U.U.U.U.U.U.U.U.U.U.U.U.U.U.U.U.U.U.U.U.U.U.U.U.U.U.U.U.U.U.U.U.U.U.U.U.U.U.U.U.U.U.U.U.U.U.U.U.U.",
"U.U.U.U.U.U.U.U.U.U.U.U.U.U.U.U.U.U.U.U.U.U.U.U.U.U.U.U.U.U.U.U.U.U.U.U.U.U.U.U.U.U.U.U.U.U.U.U.U.U.",
"U.U.U.U.U.U.U.U.U.U.U.U.U.U.U.U.U.U.U.U.U.U.U.U.U.U.U.U.U.U.U.U.U.U.U.U.U.U.U.U.U.U.U.U.U.U.U.U.U.U.",
"U.U.U.U.U.U.U.U.U.U.U.U.U.U.U.U.U.U.U.U.U.U.U.U.U.U.U.U.U.U.U.U.U.U.U.U.U.U.U.U.U.U.U.U.U.U.U.U.U.U.",
"U.U.U.U.U.U.U.U.U.U.U.U.U.U.U.U.U.U.U.U.U.U.U.U.U.U.U.U.U.U.U.U.U.U.U.U.U.U.U.U.U.U.U.U.U.U.U.U.U.U.",
"U.U.U.U.U.U.U.U.U.U.U.U.U.U.U.U.U.U.U.U.U.U.P.L.U.U.U.U.U.U.U.U.U.U.U.U.U.U.U.U.U.U.U.U.U.U.U.U.U.U.",
"U.U.U.U.U.U.U.U.U.U.U.U.U.U.U.U.U.U.U.U.U.L.S.F.P.U.U.U.U.U.U.U.U.U.U.U.U.U.U.U.U.U.U.U.U.U.U.U.U.U.",
"U.U.U.U.U.U.U.U.U.U.U.U.U.U.U.U.U.U.U.U.U.F.L Z.F.L.P.L.P.I.U.U.U.U.U.U.U.U.U.U.U.U.U.U.U.U.U.U.U.U.",
"U.U.U.U.U.U.U.U.U.U.U.U.U.U.U.U.U.U.U.U.I.G.b.L F.J.G.G.G.J.J.I.U.U.U.U.U.U.U.U.U.U.U.U.U.U.U.U.U.U.",
"U.U.U.U.U.U.U.U.U.U.U.U.U.I.P.F.F.F.J.I.P.L.F.Z.G.L.L.J.S.S.S.F.J.U.U.U.U.U.U.U.U.U.U.U.U.U.U.U.U.U.",
"U.U.U.U.U.U.U.U.U.P.L.P.L.J.J.L x z L G.G.P.J.F.G.J.G.G.S.F.S.J J F.U.U.U.U.U.U.U.U.U.U.U.U.U.U.U.U.",
"U.U.U.U.U.U.U.U.I.J.J.L.L.G.G.C.s . , l D H.P.J.G.L D J S.Z.L c c S.P.U.U.U.U.U.U.U.U.U.U.U.U.U.U.U.",
"U.U.U.U.U.U.U.I.J.F.J.L.L.J.L.J : 5 * o x G.L.P.J.c O a V A J k k Z.K.P.U.U.U.U.U.U.U.U.U.U.U.U.U.U.",
"U.U.U.U.U.U.L.J.F.F.F.G.J.J.S.a & 5 % s K J.L.J.G.h   X , > r > O F S.G.I.U.U.U.U.U.U.U.U.U.U.U.U.U.",
"U.U.U.U.U.U.I.J.G.S.L J L S.Z.V , : l F F S.P.P.G.x O . ; 9 I = f K Z.b.F.U.U.U.U.U.U.U.U.U.U.U.U.U.",
"U.U.U.U.U.U.J.F.F.F.K J Z.S.G.S.l d V 3 > s Z.L.P.S.A a - # ( 5 L J.D.H K G.U.U.U.U.U.U.U.U.U.U.U.U.",
"U.U.U.U.U.P.S.L J S.G.F.J.J.K b t > ; W 9 % p F G.G.V i 1 0 ( 8 F L Z.J F U.U.U.U.U.U.U.U.U.U.U.U.U.",
"U.U.U.U.U.J.Z.K D C.G.G.S.S r / $./ Q %.) 0 1 a L G q P P 9 I ; s D F F L U.U.U.U.U.U.U.U.U.U.U.U.U.",
"U.U.U.U.I.S.F.S.L Z.F.S.x = ^ 9.u.8.y.t.$.%.T j H , R O.( @ & , J F d x S.U.U.U.U.U.U.U.U.U.U.U.U.U.",
"U.U.U.U.L.S.A.D.S.G.H.J.L 4 / 6.t.t.h.j.8.1.! r i O 0 ~ / y l J S.l X f F.U.U.U.U.U.U.U.U.U.U.U.U.U.",
"U.U.U.P.G.L F b.G.G.G.P.G.D ; Y ) ) w.d.5.~ $ 9 = o 3 9 = h Z.J.G.l   , F J.U.U.U.U.U.U.U.U.U.U.U.U.",
"U.U.U.J.L J L L G.L.J.P.J.K k S d : Q <.O.E $ 9 ; > A k z K G.P.J.D s f F F.U.U.U.U.U.U.U.U.U.U.U.U.",
"U.U.U.G.J F Z.D J F.H.L.J.G.Z.F a a e e.j.a.[ 5 Q ( | 7 j Z.H.J.J.F.S.Z.S.J.U.U.U.U.U.U.U.U.U.U.U.U.",
"U.U.U.L.L S S z V Z.J.J.J.F.N , & 9 ] x.B.N.j._ 2.9.$.U 1 c Z.G.J.G.F.F.J.P.U.U.U.U.U.U.U.U.U.U.U.U.",
"U.U.U.U.F.J S c J G.G.C.L l 5 + > 6 [ v.V.B.c.u.9.7.o.I 1 D L K C.L A Z.L.J.P.U.U.U.U.U.U.U.U.U.U.U.",
"U.U.U.U.U.F.F.S.G.L.b.k h t I I 7 = *.x.B.N.i.3.,.T ( ( 6 N S 3 t w r z L G.J.U.U.U.U.U.U.U.U.U.U.U.",
"U.U.U.U.U.U.P.L.G.S.K , 9 ( I - : g } f.N.m.0./ W 3 q W | W  .W ^ ! U > S J.L.P.U.U.U.U.U.U.U.U.U.U.",
"U.U.U.U.U.U.L.L S F H 7 ( :.` > l C.j { l.n.p.R m C.D | &.y.t.%.) | * N S.J.J.J.U.U.U.U.U.U.U.U.U.U.",
"U.U.U.U.U.U.Z.a X s z | $.>.o.5 O y 0 ~ q.x.g.! Z K.b.[ j.m.d.^ > x f G Z.G.J.P.U.U.U.U.U.U.U.U.U.U.",
"U.U.U.U.U.F.z : - o k w $.` P y c 6 O.>.8.c.l.` y J y =.l.c.u.# % h x c K J.P.U.U.U.U.U.U.U.U.U.U.U.",
"U.U.U.U.U.S.x : & , l 8 O.' @ h D.B / O.-.x.m.y.P 0 I ~ 4.5.3.E 9 % d J F.L.P.U.U.U.U.U.U.U.U.U.U.U.",
"U.U.U.U.U.P.J l s f f q O.>./ 7 B j 5 I ) k.N.l.$.( | v C ..#.$.I < z S.J.U.U.U.U.U.U.U.U.U.U.U.U.U.",
"U.U.U.U.U.U.J.S.F d o = ( :.:.o.I & s 8 -.j.M.j.O.P 1 K A.u $.%.0 x D Z.L.U.U.U.U.U.U.U.U.U.U.U.U.U.",
"U.U.U.U.U.U.I.J.J f d < U O.o.' | z c t o.r.s.;.$ 2 h l n ..:.:.Q j D L J.U.U.U.U.U.U.U.U.U.U.U.U.U.",
"U.U.U.U.U.U.P.G.J S S d = E | 9 < c k j M X.} P 3 l i % + W $.>.o.8 D F.U.U.U.U.U.U.U.U.U.U.U.U.U.U.",
"U.U.U.U.U.U.U.J.L F V f s 1 5 ; , < % V H.K.Z.3 O p o , 3 1 / %.~ 6 J P.U.U.U.U.U.U.U.U.U.U.U.U.U.U.",
"U.U.U.U.U.U.U.L.F.L H G S f o & ; 5 6 b H.L.Z.< & x D L H s 9 ` / 8 H U.U.U.U.U.U.U.U.U.U.U.U.U.U.U.",
"U.U.U.U.U.U.U.U.L.L.F.J l a p h 2 6 5 > z V , = = h F F.F.L s 9 I = L U.U.U.U.U.U.U.U.U.U.U.U.U.U.U.",
"U.U.U.U.U.U.U.U.U.U.P.Z.D S l d a & > , O % - 6 = a z x c D c < 8 - S U.U.U.U.U.U.U.U.U.U.U.U.U.U.U.",
"U.U.U.U.U.U.U.U.U.U.U.J.F.S.F f a a D Z.D f : & & : : o O O x h & : A U.U.U.U.U.U.U.U.U.U.U.U.U.U.U.",
"U.U.U.U.U.U.U.U.U.U.U.U.U.L.Z.J F D S.G.S.J d c S z s   o x J l X O L U.U.U.U.U.U.U.U.U.U.U.U.U.U.U.",
"U.U.U.U.U.U.U.U.U.U.U.U.U.U.U.U.U.J.J.J.G.J h J F.G.D O a Z.J.F a l G.U.U.U.U.U.U.U.U.U.U.U.U.U.U.U.",
"U.U.U.U.U.U.U.U.U.U.U.U.U.U.U.U.U.U.U.U.J.J G D S.G.K s f L J.Z.H L U.U.U.U.U.U.U.U.U.U.U.U.U.U.U.U.",
"U.U.U.U.U.U.U.U.U.U.U.U.U.U.U.U.U.U.U.U.U.S.S.K F.L.S.F F F.P.P.L.U.U.U.U.U.U.U.U.U.U.U.U.U.U.U.U.U.",
"U.U.U.U.U.U.U.U.U.U.U.U.U.U.U.U.U.U.U.U.U.U.U.J.U.U.U.K.J.U.U.U.U.U.U.U.U.U.U.U.U.U.U.U.U.U.U.U.U.U.",
"U.U.U.U.U.U.U.U.U.U.U.U.U.U.U.U.U.U.U.U.U.U.U.U.U.U.U.U.U.U.U.U.U.U.U.U.U.U.U.U.U.U.U.U.U.U.U.U.U.U.",
"U.U.U.U.U.U.U.U.U.U.U.U.U.U.U.U.U.U.U.U.U.U.U.U.U.U.U.U.U.U.U.U.U.U.U.U.U.U.U.U.U.U.U.U.U.U.U.U.U.U.",
"U.U.U.U.U.U.U.U.U.U.U.U.U.U.U.U.U.U.U.U.U.U.U.U.U.U.U.U.U.U.U.U.U.U.U.U.U.U.U.U.U.U.U.U.U.U.U.U.U.U.",
"U.U.U.U.U.U.U.U.U.U.U.U.U.U.U.U.U.U.U.U.U.U.U.U.U.U.U.U.U.U.U.U.U.U.U.U.U.U.U.U.U.U.U.U.U.U.U.U.U.U.",
"U.U.U.U.U.U.U.U.U.U.U.U.U.U.U.U.U.U.U.U.U.U.U.U.U.U.U.U.U.U.U.U.U.U.U.U.U.U.U.U.U.U.U.U.U.U.U.U.U.U."
};