/* XPM */
static char *result[] = {
/* columns rows colors chars-per-pixel */
"50 50 170 2 ",
"   c #372F2F",
".  c #3D2E2E",
"X  c #363333",
"o  c #3C3333",
"O  c #3D3B3B",
"+  c #7D1F1F",
"@  c #761E21",
"#  c #781F20",
"$  c #442D2D",
"%  c #4C2C2C",
"&  c #552727",
"*  c #5B2727",
"=  c #542B2B",
"-  c #5A2B2B",
";  c #433434",
":  c #4A3333",
">  c #4F3738",
",  c #433C3C",
"<  c #4A3B3B",
"1  c #523232",
"2  c #5B3333",
"3  c #543C3C",
"4  c #642626",
"5  c #6C2424",
"6  c #622629",
"7  c #622C2C",
"8  c #6B2B2B",
"9  c #742222",
"0  c #7B2223",
"q  c #78272A",
"w  c #712B2B",
"e  c #7A2E2F",
"r  c #632F33",
"t  c #7A2E31",
"y  c #633333",
"u  c #6D3232",
"i  c #643638",
"p  c #783030",
"a  c #3B4141",
"s  c #444343",
"d  c #4B4444",
"f  c #474848",
"g  c #4C4B4B",
"h  c #524343",
"j  c #5C4444",
"k  c #534D4E",
"l  c #5B4B4C",
"z  c #4E5050",
"x  c #535454",
"c  c #595656",
"v  c #575959",
"b  c #5B5C5C",
"n  c #604144",
"m  c #614D4D",
"M  c #625050",
"N  c #615F5F",
"B  c #6D5555",
"V  c #5D6161",
"C  c #5F6A6C",
"Z  c #646464",
"A  c #656969",
"S  c #6B6C6C",
"D  c #6F7272",
"F  c #747474",
"G  c #777979",
"H  c #7B7B7B",
"J  c #841E1E",
"K  c #8B1C1C",
"L  c #9D1616",
"P  c #971718",
"I  c #9B1618",
"U  c #941919",
"Y  c #9A1918",
"T  c #BE0E0F",
"R  c #BF150F",
"E  c #BE1B0F",
"W  c #B30F12",
"Q  c #A41515",
"!  c #AB1414",
"~  c #AB1A12",
"^  c #A11718",
"/  c #A31D19",
"(  c #B41111",
")  c #BA1110",
"_  c #B41B12",
"`  c #811E20",
"'  c #9C1E20",
"]  c #832323",
"[  c #892121",
"{  c #862E31",
"}  c #C50D0D",
"|  c #CB0C0C",
" . c #DE0707",
".. c #DD0E06",
"X. c #D40C0A",
"o. c #D90908",
"O. c #C4110E",
"+. c #CD120C",
"@. c #DC1307",
"#. c #D2110B",
"$. c #DB1309",
"%. c #D6180A",
"&. c #DA1A08",
"*. c #E40706",
"=. c #ED0504",
"-. c #E30C05",
";. c #ED0B04",
":. c #F30502",
">. c #F90600",
",. c #F50E01",
"<. c #FA0D01",
"1. c #E31206",
"2. c #EF1303",
"3. c #E11F05",
"4. c #ED1A03",
"5. c #F21203",
"6. c #FC1301",
"7. c #F51B02",
"8. c #FA1C01",
"9. c #C4210C",
"0. c #D1340B",
"q. c #E72505",
"w. c #EA2105",
"e. c #E22B07",
"r. c #EA2A04",
"t. c #E02B08",
"y. c #FE2300",
"u. c #F22F03",
"i. c #FD2D00",
"p. c #E33C06",
"a. c #F43402",
"s. c #FF3300",
"d. c #F23E02",
"f. c #FC3B00",
"g. c #FF4300",
"h. c #FD4C00",
"j. c #ED5204",
"k. c #F75302",
"l. c #FD5201",
"z. c #F35902",
"x. c #FE5C00",
"c. c #F46703",
"v. c #FF6400",
"b. c #F56C02",
"n. c #FF6C00",
"m. c #FE7500",
"M. c #FD7B00",
"N. c #FF8A00",
"B. c #FE9400",
"V. c #FF9C00",
"C. c #FFA600",
"Z. c #FFA800",
"A. c #FFB400",
"S. c #FFBE00",
"D. c #FFC400",
"F. c #FFD100",
"G. c #FFD900",
"H. c #FEE900",
"J. c #FFF300",
"K. c #7E8080",
"L. c #838484",
"P. c #8C8C8C",
"I. c #939393",
"U. c #979898",
"Y. c #9D9D9D",
"T. c #A3A3A3",
"R. c #ABABAB",
"E. c #B2B2B2",
"W. c gray72",
"Q. c None",
/* pixels */
"Q.Q.Q.Q.Q.Q.Q.Q.Q.Q.Q.Q.Q.Q.Q.Q.Q.Q.Q.Q.Q.Q.Q.Q.Q.Q.Q.Q.Q.Q.Q.Q.Q.Q.Q.Q.Q.Q.Q.Q.Q.Q.Q.Q.Q.Q.Q.Q.Q.Q.",
"Q.Q.Q.Q.Q.Q.Q.Q.Q.Q.Q.Q.Q.Q.Q.Q.Q.Q.Q.Q.Q.Q.Q.Q.Q.Q.Q.Q.Q.Q.Q.Q.Q.Q.Q.Q.Q.Q.Q.Q.Q.Q.Q.Q.Q.Q.Q.Q.Q.Q.",
"Q.Q.Q.Q.Q.Q.Q.Q.Q.Q.Q.Q.Q.Q.Q.Q.Q.Q.Q.Q.Q.Q.Q.Q.Q.Q.Q.Q.Q.Q.Q.Q.Q.Q.Q.Q.Q.Q.Q.Q.Q.Q.Q.Q.Q.Q.Q.Q.Q.Q.",
"Q.Q.Q.Q.Q.Q.Q.Q.Q.Q.Q.Q.Q.Q.Q.Q.Q.Q.Q.Q.Q.Q.Q.Q.Q.Q.Q.Q.Q.Q.Q.Q.Q.Q.Q.Q.Q.Q.Q.Q.Q.Q.Q.Q.Q.Q.Q.Q.Q.Q.",
"Q.Q.Q.Q.Q.Q.Q.Q.Q.Q.Q.Q.Q.Q.Q.Q.Q.Q.Q.Q.Q.Q.Q.Q.Q.Q.Q.Q.Q.Q.Q.Q.Q.Q.Q.Q.Q.Q.Q.Q.Q.Q.Q.Q.Q.Q.Q.Q.Q.Q.",
"Q.Q.Q.Q.Q.Q.Q.Q.Q.Q.Q.Q.Q.Q.Q.Q.Q.Q.Q.Q.E.I.L.G L.I.E.Q.Q.Q.Q.Q.Q.Q.Q.Q.Q.Q.Q.Q.Q.Q.Q.Q.Q.Q.Q.Q.Q.Q.",
"Q.Q.Q.Q.Q.Q.Q.Q.Q.Q.Q.Q.Q.Q.Q.Q.Q.Q.Q.Q.P.A d g S G P.T.R.Q.Q.Q.Q.Q.Q.Q.Q.Q.Q.Q.Q.Q.Q.Q.Q.Q.Q.Q.Q.Q.",
"Q.Q.Q.Q.Q.Q.Q.Q.Q.Q.Q.Q.Q.Q.Q.Q.R.Y.P.L.A s X O N F H H F F P.Q.Q.Q.Q.Q.Q.Q.Q.Q.Q.Q.Q.Q.Q.Q.Q.Q.Q.Q.",
"Q.Q.Q.Q.Q.Q.Q.Q.Q.Q.T.R.Q.Q.Q.T.I.L.H A z ; . g G S F Z x x v G R.Q.Q.Q.Q.Q.Q.Q.Q.Q.Q.Q.Q.Q.Q.Q.Q.Q.",
"Q.Q.Q.Q.Q.Q.Q.Q.T.I.P.I.P.P.K.F H H P.K.V , . b K.A b d s f x Z I.Y.T.Q.Q.Q.Q.Q.Q.Q.Q.Q.Q.Q.Q.Q.Q.Q.",
"Q.Q.Q.Q.Q.Q.Q.I.L.L.L.S S Z g , < Z K.L.S z , z A A N k z v s g G H L.Y.Q.Q.Q.Q.Q.Q.Q.Q.Q.Q.Q.Q.Q.Q.",
"Q.Q.Q.Q.Q.Q.P.F A A Z b v g , = 9 y 3 d v Z v z g x x c b b , o g N S L.Q.Q.Q.Q.Q.Q.Q.Q.Q.Q.Q.Q.Q.Q.",
"Q.Q.Q.Q.Q.Y.G b N S S A N N d 9 L P # $ z F A N < & = d g O : & d V Z S Y.Q.Q.Q.Q.Q.Q.Q.Q.Q.Q.Q.Q.Q.",
"Q.Q.Q.Q.Q.T.F x b H K.A A k 1 K ~ Q + < A P.H v - J # 4 5 5 5 5 < b v b G Q.Q.Q.Q.Q.Q.Q.Q.Q.Q.Q.Q.Q.",
"Q.Q.Q.Q.Q.Y.S x k g g s k f - K K 5 : O V L.P.Z - K K 5 P ( Y 9 % ; s g Z Q.Q.Q.Q.Q.Q.Q.Q.Q.Q.Q.Q.Q.",
"Q.Q.Q.Q.Q.L.Z c g X . o s x z 2 = , = 5 7 x A b s - 5 J )  .! n A S s o x T.Q.Q.Q.Q.Q.Q.Q.Q.Q.Q.Q.Q.",
"Q.Q.Q.Q.I.Z , o O g c N F Z k r = 4 W W K = , b H c 1 4 ! :.L h A F O o g Q.Q.Q.Q.Q.Q.Q.Q.Q.Q.Q.Q.Q.",
"Q.Q.Q.H Z d o $ o Z H F c 1 P +.~ L ,.X.K 5 & s Z t ~ ( ) o.I % < d ; g F Q.Q.Q.Q.Q.Q.Q.Q.Q.Q.Q.Q.Q.",
"Q.Q.Y.Z z s s o o g x , 4 ! a.h.u.e.g.5.1.R 8 s - O.<.*.! Q K - ; $ $ Z I.Q.Q.Q.Q.Q.Q.Q.Q.Q.Q.Q.Q.Q.",
"Q.Q.Y.v s g v s c Z c g 9 @.h.n.v.m.M.u.s.7.0 < 6 ( 6.:.K 4 2 g = 9 4 S T.Q.Q.Q.Q.Q.Q.Q.Q.Q.Q.Q.Q.Q.",
"Q.Q.I.g O O s s F P.I.G < Q 5.q.e.x.N.x.i.+.Q P 9 9 X.X.8 O z v * Y K l K.Q.Q.Q.Q.Q.Q.Q.Q.Q.Q.Q.Q.Q.",
"Q.Q.L.f X O O g F H L.Z , & 0 5 9 %.l.r.( ! ( ^ 5 < 5 w > z F A = K K % v Y.Q.Q.Q.Q.Q.Q.Q.Q.Q.Q.Q.Q.",
"Q.Q.S s X g s s x v S H A x f - - 6 q.k.e.) U Q ! w 5 1 g F I.P.Z < : , b I.Q.Q.Q.Q.Q.Q.Q.Q.Q.Q.Q.Q.",
"Q.Q.F O . ; $ . O v G L.L.v 7 K K / c.D.C.x._ %.i.2.| K > g F P.P.Z s Z G L.T.Q.Q.Q.Q.Q.Q.Q.Q.Q.Q.Q.",
"Q.Q.L.g o % $ . c L.Z f h 0 Y J ! 5.V.J.H.Z.z.h.l.7.T ] : O f x v < X A F K.I.T.Q.Q.Q.Q.Q.Q.Q.Q.Q.Q.",
"Q.Q.I.b s ; , , A G , o & } } K J | B.J.G.M.v.x.r.:.*.Q > a , - # + o s c S L.I.R.Q.Q.Q.Q.Q.Q.Q.Q.Q.",
"Q.Q.Q.P.F A Z V v g $ 9 ( } ( P @ | m.G.D.p.1.1.U ) *.} K 0 Q | =.| 5 ; x A F P.Y.Q.Q.Q.Q.Q.Q.Q.Q.Q.",
"Q.Q.Q.T.I.F c d O O 6 O.6.#.0 - h r 0.Z.A.j.} ' j - Y | r.a.6.=.*.R 9 s b F H P.U.R.Q.Q.Q.Q.Q.Q.Q.Q.",
"Q.Q.Q.T.I.Z % 5 - , U ;.s.8.P % 3 w } l.C.M.4.{ D c ~ l.C.M.4.` 4 5 ; x c S L.L.I.E.Q.Q.Q.Q.Q.Q.Q.Q.",
"Q.Q.Q.R.G < + P 0 % L >.5...` 1 K ..,.i.B.M.%.q C n q.C.F.M.E 5 < ; . a Z G H G U.Q.Q.Q.Q.Q.Q.Q.Q.Q.",
"Q.Q.Q.I.V % + K 0 % K ,.-.! u Z t *.6.f.B.V.d.^ 8 ` 7.x.M.f.! K 0 * ; c K.L.K.L.Y.Q.Q.Q.Q.Q.Q.Q.Q.Q.",
"Q.Q.E.F A , & 5 & o K 6.y.#.q B j ! X.O.b.D.M.&. .} Y / %.6.*.) J & c P.I.L.I.I.R.Q.Q.Q.Q.Q.Q.Q.Q.Q.",
"Q.Q.T.L.H Z k < % 4 Y *.y.y...( [ 5 J @.m.D.B.y.:.Q j C t -.6.) = . g F P.I.Y.Y.R.Q.Q.Q.Q.Q.Q.Q.Q.Q.",
"Q.Q.W.Y.I.K.S g $ 4 0 Q 6.y.6.X.0 $ 9 8.v.N.l.O.^ 6 d M ] 7.y.X.r X a Z I.Q.Q.Q.Q.Q.Q.Q.Q.Q.Q.Q.Q.Q.",
"Q.Q.Q.E.I.L.A , X ; % K *.X.} Y $ $ 5 Q 9.3.-.K % = ` Q } 8.i.;.U , z F R.Q.Q.Q.Q.Q.Q.Q.Q.Q.Q.Q.Q.Q.",
"Q.Q.Q.W.Y.P.G s O o & J ! T ! 5 4 + 1 k k i J 4 % 9 U U Y 1.y.<.! j F P.Q.Q.Q.Q.Q.Q.Q.Q.Q.Q.Q.Q.Q.Q.",
"Q.Q.Q.Q.T.I.F x a o , : = K Q J J Q 8 V S b 7 0 1 1 % ; 5 T :.:.L l K.Y.Q.Q.Q.Q.Q.Q.Q.Q.Q.Q.Q.Q.Q.Q.",
"Q.Q.Q.Q.Q.I.G A Z x O . - 5 5 J ! ( 0 d v 2 K P > O x z 3 0 T o.L m P.T.Q.Q.Q.Q.Q.Q.Q.Q.Q.Q.Q.Q.Q.Q.",
"Q.Q.Q.Q.Q.Q.Y.I.P.S f o * & $ % P Y K 4 4 K ! Q 4 o < < g ; 0 ! P 3 G E.Q.Q.Q.Q.Q.Q.Q.Q.Q.Q.Q.Q.Q.Q.",
"Q.Q.Q.Q.Q.Q.Q.Q.Y.I.H z d : * 5 + y 3 = * 0 Q Y 9 6 5 4 * % 1 K K $ S R.Q.Q.Q.Q.Q.Q.Q.Q.Q.Q.Q.Q.Q.Q.",
"Q.Q.Q.Q.Q.Q.Q.Q.Q.Q.Q.L.Z s : * & d Z b , = 4 2 - 9 + 9 = : * 9 4 d L.Q.Q.Q.Q.Q.Q.Q.Q.Q.Q.Q.Q.Q.Q.Q.",
"Q.Q.Q.Q.Q.Q.Q.Q.Q.Q.Q.Q.P.S A b x b K.K.d % ; x Z < + 9 ; g : % $ b Y.Q.Q.Q.Q.Q.Q.Q.Q.Q.Q.Q.Q.Q.Q.Q.",
"Q.Q.Q.Q.Q.Q.Q.Q.Q.Q.Q.Q.Q.I.I.U.L.L.L.A , . o g S d & = , Z v O O G R.Q.Q.Q.Q.Q.Q.Q.Q.Q.Q.Q.Q.Q.Q.Q.",
"Q.Q.Q.Q.Q.Q.Q.Q.Q.Q.Q.Q.Q.Q.R.R.T.Y.L.Z x O O g S g o O c G F b b Y.Q.Q.Q.Q.Q.Q.Q.Q.Q.Q.Q.Q.Q.Q.Q.Q.",
"Q.Q.Q.Q.Q.Q.Q.Q.Q.Q.Q.Q.Q.Q.Q.Q.W.W.U.H K.S A F P.Z d x G L.L.L.P.Q.Q.Q.Q.Q.Q.Q.Q.Q.Q.Q.Q.Q.Q.Q.Q.Q.",
"Q.Q.Q.Q.Q.Q.Q.Q.Q.Q.Q.Q.Q.Q.Q.Q.Q.Q.Q.T.Y.Y.I.Y.Q.Y.G H Y.R.R.Q.Q.Q.Q.Q.Q.Q.Q.Q.Q.Q.Q.Q.Q.Q.Q.Q.Q.Q.",
"Q.Q.Q.Q.Q.Q.Q.Q.Q.Q.Q.Q.Q.Q.Q.Q.Q.Q.Q.Q.Q.Q.Q.Q.Q.Q.Q.Q.Q.Q.Q.Q.Q.Q.Q.Q.Q.Q.Q.Q.Q.Q.Q.Q.Q.Q.Q.Q.Q.Q.",
"Q.Q.Q.Q.Q.Q.Q.Q.Q.Q.Q.Q.Q.Q.Q.Q.Q.Q.Q.Q.Q.Q.Q.Q.Q.Q.Q.Q.Q.Q.Q.Q.Q.Q.Q.Q.Q.Q.Q.Q.Q.Q.Q.Q.Q.Q.Q.Q.Q.Q.",
"Q.Q.Q.Q.Q.Q.Q.Q.Q.Q.Q.Q.Q.Q.Q.Q.Q.Q.Q.Q.Q.Q.Q.Q.Q.Q.Q.Q.Q.Q.Q.Q.Q.Q.Q.Q.Q.Q.Q.Q.Q.Q.Q.Q.Q.Q.Q.Q.Q.Q.",
"Q.Q.Q.Q.Q.Q.Q.Q.Q.Q.Q.Q.Q.Q.Q.Q.Q.Q.Q.Q.Q.Q.Q.Q.Q.Q.Q.Q.Q.Q.Q.Q.Q.Q.Q.Q.Q.Q.Q.Q.Q.Q.Q.Q.Q.Q.Q.Q.Q.Q."
};