/* XPM */
static char *result[] = {
/* columns rows colors chars-per-pixel */
"50 50 163 2 ",
"   c #3D2F2F",
".  c #373636",
"X  c #3C3434",
"o  c #373939",
"O  c #3D3C3C",
"+  c #7D1E1F",
"@  c #741D22",
"#  c #7E1E20",
"$  c #442E2E",
"%  c #4D2C2C",
"&  c #5C2727",
"*  c #5C2629",
"=  c #532B2B",
"-  c #5B2929",
";  c #452F32",
":  c #443333",
">  c #4C3333",
",  c #423C3C",
"<  c #4A3C3C",
"1  c #543333",
"2  c #5B3333",
"3  c #503B3B",
"4  c #593B3B",
"5  c #642525",
"6  c #6B2424",
"7  c #622728",
"8  c #622B2B",
"9  c #6A2A2B",
"0  c #732222",
"q  c #7B2121",
"w  c #712C2C",
"e  c #7F2E2E",
"r  c #622E30",
"t  c #643033",
"y  c #6B3031",
"u  c #3E4242",
"i  c #444343",
"p  c #4A4545",
"a  c #44494A",
"s  c #4B4B4B",
"d  c #504344",
"f  c #514C4C",
"g  c #5B4F4F",
"h  c #4F5151",
"j  c #545353",
"k  c #5A5757",
"l  c #565858",
"z  c #5B5B5B",
"x  c #5E6060",
"c  c #646565",
"v  c #666969",
"b  c #6C6C6C",
"n  c #6F7171",
"m  c #737373",
"M  c #7B7B7B",
"N  c #841D1E",
"B  c #8C1C1C",
"V  c #9D1717",
"C  c #971917",
"Z  c #94171A",
"A  c #9B1719",
"S  c #931A1A",
"D  c #9B1819",
"F  c #BD0F0F",
"G  c #AE0F13",
"H  c #B70F11",
"J  c #BA0F10",
"K  c #A41516",
"L  c #AB1414",
"P  c #A51816",
"I  c #A91D15",
"U  c #B31212",
"Y  c #BB1110",
"T  c #B61A11",
"R  c #B22214",
"E  c #851F21",
"W  c #812222",
"Q  c #892021",
"!  c #C30E0E",
"~  c #CB0C0C",
"^  c #DE0707",
"/  c #DD0B07",
"(  c #DD0708",
")  c #D40B0A",
"_  c #DA0A08",
"`  c #C4120E",
"'  c #CB130C",
"]  c #CB1F0C",
"[  c #DD1207",
"{  c #D1130B",
"}  c #DA1208",
"|  c #DB1D08",
" . c #E40606",
".. c #E80505",
"X. c #E50B06",
"o. c #EB0A05",
"O. c #F30502",
"+. c #F90601",
"@. c #F40C02",
"#. c #FD0C00",
"$. c #E41206",
"%. c #EB1204",
"&. c #E11B07",
"*. c #EB1F05",
"=. c #F41302",
"-. c #FB1601",
";. c #F31D03",
":. c #FA1C01",
">. c #CF2C0B",
",. c #D22A0A",
"<. c #DB2D09",
"1. c #CD380C",
"2. c #DF3806",
"3. c #DD3108",
"4. c #E62106",
"5. c #F52302",
"6. c #FC2400",
"7. c #F02A03",
"8. c #FA2A01",
"9. c #E63406",
"0. c #ED3304",
"q. c #E43C06",
"w. c #EA3A04",
"e. c #F43203",
"r. c #FF3500",
"t. c #FC3C01",
"y. c #F54402",
"u. c #F34C03",
"i. c #FD4D00",
"p. c #FD5500",
"a. c #FF5900",
"s. c #EC6A05",
"d. c #FE6300",
"f. c #FE6D00",
"g. c #F77602",
"h. c #FE7500",
"j. c #FE7E00",
"k. c #FE8500",
"l. c #FE8C00",
"z. c #FF9400",
"x. c #FF9F00",
"c. c #FFA400",
"v. c #FEAA00",
"b. c #FFB400",
"n. c #FFBF00",
"m. c #FFC200",
"M. c #FFCE00",
"N. c #FFD502",
"B. c #FFDE00",
"V. c #FFE500",
"C. c #FFEB00",
"Z. c #FFF901",
"A. c #FFF709",
"S. c #FEFD0C",
"D. c #7F8080",
"F. c #848484",
"G. c #8C8C8C",
"H. c #939393",
"J. c #9B9B9B",
"K. c #A3A3A3",
"L. c #A9A9A9",
"P. c #B5B5B5",
"I. c None",
/* pixels */
"I.I.I.I.I.I.I.I.I.I.I.I.I.I.I.I.I.I.I.I.I.I.I.I.I.I.I.I.I.I.I.I.I.I.I.I.I.I.I.I.I.I.I.I.I.I.I.I.I.I.",
"I.I.I.I.I.I.I.I.I.I.I.I.I.I.I.I.I.I.I.I.I.I.I.I.I.I.I.I.I.I.I.I.I.I.I.I.I.I.I.I.I.I.I.I.I.I.I.I.I.I.",
"I.I.I.I.I.I.I.I.I.I.I.I.I.I.I.I.I.I.I.I.I.I.I.I.I.I.I.I.I.I.I.I.I.I.I.I.I.I.I.I.I.I.I.I.I.I.I.I.I.I.",
"I.I.I.I.I.I.I.I.I.I.I.I.I.I.I.I.I.I.I.I.I.I.I.I.I.I.I.I.I.I.I.I.I.I.I.I.I.I.I.I.I.I.I.I.I.I.I.I.I.I.",
"I.I.I.I.I.I.I.I.I.I.I.I.I.I.I.I.I.I.I.I.I.I.I.I.I.I.K.G.G.I.I.I.I.I.I.I.I.I.I.I.I.I.I.I.I.I.I.I.I.I.",
"I.I.I.I.I.I.I.I.I.I.I.I.I.I.I.I.I.I.I.I.I.I.I.P.G.v l j s v b F.K.I.I.I.I.I.I.I.I.I.I.I.I.I.I.I.I.I.",
"I.I.I.I.I.I.I.I.I.I.I.I.I.I.I.I.I.I.I.I.I.P.J.G.b O   $ $ O p c M F.G.I.I.I.I.I.I.I.I.I.I.I.I.I.I.I.",
"I.I.I.I.I.I.I.I.I.I.I.I.I.I.I.I.P.P.K.F.m m v z p = 0 6 $ , s s k j j v J.I.I.I.I.I.I.I.I.I.I.I.I.I.",
"I.I.I.I.I.I.I.I.I.I.I.I.I.H.H.H.G.H.H.v j s u o $ 6 B 7 s h l s O   X p b G.L.I.I.I.I.I.I.I.I.I.I.I.",
"I.I.I.I.I.I.I.I.I.I.I.I.F.m b c b v b f p h h h , 5 q 2 l p O X $ $ = : z b M F.I.I.I.I.I.I.I.I.I.I.",
"I.I.I.I.I.I.I.I.I.I.H.M v l z s p i > = - u j z s X & % u o o   : O = % j l j c G.I.I.I.I.I.I.I.I.I.",
"I.I.I.I.I.I.I.I.I.G.v p , i a , . : & N C N 6 % O O X X : : : : X O & 6 % X u k F.I.I.I.I.I.I.I.I.I.",
"I.I.I.I.I.I.I.I.I.M k . . p a a X . > C ~ ~ U q : i i O = N N 1 > = 0 B 7 X . s b J.I.I.I.I.I.I.I.I.",
"I.I.I.I.I.I.I.I.H.M j   . p h i p X 6 Y  . .U 6 u c x p 5 Y Y B B N S K w < X O p v K.I.I.I.I.I.I.I.",
"I.I.I.I.I.I.I.K.F.m s X X : = & > > + L ! K 6 = < z v j 6 Y ! K Y _ ! L N 6 = X i c I.I.I.I.I.I.I.I.",
"I.I.I.I.I.I.I.G.F.n , X : & 0 6 = X < 8 N - 6 K N > i O 1 q S V _ +._ 9 , f > $ s G.I.I.I.I.I.I.I.I.",
"I.I.I.I.I.I.I.m b f = 5 & 1 > < s p p 9 6 N / o.U 0 = < x d - 6 ` -.{ - i h > 6 3 F.I.I.I.I.I.I.I.I.",
"I.I.I.I.I.I.J.l u $ 6 + 6 , l j < 2 L [ ` L 8.5.L B C 8 f e ` ) / @._ # 5 = 5 9 < m I.I.I.I.I.I.I.I.",
"I.I.I.I.I.I.M s   = - q q % < > q U t.f.u.9.d.t.;.$.D > 6 ' r.-.) ~ ! q 6 N # > c F.I.I.I.I.I.I.I.I.",
"I.I.I.I.I.I.b , = % X & 1 p O > W %.f.l.l.z.c.p.p.t.P 7 B ` r.6.U N + X 0 L C < m G.J.I.I.I.I.I.I.I.",
"I.I.I.I.I.I.c : 6 6 % = j m c s > U 8.e.q.h.c.k.p.*.~ ~ L S $.#.D $ = : N ) ` - l D.G.J.I.I.I.I.I.I.",
"I.I.I.I.I.G.j = + 5 & = s x k O   + D 0 Z | d.u.` ! ) ) K 6 B V 0 : i O q ! ~ B < n M G.L.I.I.I.I.I.",
"I.I.I.I.I.H.j & 0 > = 5 > O , j a , > 0 B @ 3.d.w.[ U ~ ` S E 6 : p l v g 7 + 6 < v n D.G.I.I.I.I.I.",
"I.I.I.I.I.I.l > 6 0 0 q = X a z l f N Y U I s.N.M.k.,.3.a.r.@.~ S - f b m s   , k b v b M H.I.I.I.I.",
"I.I.I.I.I.I.n : 6 + + 0 4 c s > = S ! J ( :.z.S.S.B.l.j.k.i.o.Y 0 * % , < 7 5 p j z c c m G.I.I.I.I.",
"I.I.I.I.I.K.m s = 5 7 % p c 2 5 q ..+.~ U $.l.S.A.z.k.l.y.6.-.} 6 $ 5 q C K 0 = O i l m b G.I.I.I.I.",
"I.I.I.I.I.J.D.c j < u i X > q V ` O.) ! B { j.C.C.u.*.e.U ' -.@.H E U / :.=.L 5 : O f m v D.I.I.I.I.",
"I.I.I.I.I.J.G.M b s : = & = + [ r.8.L # ; 9 1.b.V.g.X.Y 1 5 Y %.y.p.8.+.=.X.A = i i i k x m K.I.I.I.",
"I.I.I.I.I.I.J.F.v s 6 A N % V :.d.i.! @ r q ' p.n.b.r.K i , R h.M.v.8.G N S 7 X . O s s l M J.I.I.I.",
"I.I.I.I.I.I.H.F.x > C ! H 9 L :.r.;.U 7 K %.r.t.v.b.8.H , t 2.n.Z.v.,.B - 7 q = i s p s m G.J.I.I.I.",
"I.I.I.I.I.J.m m s & K ! H @ D 5.6./ Q a q =.t.i.v.M.d.' B L 6.j.c.f.` U L B 0 < s j s l D.G.H.I.I.I.",
"I.I.I.I.I.G.k < i = N K B 5 K 6.a.5.A y 0 _ o.~ g.V.v.0.=.o.Y R <.6.-.X.U B < z c j k v M F.K.I.I.I.",
"I.I.I.I.I.H.j < l p > - q S Y %.i.a.7.$.Y K K [ k.V.n.p.6.) r a r X.t.&.+ 0 > s k c n M M G.I.I.I.I.",
"I.I.I.I.I.G.v c b l s < 6 D K Y 6.i.t.:.L 6 Z 8.k.b.j.| ~ B = 1 q 7.p.:.Z 5 = , b m G.G.F.H.I.I.I.I.",
"I.I.I.I.I.I.G.F.M m s $ & - q U @.@.[ Y q q N T ,.9.5.H 5 q K ! ..r.d.r.' 6 : s n D.J.I.I.I.I.I.I.I.",
"I.I.I.I.I.I.I.H.M m l > - = + L )  . .L C U q : ; * K S 6 A ! ! H *.p.r._ y s s x F.I.I.I.I.I.I.I.I.",
"I.I.I.I.I.I.I.I.F.b k : & 5 - 5 + L _ ` L ~ S O u u 0 K 0 q q * E ~ 6.6._ 9 j x v H.I.I.I.I.I.I.I.I.",
"I.I.I.I.I.I.I.I.H.m x i , : = 6 Q D V C ! ^ K = , 9 J ! 6 % : X 2 A  .+.) w z x M I.I.I.I.I.I.I.I.I.",
"I.I.I.I.I.I.I.I.I.J.F.x x p ; 6 N B 0 6 L ! L A # U  ._ B = * - > 0 D ~ ! 0 l m F.I.I.I.I.I.I.I.I.I.",
"I.I.I.I.I.I.I.I.I.I.I.M M M j > $ & B K L + & 6 N K ) ~ K N D C S E q U U @ f m M H.I.I.I.I.I.I.I.I.",
"I.I.I.I.I.I.I.I.I.I.I.I.K.K.M c i $ 6 B S 5 u p > q D N + S L K B q S L A 5 j b M H.I.I.I.I.I.I.I.I.",
"I.I.I.I.I.I.I.I.I.I.I.I.I.I.I.G.c s p 2 1 : k v 4 + 0 $ O t V P 0 : 5 B 0 > x b m H.I.I.I.I.I.I.I.I.",
"I.I.I.I.I.I.I.I.I.I.I.I.I.I.I.I.F.m b c l l z p = + q % o 2 S N 5 O < = % s v M G.G.I.I.I.I.I.I.I.I.",
"I.I.I.I.I.I.I.I.I.I.I.I.I.I.I.I.I.K.F.M m b c O $ % & % u - + 5 $ s z , : v F.G.J.I.I.I.I.I.I.I.I.I.",
"I.I.I.I.I.I.I.I.I.I.I.I.I.I.I.I.I.I.I.H.D.m c h l k p p z 3 & : p v c k l D.J.K.I.I.I.I.I.I.I.I.I.I.",
"I.I.I.I.I.I.I.I.I.I.I.I.I.I.I.I.I.I.I.I.K.G.G.m c b m n M z i s n M m M H.I.I.I.I.I.I.I.I.I.I.I.I.I.",
"I.I.I.I.I.I.I.I.I.I.I.I.I.I.I.I.I.I.I.I.I.I.L.M v M F.H.H.G.M n F.G.H.J.I.I.I.I.I.I.I.I.I.I.I.I.I.I.",
"I.I.I.I.I.I.I.I.I.I.I.I.I.I.I.I.I.I.I.I.I.I.I.K.M F.K.I.I.I.I.I.I.K.I.I.I.I.I.I.I.I.I.I.I.I.I.I.I.I.",
"I.I.I.I.I.I.I.I.I.I.I.I.I.I.I.I.I.I.I.I.I.I.I.I.I.I.I.I.I.I.I.I.I.I.I.I.I.I.I.I.I.I.I.I.I.I.I.I.I.I.",
"I.I.I.I.I.I.I.I.I.I.I.I.I.I.I.I.I.I.I.I.I.I.I.I.I.I.I.I.I.I.I.I.I.I.I.I.I.I.I.I.I.I.I.I.I.I.I.I.I.I."
};