/* XPM */
static char *result[] = {
/* columns rows colors chars-per-pixel */
"50 50 175 2 ",
"   c #3F2F2F",
".  c #3D2D30",
"X  c #373535",
"o  c #3C3333",
"O  c #3D3B3B",
"+  c #7E1F1F",
"@  c #761F22",
"#  c #781F21",
"$  c #46272E",
"%  c #442E2E",
"&  c #4C2D2D",
"*  c #552727",
"=  c #5D2727",
"-  c #5D2728",
";  c #542A2A",
":  c #5B2929",
">  c #433434",
",  c #4C3232",
"<  c #433B3B",
"1  c #4A3B3B",
"2  c #543333",
"3  c #593232",
"4  c #523939",
"5  c #642626",
"6  c #6C2424",
"7  c #612729",
"8  c #632B2B",
"9  c #6B2929",
"0  c #732222",
"q  c #7A2021",
"w  c #454444",
"e  c #4B4444",
"r  c #464949",
"t  c #4B4B4B",
"y  c #504040",
"u  c #534D4D",
"i  c #4F5050",
"p  c #535353",
"a  c #565959",
"s  c #5B5B5B",
"d  c #5B5353",
"f  c #615F5F",
"g  c #636363",
"h  c #666969",
"j  c #6C6C6C",
"k  c #6F7070",
"l  c #747474",
"z  c #777878",
"x  c #7A7B7B",
"c  c #7A7272",
"v  c #841E1E",
"b  c #8C1C1C",
"n  c #9E1717",
"m  c #9B1618",
"M  c #941A1A",
"N  c #9B1918",
"B  c #BE0F0F",
"V  c #BE120F",
"C  c #B60F11",
"Z  c #BC0F10",
"A  c #A31516",
"S  c #AB1414",
"D  c #AE1914",
"F  c #B31212",
"G  c #BA1110",
"H  c #B61912",
"J  c #BE1D10",
"K  c #AC2214",
"L  c #B52412",
"P  c #811E20",
"I  c #C30E0E",
"U  c #CB0C0C",
"Y  c #DF0707",
"T  c #DE0B07",
"R  c #D30B0A",
"E  c #DA0A08",
"W  c #C3120E",
"Q  c #CC130C",
"!  c #C71D0D",
"~  c #CB180C",
"^  c #D71209",
"/  c #DA1209",
"(  c #D31A0A",
")  c #DE1F08",
"_  c #E40606",
"`  c #EC0504",
"'  c #E20906",
"]  c #EB0C04",
"[  c #F40502",
"{  c #FA0501",
"}  c #F40B02",
"|  c #FC0B01",
" . c #E31406",
".. c #EC1404",
"X. c #E21C07",
"o. c #EC1C04",
"O. c #F31303",
"+. c #FC1300",
"@. c #F31A03",
"#. c #FD1B00",
"$. c #D42F0A",
"%. c #DF2B08",
"&. c #CE390C",
"*. c #E12107",
"=. c #EC2404",
"-. c #E62F06",
";. c #EC2A04",
":. c #F22503",
">. c #FC2301",
",. c #F32C02",
"<. c #FE2E00",
"1. c #E63405",
"2. c #E83106",
"3. c #E93E05",
"4. c #F73002",
"5. c #FD3500",
"6. c #F43A02",
"7. c #FE3B00",
"8. c #D5410A",
"9. c #E34A06",
"0. c #FE4400",
"q. c #F14F03",
"w. c #FC4B00",
"e. c #F44602",
"r. c #EB5804",
"t. c #E95305",
"y. c #F55101",
"u. c #FE5300",
"i. c #F55C03",
"p. c #FE5D00",
"a. c #EB6504",
"s. c #FE6300",
"d. c #FE6D00",
"f. c #F56D02",
"g. c #EE7904",
"h. c #F47202",
"j. c #FF7500",
"k. c #FD7B00",
"l. c #FF8300",
"z. c #F78D01",
"x. c #FE8D00",
"c. c #FE9200",
"v. c #FF9900",
"b. c #FFA700",
"n. c #FFAD00",
"m. c #FFB301",
"M. c #FFBC00",
"N. c #FFC400",
"B. c #FFCC01",
"V. c #FFD202",
"C. c #FEDC06",
"Z. c #FECF10",
"A. c #FFE505",
"S. c #FFEC05",
"D. c #FEEE0F",
"F. c #FEF103",
"G. c #FFFA04",
"H. c #FFF50B",
"J. c #FEFC0A",
"K. c #FEEA13",
"L. c #FFF310",
"P. c #FFFF13",
"I. c #FFFF19",
"U. c #FEFF25",
"Y. c #FFFF32",
"T. c #FFFF3D",
"R. c #838484",
"E. c #8A8A8A",
"W. c #939393",
"Q. c #9B9696",
"!. c #9B9B9B",
"~. c #A4A4A4",
"^. c #AAABAB",
"/. c #B7B7B7",
"(. c None",
/* pixels */
"(.(.(.(.(.(.(.(.(.(.(.(.(.(.(.(.(.(.(.(.(.(.(.(.(.(.(.(.(.(.(.(.(.(.(.(.(.(.(.(.(.(.(.(.(.(.(.(.(.(.",
"(.(.(.(.(.(.(.(.(.(.(.(.(.(.(.(.(.(.(.(.(.(.(.(.(.(.(.(.(.(.(.(.(.(.(.(.(.(.(.(.(.(.(.(.(.(.(.(.(.(.",
"(.(.(.(.(.(.(.(.(.(.(.(.(.(.(.(.(.(.(.(.(.(.(.(.(.(.(.(.(.(.(.(.(.(.(.(.(.(.(.(.(.(.(.(.(.(.(.(.(.(.",
"(.(.(.(.(.(.(.(.(.(.(.(.(.(.(.(.(.(.(.(.(.(.(.^.(.(.(.(.(.(.(.(.(.(.(.(.(.(.(.(.(.(.(.(.(.(.(.(.(.(.",
"(.(.(.(.(.(.(.(.(.(.(.(.(.(.(.(.(.(.(.(.W.x f p l !.^.~.R.W.(.(.(.(.(.(.(.(.(.(.(.(.(.(.(.(.(.(.(.(.",
"(.(.(.(.(.(.(.(.(.(.(.(.(.(.(.(.^.~.!.l p < = 6 , a j g g g R.(.(.(.(.(.(.(.(.(.(.(.(.(.(.(.(.(.(.(.",
"(.(.(.(.(.(.(.(.(.(.^.(.(.(./.l k j h t & + A F v ; , < i r w a ~.(.(.(.(.(.(.(.(.(.(.(.(.(.(.(.(.(.",
"(.(.(.(.(.(.(.(.~.E.R.l x !.z t < < w > + F R B v : & % O & ; < R.Q.(.(.(.(.(.(.(.(.(.(.(.(.(.(.(.(.",
"(.(.(.(.(.(.(.~.l s p p a j s o ; : 5 9 M U E v & > , 6 0 q 6 o i k Q.(.(.(.(.(.(.(.(.(.(.(.(.(.(.(.",
"(.(.(.(.(.W.R.l t O X < < e e = ; & ; ; + F G : & 5 0 v N F M : X r g x W.(.(.(.(.(.(.(.(.(.(.(.(.(.",
"(.(.(.(.R.f p t o % o & & 5 v N 0 > > > : M A 6 5 6 0 v + n A 0 % % > r h Q.(.(.(.(.(.(.(.(.(.(.(.(.",
"(.(.(.~.j w % * : & ; 5 5 v F U I A b 0 : 6 P v q 0 6 6 5 v F A q 6 & w p l ^.(.(.(.(.(.(.(.(.(.(.(.",
"(.(.(.x s < * 0 :   % 6 q 5 M ` | | ' M * & * 6 A U A 6 v N R W q 0 - < < p R.(.(.(.(.(.(.(.(.(.(.(.",
"(.(.W.h g e 5 + 5 X % = ; q B | #.+.E 0 O O > 5 U | Y F I F _ U 6 q q - * < k (.(.(.(.(.(.(.(.(.(.(.",
"(.(.!.j a < 5 + + + b M - M U [ O.W v q > > O : R +.' V ] { [ R S N N b 5 1 E.(.(.(.(.(.(.(.(.(.(.(.",
"(.(.Q.s t , 0 6 b F F A q q 6 S A 0 F U M * % 5 b Z Z E <.5.U 6 - - N m 5 e (.(.(.(.(.(.(.(.(.(.(.(.",
"(.(.x e , 0 n A P P 0 ; & - 0 M v Q <.O.C b P > O 6 # W 0.7.H - & * S F 6 d (.(.(.(.(.(.(.(.(.(.(.(.",
"(.E.p & v A W I v & w & - N =.=.Z -.j.1.G U G 9 8 ! X.o.0.7.W n b M F A 9 Q.(.(.(.(.(.(.(.(.(.(.(.(.",
"(.k < 6 A A S I A 5 : M I 2.x.x.y.h.v.s.w...N 0 G 0.p.5. .#.Q b F F b 4 f (.(.(.(.(.(.(.(.(.(.(.(.(.",
"!.s & b A q + m 6 : 5 b ..s.m.M.m.B.n.j.l.5.A F Z e.k.6.S R M P E ] M < s j R.(.(.(.(.(.(.(.(.(.(.(.",
"R.1 0 S F m M 6 e w o 6 H ,.p.t.a.N.B.v.s.@.@.{ C ( w.=.m b 6 b [ #.G ; w t w g !.(.(.(.(.(.(.(.(.(.",
"R.1 b G F S n 5 > w & 6 b G D S R s.c.3.] [ +. .I A Q H M - & @ R #.] A 2 r O O g x E.(.(.(.(.(.(.(.",
"W.i 5 A A v A b 0 5 & , * : v B m L l.h.;.] [ ..( N F v 5 > o e 8 G F v 2 i X w a x (.(.(.(.(.(.(.(.",
"W.p : M S F B F M * > > X 0 R [ W 8.B.L.V.k.1.l.x.0.#.Y S 0 < r w + 6 , w O X w i R.(.(.(.(.(.(.(.(.",
"!.g , b F I I A 3 O 6 v m ' ] | <.d.K.T.U.A.M.V.m.w.+.V N N 6 = v C # % > o O X O g ^.(.(.(.(.(.(.(.",
"(.z e 6 n N N 0 1 2 M m ^ 7.<.] O.u.K.Y.Z.M.B.c.p.u.7.~ @ M F V %.R M @ 7 & < O X s Q.(.(.(.(.(.(.(.",
"(.z t > ; : & * 9 v I ( ;.,.>.I U u.A.I.m.w.d.2.^ 5.0.@.H J o.0.p...F v : : O X X p E.(.(.(.(.(.(.(.",
"(.k a r O ; q M n M T w.j.;.R M 0 K z.G.C.y.#.D v W O.7.j.d.7.7.7...n 6 ; 5 ; &   a E.(.(.(.(.(.(.(.",
"(.k g t X q W _ S b O.j.v.e.U A # ! 6.m.G.m.5.S 5 v i.V.S.v.) U F G 6 5 5 ; : & O g !.(.(.(.(.(.(.(.",
"^.g s p * S [ | W m o.s.s.;.A F } u.p.x.F.c.#.N . L b.P.J.g.I C # F n 6 % & = > t g (.(.(.(.(.(.(.(.",
"l 2 , e 0 I [ | R m X.s.7.] 0 7  .p.s.v.F.V.0.U S :.l.N.B.r.R ` E I b &   ; ; w t p !.(.(.(.(.(.(.(.",
"f + m 0 0 S R _ A M ,.l.k.=.A 7 W >...a.H.J.x.5.5.@.! &.i.u.#.[ Y M % X % $ o r w e x (.(.(.(.(.(.(.",
"c ; v 0 > 5 q n W R #.p.c.f.w.=._ Z T k.S.J.M.s.7.I & $ L p.u.Q S M 5 & X X t a t e R.(.(.(.(.(.(.(.",
"R.w % < X   & v U _ R ,.j.l.j.;.G A  .k.V.V.f.X.Q n # # $.l.k.*.m A v & O t a g s l (.(.(.(.(.(.(.(.",
"Q.g t p t > 5 M m M F } 5.,.>.G S I I -.9.u.>.A M I ] @.w.c.x.5.R n q % O w h E.R.W.(.(.(.(.(.(.(.(.",
"(.E.g s t O ; v b M Z ' } #.@.G _ R 6 6 6 A R A F { [  .*.d.l.0.R 5 q 0 % O c (.(.(.(.(.(.(.(.(.(.(.",
"(.(.l h t o & q M M P v F O.+.I ] O.# ; ; 6 U Q N F M n R 5.s.7.T 5 5 5 , a (.(.(.(.(.(.(.(.(.(.(.(.",
"(.(.~.x g t & = : 0 b S U ' R R +.#.S 6 5 V | U P q : 6 b ..<.>.E 7 o 1 h (.(.(.(.(.(.(.(.(.(.(.(.(.",
"(.(.(.W.x a w o o 5 N Z U I M C [ / Y U U #.#.` A A M q 6 F ' +.R 6 o r x (.(.(.(.(.(.(.(.(.(.(.(.(.",
"(.(.(.(.E.g u t t y 7 # # S U _ _ v M G U ] | _ F U T U I F R | R q e O u (.(.(.(.(.(.(.(.(.(.(.(.(.",
"(.(.(.(.(.R.l h j h a 1 5 M F R I 0 & 0 M Q B n F Y ` R F B ` { V 9 o % * 9 (.(.(.(.(.(.(.(.(.(.(.(.",
"(.(.(.(.(.(.(.W.Q.E.l a & ; : 0 b - O & N I M 6 6 I _ B v b I U A : O o % $ c (.(.(.(.(.(.(.(.(.(.(.",
"(.(.(.(.(.(.(.(.(.(.Q.h w < t O , O & P S I S b 6 F Y F + ; 6 M 5 < w r < o s (.(.(.(.(.(.(.(.(.(.(.",
"(.(.(.(.(.(.(.(.(.(.(.W.h i a a r < : + b M M 0 0 B I m 5   , 0 & < t a f f k (.(.(.(.(.(.(.(.(.(.(.",
"(.(.(.(.(.(.(.(.(.(.(.(.!.g g a O & : & < 2 = , 3 S F 0 1 w < = * X r s l E.Q.(.(.(.(.(.(.(.(.(.(.(.",
"(.(.(.(.(.(.(.(.(.(.(.(.(.(.s e % = 6 % O r O O , 6 6 % r p w o o w i s R.(.(.(.(.(.(.(.(.(.(.(.(.(.",
"(.(.(.(.(.(.(.(.(.(.(.(.(.(.(.k < ; 5 & o r p p t t t O r t p s j E.W.E.(.(.(.(.(.(.(.(.(.(.(.(.(.(.",
"(.(.(.(.(.(.(.(.(.(.(.(.(.(.(.(.k p e e e a g E.Q.!.E.g a f l E.(.(.(.(.(.(.(.(.(.(.(.(.(.(.(.(.(.(.",
"(.(.(.(.(.(.(.(.(.(.(.(.(.(.(.(.(.!.E.!.Q.E.E.(.(.(.(.(.E.R.Q.(.(.(.(.(.(.(.(.(.(.(.(.(.(.(.(.(.(.(.",
"(.(.(.(.(.(.(.(.(.(.(.(.(.(.(.(.(.(.(.(.(.(.(.(.(.(.(.(.(.(.(.(.(.(.(.(.(.(.(.(.(.(.(.(.(.(.(.(.(.(."
};