/* XPM */
static char *efec920b6cde47e9a05220faffd5ae9eKDm4zqwcbhjJbMDC[] = {
/* columns rows colors chars-per-pixel */
"50 50 141 2 ",
"   c None",
".  c #3F2C2C",
"X  c #343131",
"o  c #393737",
"O  c #3D3C3C",
"+  c #751D1D",
"@  c #7B1E1E",
"#  c #4A2E2E",
"$  c #5C2525",
"%  c #552D2D",
"&  c #5A2929",
"*  c #443535",
"=  c #4D3030",
"-  c #443D3D",
";  c #4D3B3B",
":  c #563434",
">  c #583131",
",  c #513D3D",
"<  c #593F3F",
"1  c #622424",
"2  c #6B2324",
"3  c #712222",
"4  c #7D2424",
"5  c #752828",
"6  c #673F3F",
"7  c #444242",
"8  c #4A4545",
"9  c #4C4C4C",
"0  c #584747",
"q  c #554848",
"w  c #5B4B4B",
"e  c #555252",
"r  c #5B5656",
"t  c #5A5B5B",
"y  c #684343",
"u  c #604848",
"i  c #694B4B",
"p  c #675757",
"a  c #6A5151",
"s  c #625B5B",
"d  c #6B5C5C",
"f  c #715858",
"g  c #646464",
"h  c #6D6161",
"j  c #676A6A",
"k  c #6B6C6C",
"l  c #706868",
"z  c #747474",
"x  c #7E7575",
"c  c #757878",
"v  c #7C7C7C",
"b  c #841D1D",
"n  c #8B1A1A",
"m  c #941717",
"M  c #9C1717",
"N  c #92191A",
"B  c #9A191A",
"V  c #B50E0F",
"C  c #A61715",
"Z  c #AA1313",
"A  c #A01918",
"S  c #B31211",
"D  c #BA1010",
"F  c #843233",
"G  c #C00E0E",
"H  c #C90C0C",
"J  c #DE0E06",
"K  c #D50909",
"L  c #EC0403",
"P  c #E50E04",
"I  c #F20302",
"U  c #F20A02",
"Y  c #E61106",
"T  c #FF1300",
"R  c #FE2800",
"E  c #FF3300",
"W  c #FF3D00",
"Q  c #FF4000",
"!  c #FE5100",
"~  c #838484",
"^  c #878989",
"/  c #8A8B8B",
"(  c #8E9191",
")  c #939393",
"_  c #969898",
"`  c #9C9C9C",
"'  c #A5A5A5",
"]  c #A7A9A9",
"[  c #ABAEAE",
"{  c #AAADAD",
"}  c #ACACAC",
"|  c gray68",
" . c #ACAEAE",
".. c #AEAEAE",
"X. c #AEAFAF",
"o. c #AFAFAF",
"O. c #AAAAAA",
"+. c gray69",
"@. c #B1B1B1",
"#. c #B1B3B3",
"$. c #B2B2B2",
"%. c gray70",
"&. c #B2B5B5",
"*. c #B4B4B4",
"=. c #B4B5B5",
"-. c gray71",
";. c #B6B6B6",
":. c #B7B7B7",
">. c #B4B4B4",
",. c gray72",
"<. c #B9B9B9",
"1. c #B9BBBB",
"2. c gray73",
"3. c #BABBBB",
"4. c #BBBBBB",
"5. c #BCBCBC",
"6. c gray74",
"7. c gray",
"8. c gray75",
"9. c #BBBBBB",
"0. c #C0C0C0",
"q. c #C1C1C1",
"w. c #C0C2C2",
"e. c gray76",
"r. c #C3C3C3",
"t. c gray77",
"y. c #C5C5C5",
"u. c #C6C6C6",
"i. c gray78",
"p. c #C4C4C4",
"a. c #C8C8C8",
"s. c gray79",
"d. c #CACACA",
"f. c #CDCDCD",
"g. c #CECECE",
"h. c #CACACA",
"j. c gray82",
"k. c #D2D2D2",
"l. c LightGray",
"z. c gray83",
"x. c gray84",
/* pixels */
"                                                                                                    ",
"                                                                                                    ",
"                                                                                                    ",
"                                                                                                    ",
"                                                                                                    ",
"                                                                                                    ",
"                                                                                                    ",
"                                                                                                    ",
"                                                                                                    ",
"                                                                                                    ",
"                                                                                                    ",
"                                  l.g.j.j.j.,.` 9.z.      9.                                        ",
"                                g.t.t.t.t.7.O.O.@.7.t.i.;.' %.                                      ",
"                            ;.w.i.0.7.j.z.s.@.O.` O.;.<.| _ ]                                       ",
"                            ~ z ) ` / <.j.i.0.@.' ] ] @.;.| ;.                                      ",
"                          ] 8 # ; r , g ) O.,.@.@.' / ) | t.                                        ",
"                      7.s.k . 1 @ b 5 : e z ` | <.O.( / O.0.                                        ",
"                      %.i.) 8 % 5 b b b # j ] r.7.%.] ` +.+.9.                                      ",
"                      <.t.s.' ~ ( i N b - ) j.g.i.9.<.<.7.;.O.                                      ",
"                    <.O.| +.;.| 1.x b Z 2 l w.;.] | ;.<.%.%.O.+.                                    ",
"                    @.` ` ` | ,.&.x A U J N f g 9 g ) 0.<.<.O.|                                     ",
"                    @.O.O.<.0.9.[ h S E W U B = # 7 ^ ;.0.0.<.                                      ",
"                    7.;.<.s.s.r.[ p D Q ! Y S $ * j | 7.r.7.s.                                      ",
"                      <.] O.w.a.&.a V R E C : - v ;.%.,.] ] ' ` |                                   ",
"                    <./ z z ' :.X./ F P T C g ~ ' r.%./ w , 8 j ~ ]                                 ",
"                    @.g 9 r ` ;.] ` h M L V w ` ] | ~ % b @ * z ]                                   ",
"                    ] 8 O t ` <.| v 8 & H D < ) | ] s + D m w |                                     ",
"                    _ 7 - z ` ] ] k - 3 D K 4 z ' ' e $ M b p @.                                    ",
"                    ' e O z O.] ' ~ t < Z I D y j ~ v q & $ 7 ~                                     ",
"                      t o - z ) X.O.~ 0 Z I K 3 q ^ @.` v - o k                                     ",
"                      k O O t ~ :.8.{ 0 n D Z 6 c ` @.| ) 7 X t                                     ",
"                      ) t g ) +.5.7.9.c ; & % v X.&.9.7.) 7 X 9 _                                   ",
"                        ` `   s.g.f.t.<.] ^ ~ ' <.r.t.s.] g O 8 /                                   ",
"                                    s.<.;.<.<.s.t.r.9.;.0._ t t v                                   ",
"                                      r.;.r.t.t.<.@.O.O.@.] / z )                                   ",
"                                              s.r.@.O.O.O.,.| `                                     ",
"                                                                                                    ",
"                                                                                                    ",
"                                                                                                    ",
"                                                                                                    ",
"                                                                                                    ",
"                                                                                                    ",
"                                                                                                    ",
"                                                                                                    ",
"                                                                                                    ",
"                                                                                                    ",
"                                                                                                    ",
"                                                                                                    ",
"                                                                                                    ",
"                                                                                                    "
};