/* XPM */
static char *result[] = {
/* columns rows colors chars-per-pixel */
"50 50 121 2 ",
"   c #3C2929",
".  c #313030",
"X  c #3E3333",
"o  c #731E1E",
"O  c #7D1D1E",
"+  c #442C2C",
"@  c #4C2C2C",
"#  c #562727",
"$  c #5E2525",
"%  c #542B2B",
"&  c #5A2B2B",
"*  c #443333",
"=  c #4F3131",
"-  c #423C3C",
";  c #4D3E3E",
":  c #513636",
">  c #5F3333",
",  c #543B3B",
"<  c #5C3E3E",
"1  c #632424",
"2  c #6B2323",
"3  c #642C2C",
"4  c #6B2929",
"5  c #732323",
"6  c #782323",
"7  c #7A2728",
"8  c #7B2B2B",
"9  c #633433",
"0  c #603D3D",
"q  c #6E393A",
"w  c #444444",
"e  c #4B4444",
"r  c #484748",
"t  c #4C4C4C",
"y  c #524242",
"u  c #5C4646",
"i  c #534B4B",
"p  c #5B4D4D",
"a  c #535353",
"s  c #5A5656",
"d  c #575959",
"f  c #5B5A5A",
"g  c #654848",
"h  c #635555",
"j  c #6A5353",
"k  c #635C5C",
"l  c #685E5E",
"z  c #5E6161",
"x  c #636363",
"c  c #686464",
"v  c #676868",
"b  c #6C6C6C",
"n  c #716F6F",
"m  c #747474",
"M  c #787171",
"N  c #7D7D7D",
"B  c #831717",
"V  c #8B1717",
"C  c #861D1D",
"Z  c #8C1D1D",
"A  c #931616",
"S  c #9C1516",
"D  c #9B1816",
"F  c #921B1A",
"G  c #981A1A",
"H  c #B00F0F",
"J  c #B80F0E",
"K  c #B8100F",
"L  c #A20F10",
"P  c #A31515",
"I  c #AB1413",
"U  c #B11212",
"Y  c #B81210",
"T  c #842324",
"R  c #892C2D",
"E  c #C30E0E",
"W  c #CD0B0B",
"Q  c #D60807",
"!  c #DD0807",
"~  c #D40A0A",
"^  c #DA0909",
"/  c #D31108",
"(  c #E10E07",
")  c #EC0E04",
"_  c #FF0500",
"`  c #FD0B00",
"'  c #E51406",
"]  c #EE1203",
"[  c #F31402",
"{  c #FE1300",
"}  c #F41F00",
"|  c #F62102",
" . c #FF2300",
".. c #FF3600",
"X. c #F43B02",
"o. c #FF3800",
"O. c OrangeRed",
"+. c #FF5200",
"@. c #FD6401",
"#. c #FF6A00",
"$. c #805051",
"%. c #FF8B00",
"&. c #FF9000",
"*. c #838484",
"=. c #888282",
"-. c #878A8A",
";. c #8B8B8B",
":. c #8F9090",
">. c #939393",
",. c #979999",
"<. c #9C9D9D",
"1. c #9FA1A1",
"2. c #A3A3A3",
"3. c #ABABAB",
"4. c #B3B3B3",
"5. c #B7B9B9",
"6. c #BBBBBB",
"7. c #C3C3C3",
"8. c #CBCBCB",
"9. c #D2D2D2",
"0. c None",
/* pixels */
"0.0.0.0.0.0.0.0.0.0.0.0.0.0.0.0.0.0.0.0.0.0.0.0.0.0.0.0.0.0.0.0.0.0.0.0.0.0.0.0.0.0.0.0.0.0.0.0.0.0.",
"0.0.0.0.0.0.0.0.0.0.0.0.0.0.0.0.0.0.0.0.0.0.0.0.0.0.0.0.0.0.0.0.0.0.0.0.0.0.0.0.0.0.0.0.0.0.0.0.0.0.",
"0.0.0.0.0.0.0.0.0.0.0.0.0.0.0.0.0.0.0.0.0.0.0.0.0.0.0.0.0.0.0.0.0.0.0.0.0.0.0.0.0.0.0.0.0.0.0.0.0.0.",
"0.0.0.0.0.0.0.0.0.0.0.0.0.0.0.0.0.0.0.0.0.0.0.0.0.0.0.0.0.0.0.0.0.0.0.0.0.0.0.0.0.0.0.0.0.0.0.0.0.0.",
"0.0.0.0.0.0.0.0.0.0.0.0.0.0.0.0.0.0.0.0.0.0.0.0.0.0.0.0.0.0.0.0.0.0.0.0.0.0.0.0.0.0.0.0.0.0.0.0.0.0.",
"0.0.0.0.0.0.0.0.0.0.0.0.0.0.0.0.0.0.0.0.0.0.0.0.0.0.0.0.0.0.0.0.0.0.0.0.0.0.0.0.0.0.0.0.0.0.0.0.0.0.",
"0.0.0.0.0.0.0.0.0.0.0.0.0.0.0.0.0.0.0.0.0.0.0.0.0.0.0.0.0.0.0.0.0.0.0.0.0.0.0.0.0.0.0.0.0.0.0.0.0.0.",
"0.0.0.0.0.0.0.0.0.0.0.0.0.0.0.0.0.0.0.0.0.0.0.0.0.0.0.0.0.0.0.0.0.0.0.0.0.0.0.0.0.0.0.0.0.0.0.0.0.0.",
"0.0.0.0.0.0.0.0.0.0.0.0.0.0.0.0.0.0.0.0.0.0.0.0.0.0.0.0.0.0.0.0.0.0.0.0.0.0.0.0.0.0.0.0.0.0.0.0.0.0.",
"0.0.0.0.0.0.0.0.0.0.0.0.0.0.0.0.0.0.0.0.0.2.>.2.6.0.8.8.8.9.0.0.0.7.0.0.0.0.0.0.0.0.0.0.0.0.0.0.0.0.",
"0.0.0.0.0.0.0.0.0.0.0.0.0.0.0.0.0.0.0.0.4.=.n ;.7.8.6.7.7.8.9.5.7.7.4.4.0.0.0.0.0.0.0.0.0.0.0.0.0.0.",
"0.0.0.0.0.0.0.0.0.0.0.0.0.0.0.0.0.0.5.7.4.>.;.<.7.8.7.7.6.7.8.3.3.3.m n >.0.0.0.0.0.0.0.0.0.0.0.0.0.",
"0.0.0.0.0.0.0.0.0.0.0.0.0.0.0.0.0.7.6.6.6.5.7.6.5.7.8.7.7.7.8.7.1.N f a *.0.0.0.0.0.0.0.0.0.0.0.0.0.",
"0.0.0.0.0.0.0.0.0.0.0.0.0.0.0.0.7.6.5.4.2.5.8.2.N >.5.9.7.7.5.7.4.-.t - =.0.0.0.0.0.0.0.0.0.0.0.0.0.",
"0.0.0.0.0.0.0.0.0.0.0.0.0.0.0.5.3.5.7.-.i j =.s i n <.7.9.7.5.=.N m t t >.0.0.0.0.0.0.0.0.0.0.0.0.0.",
"0.0.0.0.0.0.0.0.0.0.0.0.0.0.0.5.4.6.2.g o A 6 6 6 ; s *.7.8.2.t - t x m <.0.0.0.0.0.0.0.0.0.0.0.0.0.",
"0.0.0.0.0.0.0.0.0.0.0.0.0.0.6.5.6.4.l o I W W W I 2 @ t 3.0.2.w . w *.2.4.6.0.0.0.0.0.0.0.0.0.0.0.0.",
"0.0.0.0.0.0.0.0.0.0.0.0.0.0.4.3.4.5.;., o A I ~ ! H 2 r N 4.4.v t v 3.7.6.6.0.0.0.0.0.0.0.0.0.0.0.0.",
"0.0.0.0.0.0.0.0.0.0.0.0.0.0.6.5.7.8.8.:.m m j S ~ F = x m ;.2.4.2.5.7.6.5.7.0.0.0.0.0.0.0.0.0.0.0.0.",
"0.0.0.0.0.0.0.0.0.0.0.0.0.0.8.8.8.7.8.8.7.7.1.8 Q U 5 p z f b <.3.6.8.6.5.6.0.0.0.0.0.0.0.0.0.0.0.0.",
"0.0.0.0.0.0.0.0.0.0.0.0.0.0.0.8.6.5.6.7.7.6.;.R | o.' Z ; 2 4 , x 2.8.8.5.5.6.0.0.0.0.0.0.0.0.0.0.0.",
"0.0.0.0.0.0.0.0.0.0.0.0.0.0.6.6.7.8.6.4.2.;.r G +.%.+.' Z P F % a 3.9.9.8.8.0.0.0.0.0.0.0.0.0.0.0.0.",
"0.0.0.0.0.0.0.0.0.0.0.0.0.0.5.8.8.9.3.-.=.*.t D O.&.@.' E D 4 ; f ,.7.0.0.7.6.0.0.0.0.0.0.0.0.0.0.0.",
"0.0.0.0.0.0.0.0.0.0.0.0.0.0.8.9.3.-.v b m -.k L  .#.X.G O 3 f a a z -.,.N x z -.0.0.0.0.0.0.0.0.0.0.",
"0.0.0.0.0.0.0.0.0.0.0.0.0.0.9.9.N - + s >.4.2.j / o.| T - x 2.<.z = 4 1 #   t b 3.0.0.0.0.0.0.0.0.0.",
"0.0.0.0.0.0.0.0.0.0.0.0.7.7.9.6.a # 1 ; 3.7.4.b C ] { U y <.5.2.q J ^ I 4 a $.3.0.0.0.0.0.0.0.0.0.0.",
"0.0.0.0.0.0.0.0.0.0.0.0.<.,.7.4.y 2 1 e 1.5.v * 5 E _ J ; <.5.n V ] ` H j 1.6.0.0.0.0.0.0.0.0.0.0.0.",
"0.0.0.0.0.0.0.0.0.0.0.0.>.;.7.5.u o + k 4.4.d * C W { ( 5 b >.j B ~ ! A c :.1.0.0.0.0.0.0.0.0.0.0.0.",
"0.0.0.0.0.0.0.0.0.0.0.0.2.2.8.7.p 2 # x 2.5.m r % Z |  .Y % w r < 7 Z C & f 1.0.0.0.0.0.0.0.0.0.0.0.",
"0.0.0.0.0.0.0.0.0.0.0.0.0.0.0.2.y 1 2 9 h N $.m - T | o.( O X v ,.=.0 O 1 b 0.0.0.0.0.0.0.0.0.0.0.0.",
"0.0.0.0.0.0.0.0.0.0.0.0.0.0.0.3.n @ 2 o + f 2.5.k S ) [ I < v >.6.1.u 5 1 x 0.0.0.0.0.0.0.0.0.0.0.0.",
"0.0.0.0.0.0.0.0.0.0.0.0.0.0.0.0.<.- @ , a ,.8.7.N 9 Z S 3 ;.8.7.3.v + 2 2 - <.0.0.0.0.0.0.0.0.0.0.0.",
"0.0.0.0.0.0.0.0.0.0.0.0.0.0.0.0.0.v w s >.7.6.7.7.3.:.l f 4.0.4.2.N i @ 1 * m 0.0.0.0.0.0.0.0.0.0.0.",
"0.0.0.0.0.0.0.0.0.0.0.0.0.0.0.0.0.0.>.;.:.2.>.,.7.8.8.5.1.3.0.0.0.0.:.w + * b 0.0.0.0.0.0.0.0.0.0.0.",
"0.0.0.0.0.0.0.0.0.0.0.0.0.0.0.0.0.0.0.0.<.;.N =.4.7.7.2.;.<.0.0.0.0.0.v X w m 0.0.0.0.0.0.0.0.0.0.0.",
"0.0.0.0.0.0.0.0.0.0.0.0.0.0.0.0.0.0.0.0.0.3.N -.4.6.4.=.m ,.0.0.0.0.0.1.v f *.0.0.0.0.0.0.0.0.0.0.0.",
"0.0.0.0.0.0.0.0.0.0.0.0.0.0.0.0.0.0.0.0.0.0.2.0.0.5.2.;.N >.0.0.0.0.0.0.0.-.0.0.0.0.0.0.0.0.0.0.0.0.",
"0.0.0.0.0.0.0.0.0.0.0.0.0.0.0.0.0.0.0.0.0.0.0.0.0.0.0.0.2.0.0.0.0.0.0.0.0.0.0.0.0.0.0.0.0.0.0.0.0.0.",
"0.0.0.0.0.0.0.0.0.0.0.0.0.0.0.0.0.0.0.0.0.0.0.0.0.0.0.0.0.0.0.0.0.0.0.0.0.0.0.0.0.0.0.0.0.0.0.0.0.0.",
"0.0.0.0.0.0.0.0.0.0.0.0.0.0.0.0.0.0.0.0.0.0.0.0.0.0.0.0.0.0.0.0.0.0.0.0.0.0.0.0.0.0.0.0.0.0.0.0.0.0.",
"0.0.0.0.0.0.0.0.0.0.0.0.0.0.0.0.0.0.0.0.0.0.0.0.0.0.0.0.0.0.0.0.0.0.0.0.0.0.0.0.0.0.0.0.0.0.0.0.0.0.",
"0.0.0.0.0.0.0.0.0.0.0.0.0.0.0.0.0.0.0.0.0.0.0.0.0.0.0.0.0.0.0.0.0.0.0.0.0.0.0.0.0.0.0.0.0.0.0.0.0.0.",
"0.0.0.0.0.0.0.0.0.0.0.0.0.0.0.0.0.0.0.0.0.0.0.0.0.0.0.0.0.0.0.0.0.0.0.0.0.0.0.0.0.0.0.0.0.0.0.0.0.0.",
"0.0.0.0.0.0.0.0.0.0.0.0.0.0.0.0.0.0.0.0.0.0.0.0.0.0.0.0.0.0.0.0.0.0.0.0.0.0.0.0.0.0.0.0.0.0.0.0.0.0.",
"0.0.0.0.0.0.0.0.0.0.0.0.0.0.0.0.0.0.0.0.0.0.0.0.0.0.0.0.0.0.0.0.0.0.0.0.0.0.0.0.0.0.0.0.0.0.0.0.0.0.",
"0.0.0.0.0.0.0.0.0.0.0.0.0.0.0.0.0.0.0.0.0.0.0.0.0.0.0.0.0.0.0.0.0.0.0.0.0.0.0.0.0.0.0.0.0.0.0.0.0.0.",
"0.0.0.0.0.0.0.0.0.0.0.0.0.0.0.0.0.0.0.0.0.0.0.0.0.0.0.0.0.0.0.0.0.0.0.0.0.0.0.0.0.0.0.0.0.0.0.0.0.0.",
"0.0.0.0.0.0.0.0.0.0.0.0.0.0.0.0.0.0.0.0.0.0.0.0.0.0.0.0.0.0.0.0.0.0.0.0.0.0.0.0.0.0.0.0.0.0.0.0.0.0.",
"0.0.0.0.0.0.0.0.0.0.0.0.0.0.0.0.0.0.0.0.0.0.0.0.0.0.0.0.0.0.0.0.0.0.0.0.0.0.0.0.0.0.0.0.0.0.0.0.0.0.",
"0.0.0.0.0.0.0.0.0.0.0.0.0.0.0.0.0.0.0.0.0.0.0.0.0.0.0.0.0.0.0.0.0.0.0.0.0.0.0.0.0.0.0.0.0.0.0.0.0.0."
};