/* XPM */
static char *_e4fda2ea31b41f4cc2f3f7b39e7367cHF1MC5bipnM5KUxi[] = {
/* columns rows colors chars-per-pixel */
"50 50 214 2 ",
"   c None",
".  c #0C0D06",
"X  c #090804",
"o  c #140E03",
"O  c #1B0E00",
"+  c #130F0A",
"@  c #1A0E0A",
"#  c #0E1305",
"$  c #0E120C",
"%  c #041905",
"&  c #141204",
"*  c #1A1203",
"=  c #1C1A03",
"-  c #13120B",
";  c #12180C",
":  c #1A120B",
">  c #140E12",
",  c #0B1314",
"<  c #131312",
"1  c #1C1C17",
"2  c #250E02",
"3  c #290D00",
"4  c #221304",
"5  c #231D03",
"6  c #221809",
"7  c #2A1E0C",
"8  c #291805",
"9  c #351405",
"0  c #32150C",
"q  c #2B2609",
"w  c #3C2404",
"e  c #3C2B05",
"r  c #3B270D",
"t  c #3D2A0B",
"y  c #352708",
"u  c #3E310C",
"i  c #292517",
"p  c #342A13",
"a  c #3C2B12",
"s  c #392815",
"d  c #3C3114",
"f  c #292921",
"g  c #470907",
"h  c #591803",
"j  c #4D0E0A",
"k  c #690A06",
"l  c #760502",
"z  c #7B0203",
"x  c #76050D",
"c  c #621B08",
"v  c #432602",
"b  c #4A2603",
"n  c #422A05",
"m  c #482C02",
"M  c #42260D",
"N  c #412A0B",
"B  c #423404",
"V  c #43320C",
"C  c #49320B",
"Z  c #543106",
"A  c #422416",
"S  c #452B12",
"D  c #4A3A14",
"F  c #50391E",
"G  c #523B14",
"H  c #652B02",
"J  c #6C2B0E",
"K  c #7B3605",
"L  c #443E28",
"P  c #56491C",
"I  c #54471D",
"U  c #72501C",
"Y  c #684A0B",
"T  c #474325",
"R  c #5E4E24",
"E  c #574C2F",
"W  c #57522D",
"Q  c #42443C",
"!  c #47483D",
"~  c #595435",
"^  c #564F36",
"/  c #694522",
"(  c #7A542A",
")  c #665932",
"_  c #685A38",
"`  c #7D5930",
"'  c #70622A",
"]  c #6E6A37",
"[  c #66623B",
"{  c #6E643C",
"}  c #6D6638",
"|  c #746A36",
" . c #72653A",
".. c #736A3B",
"X. c #7A693B",
"o. c #78703D",
"O. c #464643",
"+. c #514D44",
"@. c #4F5045",
"#. c #474E50",
"$. c #6F6B41",
"%. c #6C6847",
"&. c #726B42",
"*. c #796E42",
"=. c #716B48",
"-. c #736645",
";. c #7F7348",
":. c #757672",
">. c #7A7B76",
",. c #7C7C79",
"<. c #777873",
"1. c #800002",
"2. c #891401",
"3. c #911C00",
"4. c #8C3516",
"5. c #B23F0D",
"6. c #8E5813",
"7. c #8D5A1D",
"8. c #83571C",
"9. c #905B1C",
"0. c #AE450C",
"q. c #AB4302",
"w. c #B24201",
"e. c #B2420B",
"r. c #A34914",
"t. c #A36E13",
"y. c #865B25",
"u. c #8B5A23",
"i. c #855B2C",
"p. c #8A5826",
"a. c #805D33",
"s. c #974823",
"d. c #956426",
"f. c #89692F",
"g. c #A16D2C",
"h. c #A27F3D",
"j. c #967B4E",
"k. c #8E7E4E",
"l. c #9C8D30",
"z. c #9C862F",
"x. c #DF9628",
"c. c #DB9C37",
"v. c #E39A2B",
"b. c #E79929",
"n. c #E59831",
"m. c #8D844F",
"M. c #90874F",
"N. c #968657",
"B. c #9D905D",
"V. c #BB8A47",
"C. c #B8975D",
"Z. c #948B7A",
"A. c #9B907E",
"S. c #978D6C",
"D. c #A39663",
"F. c #B79B64",
"G. c #BAA76D",
"H. c #BBB36D",
"J. c #B6B26E",
"K. c #A8A57A",
"L. c #B3AB72",
"P. c #B9AF74",
"I. c #B6B373",
"U. c #BAB273",
"Y. c #B8B17B",
"T. c #C18F4E",
"R. c #C99B59",
"E. c #D59E5A",
"W. c #D79F45",
"Q. c #CEA45D",
"!. c #CEA553",
"~. c #D3A156",
"^. c #D2A25B",
"/. c #D4A75B",
"(. c #E5A243",
"). c #C09A60",
"_. c #D69E65",
"`. c #CDA363",
"'. c #C9A66A",
"]. c #D2A865",
"[. c #DBB768",
"{. c #D9B465",
"}. c #C4AC77",
"|. c #C1B378",
" X c #FFDA50",
".X c #F4DF46",
"XX c #F4E64B",
"oX c #FAE34C",
"OX c #FBE246",
"+X c #F5E254",
"@X c #DFC06E",
"#X c #E4CA7D",
"$X c #979187",
"%X c #8C8A83",
"&X c #A49684",
"*X c #BAB488",
"=X c #D3BB8B",
"-X c #C6C395",
";X c #DFCD9F",
":X c #F6D889",
">X c #FADF93",
",X c #FBE58B",
"<X c #FDE493",
"1X c #FBEA93",
"2X c #F6EC92",
"3X c #F3EAAA",
"4X c #FDF0CF",
"5X c #FAF7DB",
"6X c #EFEBD6",
"7X c #F5F4E4",
"8X c #F9FAE7",
"9X c #F9FAEB",
"0X c #F9F9EA",
"qX c #FDFBF2",
/* pixels */
"                                                                & & -     & - :                     ",
"                                                              * _.2Xy.O q 2X2XE.< >.                ",
"                                                                # u.^.b C ~.^.1XE. .-               ",
"                                                        t t $X    # ~.N Z R.d.E.E.Q.'.+             ",
"                                            s a a a a a +X.Xl.f     4 F.R.v N ~.v y.Q.-             ",
"                                            b e S S A A  XOXl.a     ; `.R.N N Q.p f.'.-             ",
"                                      $Xt N b.v.oXOXoXoXv.XXz.M e   o }.Q._.~.t , C a.$             ",
"                                    t d.n.n.XXoXB e e e e b.b.n.b.N   ; * y.^.^.9.F &               ",
"                                    e d.v.OXN N 5X0X9X  N n N N t     < - & - 6.p.F -               ",
"                                  a W.x.(.n H.8X8X0X0X    t Z.        - 5 U.X.: - ,.                ",
"                              O.O.N c.t.Y B.U.-X=.=.-XQ N.e Z.      O.X = k.] ~ - ,.                ",
"                              & & N c.y.e I.U.H.S V *Xo 9.e A.      $ = 5 -.] &.& >.                ",
"                      - < < & | &.e b ;.|.e e e t a qXt ^.1XB.A     . '.C.& ; A - >.                ",
"                    - 9XU.J.}.& $ v v.9.v ~.a `.<X<Xu.^.~.~.;X8Xe & & 3X,X^.Q.$ ; >.                ",
"                    # U...6 3 5.0.z n A n /.y./.`./.<X~.i.o * < + R.7.,X>XE.Q.u.+                   ",
"                    < | % j k o O 0.l h d O 6.Q.d.U 8.^./.& q S a.E.u.].~.~.8.O                     ",
"                    O.^ % g g y 9 4.2.h M w / ^.( U f.=X-X< 8 n y.~.d.V.T.^.u.-                     ",
"                      ; ; & 2 p.d., r.K v u.o ~.m N Y.9X9X* 7 n y._.^.u.d.~.y.-                     ",
"                        < ( u.p.7.y.& H w.7.$ ^.d.` ; - $ r w v u.7./.7.7.u.$                       ",
"                      $ ^.4X5X1X^.y.& Z e.t , > ).).& H.9X9X&Xr t u.p.4 $ -                         ",
"                      - ^.<X1X1X~.u.O H 5.l + - o 3 ].y.+ < 1 M N & o                               ",
"                    #.j.:X@X[.[.g.r o h 3.z + W ^ E G V.j.j.C.}.6                                   ",
"                    & E.<X].^.~.7.$ - g z z @ %.} $.O `.Q.^.#X3X-                                   ",
"                    & ^.^.^.^./.7.+ - g 1.l z & } ....& - - - ,                                     ",
"                :.+ 1X1Xu.u.p.p.* - k 1.z z z - L.L. ...o l 9 -                                     ",
"                :.- 1X~.^.^.^.~.o z z z z z z % L.P.U.U.- z 9 >                                     ",
"                :.+ Q.<X^.^.R.u.@ e.l z z z z k * 5 U.U.=.3 J s.#                                   ",
"                  +.j.:X{.Q.^./ 6 K 2.2.2.2.l z 2 = U.P.S.4 c 4.$                                   ",
"                    . `.1X].G.o t * 5.w.w.w.z z 4 = I.Y.0X& g k ;                                   ",
"                      - ~.9 o ..t - 0.3.z z z z 4 = I.8X0X&.T -                                     ",
"                      - ; [  .S < > x z z z z - - + & & & - - -                                     ",
"                        & p a - !.E.O g x - * + - = =.- Y.qX$X- +                                   ",
"                          f * z./.Q.o : 4 - 9 y q y ..W R -._ E W @.                                ",
"                          f 2 E.^.Q.o & & o e e w B ..X.e n I ....&                                 ",
"                        & & O ^.^.y.- 7 N N  .U.o.....t I.t I | U.| -                               ",
"                      - ~.8 O ~.^.u.o 7 t r t X.P.U.U.t J.t | U.t | -                               ",
"                      - i.R.~._.6., a R ....o.t { { e U.t -.M.I.t H.I.& i                           ",
"                        > ; & o 2 A U.M.| ......u t t ..r X.P e &...Y.U.K.;                         ",
"                        - 6 * = = P D.m.*.) ) ) p p q ~ t _ G D ....U.U.K.Q                         ",
"                        o s r e t I...X.*.w w r ; o - . V r I &...&.U.J.*X7X&                       ",
"                      - ..6X5XU.U.N t t t | | &         o e t t t > &.P.J.L.*.+                     ",
"                    o J.U.o.| U.{ ........- -             - - - $ t ....o.I.U.U.+ >.                ",
"                    < | U.I.U.U.a ..r 7 -                       $ t N  .} w ....+ >.                ",
"                    ; & & & q X.U.t o %X                          & N N V ..o & < >.                ",
"                    * & & & o &.Y.a * $X                          - t t u =.& o & >.                ",
"                <.@ t N n * + - } -                                 - %.[ - e n  .T -               ",
"              - L ..t t ; - + & +                                     1 $ - - - r X.I.-             ",
"          - - U.' t - $ e & +                                             - - r X.....] - -         ",
"    1 + 1 ..] V N t r - : - +                                             + a + o 7 e n ] e & $ -   ",
"    1 - - * & * * * * ; - + +                                             - * - ; * * * = & & & -   "
};
