/* XPM */
static char *_edd1c572dfb4e94c4403ac724d42f20YigCi0KsWMz8dF9T[] = {
/* columns rows colors chars-per-pixel */
"50 50 187 2 ",
"   c None",
".  c #010000",
"X  c #0A0601",
"o  c #140100",
"O  c #1D0000",
"+  c #110C01",
"@  c #1A0E00",
"#  c #131105",
"$  c #1D1505",
"%  c gray10",
"&  c #240000",
"*  c #2D0000",
"=  c #280E03",
"-  c #330200",
";  c #3B0500",
":  c #3F0800",
">  c #231700",
",  c #251A00",
"<  c #2A1C00",
"1  c #2D1307",
"2  c #211F11",
"3  c #331B03",
"4  c #2E2000",
"5  c #332500",
"6  c #372900",
"7  c #3B2D00",
"8  c #3E3100",
"9  c #312C11",
"0  c #343013",
"q  c #262624",
"w  c #2C2C2C",
"e  c #373736",
"r  c #410700",
"t  c #4D0300",
"y  c #440A00",
"u  c #4B0D00",
"i  c #540600",
"p  c #4D1100",
"a  c #551400",
"s  c #591700",
"d  c #5D1A00",
"f  c #461F19",
"g  c #6E0000",
"h  c #730000",
"j  c #7D0000",
"k  c #631E00",
"l  c #4B2103",
"z  c #433500",
"x  c #4A3B00",
"c  c #473C09",
"v  c #42231E",
"b  c #572A1B",
"n  c #583317",
"m  c #662300",
"M  c #6B3301",
"N  c #7C3D01",
"B  c #743C05",
"V  c #612C1D",
"C  c #673A18",
"Z  c #4F460D",
"A  c #524200",
"S  c #594800",
"D  c #514915",
"F  c #5C5117",
"G  c #4C4214",
"H  c #604F01",
"J  c #62581A",
"K  c #70461A",
"L  c #6C631D",
"P  c #5D5736",
"I  c #494323",
"U  c #7D5726",
"Y  c #6D6429",
"T  c #726724",
"R  c #756B24",
"E  c #796F2B",
"W  c #786F27",
"Q  c #7D742C",
"!  c #6E6731",
"~  c #7D7334",
"^  c #666340",
"/  c #726841",
"(  c #797A75",
")  c #830000",
"_  c #8A0000",
"`  c #970500",
"'  c #AD0100",
"]  c #B10400",
"[  c #B50C00",
"{  c #B91900",
"}  c #B61200",
"|  c #833B00",
" . c #803400",
".. c #BE2300",
"X. c #C32D00",
"o. c #C43100",
"O. c #C93C00",
"+. c #C73A00",
"@. c #8B4500",
"#. c #8E4B00",
"$. c #884705",
"%. c #914E00",
"&. c #945200",
"*. c #9A5B00",
"=. c #9F6100",
"-. c #A26401",
";. c #A76C03",
":. c #AC7206",
">. c #80762E",
",. c #857C34",
"<. c #827934",
"1. c #9B6B27",
"2. c #A16D21",
"3. c #A97A30",
"4. c #CD4100",
"5. c #8B823C",
"6. c #BD8F3A",
"7. c #BD923E",
"8. c #D58C00",
"9. c #D58700",
"0. c #D79700",
"q. c #D99C00",
"w. c #C09517",
"e. c #D7A607",
"r. c #C78F24",
"t. c #C9952D",
"y. c #CB9B3A",
"u. c #C89732",
"i. c #DDCF34",
"p. c #E1D52E",
"a. c #E1D636",
"s. c #E1D73D",
"d. c #8B8341",
"f. c #908741",
"g. c #938A43",
"h. c #948C4A",
"j. c #988F48",
"k. c #9D944E",
"l. c #9E965A",
"z. c #AA8842",
"x. c #A59C55",
"c. c #AAA15A",
"v. c #9E9763",
"b. c #AEA666",
"n. c #BBB36C",
"m. c #BBAF7E",
"M. c #BDB573",
"N. c #BBB476",
"B. c #B7AF6A",
"V. c #C79B44",
"C. c #C19A51",
"Z. c #CDA144",
"A. c #CDA54C",
"S. c #CFA94F",
"D. c #D0A74E",
"F. c #D0A84F",
"G. c #C8BE4F",
"H. c #CFA953",
"J. c #C0AE5E",
"K. c #D0AB54",
"L. c #D2AE5B",
"P. c #D0A750",
"I. c #D2B05E",
"U. c #D6B96F",
"Y. c #D4B466",
"T. c #C0B877",
"R. c #C2BB7C",
"E. c #D8CB47",
"W. c #E2D94A",
"Q. c #E1D740",
"!. c #D9C97F",
"~. c #E3D677",
"^. c #C4BE82",
"/. c #C7C289",
"(. c #C9C38C",
"). c #C7C187",
"_. c #DDD086",
"`. c #CECA99",
"'. c #E1D98D",
"]. c #E0D886",
"[. c #E1D995",
"{. c #E1DB9B",
"}. c #D4D0A5",
"|. c #E1DDB1",
" X c #E3DCA9",
".X c #DEDEDE",
"XX c #E1E1DB",
/* pixels */
"                                                                                                    ",
"                                                                                                    ",
"                                                                                                    ",
"                                                      a a V                                         ",
"                                                      C l v                                         ",
"                                            ; y u ; u W.W.E.s                                       ",
"                                      o & * 0.q.Q.a.Q.e.W.E.k                                       ",
"                                    O 9.9.0.p.a.y y r u e.w.m                                       ",
"                                    & 8.e.i.u r       d k s                                         ",
"                                  * 8.0.p y ^.          m k k                                       ",
"                                  * 0.- / ).R.R.y *.. :.k C                                         ",
"                    . . . . .     * & B.1 - ; ; L.L.u Y. Xm.u                                       ",
"                  q ( P P ^ , q w . & = C U * 3._._.6.Y.A.C.                                        ",
"                  . XX`.`.(.8 . . . - - K V.* y._.{.J.K.P.z.  ;                                     ",
"                  X }.c.c.k.A x 8 . ) r U V.@.y.V.{.K.&.r ; ;                                       ",
"                  X }.c.c.c.A A . o.o._ X . ; @.P.L.P.P.r f                                         ",
"                    . S H H . . 4.o.X...j j . &.H.=.(.XXp v                                         ",
"                    . k.c.c.. O.O.a a y ` { . u =.U.. . . %                                         ",
"                  . ,.g.! X 4.` a Y.Y.*.* - { . p ;.U.|.a V                                         ",
"                  . ^.g.I . O.p L.{..X[.O - ) . u u -.=.a n                                         ",
"                . M.<.. & O.O.p L.[.[.[.K N . ; N.u p u                                             ",
"                . R.,.. - ....r 6.[.[._.N @.. r N.u t u                                             ",
"                . M.Q . t [ [ - @.'.'.y.$.&.y u XXr _ r .X                                          ",
"                . > > . i ' h * | @.u.| %.*.y R.XXr } -   .X                                        ",
"                . L . ] ] ' h &  .t.u.t.| @.- T.: ) ; %.; b   .                                     ",
"                . L . ' ] ] h g & | t.| | @.%.- - - @.Z.- * . . .                                   ",
"                  . . . - [ j h * | u.].].'.Z.%.- - @.. . . < ,.)..                                 ",
"                  .X  . . . j ) ) - '.V.y.A.{.P.W R & & . . . 6 7 ^..                               ",
"                    .X. . . . . ) ) ; A.K.K.I.5 >.< u.r.~.n.* . 8 8 ,..                             ",
"                      # $ # # . t * o n 1.2.E z F < y.u.z.n - . 6 6 c 9                             ",
"                    . j.h.5./.z . . . ; M =.x z z H.S.[.&.m - . 4 4 5 Q .                           ",
"                  .X. 5.,.,.8 ^.M.n.T 5 p d . z L.H.S.A.#.B ; Z.. 7 5 6 E + .                       ",
"                    . 5.,.Q ^.,.T.M.M.R.4 . k.. y L.H.%.- - #.* - . 8 6 6 G W .                     ",
"                      . 9 Q Q <.<.^.T.T.h.h.. x <.r - - - - -       . z 8 8 5 R..                   ",
"                    .X. + z <.5.,.^.R.M.^.(.. 7 7 E Q M.T J <         . x T ,.. .                   ",
"                      .X  . x z g.5.^..Xm.v.. . 6 5 Q T.N.b.6           . . . .                     ",
"                        ( . f.f././.^.^.R.B.. 5 5 <.,.).).l..                                       ",
"                      e q ! g.l.d.h.(.R.Y Z . @ D W b.^.E D .                                       ",
"                      . # f.f.(.k.k.).R.F x . + J R M.R.~ 0 X                                       ",
"                      . . . j.x.x.`.5.. . . . . @ R ,.. . %                                         ",
"                    . x x z . . . . .       . . . . .                                               ",
"                  . x x z 7 8 x .           . < < 7 .                                               ",
"                  . . x x 8 ,..             . . 5 7   .                                             ",
"                . z z 5.5.<.^.,..       w . > < 6 ,.d.  . %                                         ",
"                . z 8 7 5 5 >.W > .     w . < 4 6 z f.g.g.~ x .                                     ",
"                . . . . . . . . . .     q . . . . . . . . . . .                                     ",
"                X . X . . . . . . .     w . . . . . . . . . . .                                     ",
"                                                                                                    ",
"                                                                                                    ",
"                                                                                                    "
};
